<svg width="664" height="475" viewBox="0 0 664 475" fill="none" xmlns="http://www.w3.org/2000/svg">
<path d="M111.522 93.9835C113.281 82.2631 122.659 73.1657 134.428 71.7645L550.727 22.1983C565.439 20.4465 578.696 31.1846 580.037 45.9404L612.316 401.109C613.744 416.815 601.127 430.24 585.363 429.788L93.04 415.676C77.2651 415.223 65.4352 401.081 67.7773 385.474L111.522 93.9835Z" fill="#FF6984"/>
<g clip-path="url(#clip0)">
<g clip-path="url(#clip1)">
<g clip-path="url(#clip2)">
<path d="M146 197.565C146 189.008 152.937 182.071 161.494 182.071H467.505V563.615H146V197.565Z" fill="white"/>
<g clip-path="url(#clip3)">
<rect x="187.641" y="225.648" width="15.4942" height="16.4626" rx="1.93677" fill="#FF6984"/>
<path d="M191.151 233.274L194.419 236.542L203.135 227.827" stroke="black" stroke-width="1.93677" stroke-linecap="round" stroke-linejoin="round"/>
<path d="M203.135 234.364V240.9C203.135 241.478 202.905 242.032 202.496 242.441C202.088 242.85 201.534 243.079 200.956 243.079H187.882C187.305 243.079 186.75 242.85 186.342 242.441C185.933 242.032 185.704 241.478 185.704 240.9V227.827C185.704 227.249 185.933 226.695 186.342 226.286C186.75 225.878 187.305 225.648 187.882 225.648H197.687" stroke="black" stroke-width="1.93677" stroke-linecap="round" stroke-linejoin="round"/>
<path d="M216.358 229.82H214.87V239.68H216.358V229.82ZM219.848 235.289C219.848 234.11 220.571 233.436 221.572 233.436C222.549 233.436 223.142 234.076 223.142 235.15V239.68H224.581V234.976C224.581 233.147 223.575 232.189 222.063 232.189C220.951 232.189 220.224 232.704 219.882 233.489H219.791V232.285H218.409V239.68H219.848V235.289ZM232.053 234.09C231.755 232.94 230.854 232.189 229.256 232.189C227.585 232.189 226.401 233.07 226.401 234.379C226.401 235.429 227.036 236.127 228.423 236.435L229.675 236.709C230.387 236.868 230.719 237.186 230.719 237.648C230.719 238.221 230.108 238.669 229.164 238.669C228.303 238.669 227.749 238.298 227.576 237.571L226.184 237.783C226.425 239.093 227.513 239.829 229.174 239.829C230.96 239.829 232.197 238.881 232.197 237.542C232.197 236.498 231.533 235.852 230.175 235.54L229.001 235.27C228.187 235.077 227.836 234.803 227.84 234.302C227.836 233.734 228.452 233.33 229.27 233.33C230.166 233.33 230.58 233.826 230.748 234.321L232.053 234.09ZM238.465 236.613C238.469 237.87 237.535 238.467 236.727 238.467C235.836 238.467 235.22 237.822 235.22 236.815V232.285H233.78V236.989C233.78 238.823 234.786 239.776 236.207 239.776C237.319 239.776 238.075 239.189 238.417 238.399H238.494V239.68H239.909V232.285H238.465V236.613ZM243.283 229.82H241.843V239.68H243.283V229.82ZM245.219 239.68H246.659V232.285H245.219V239.68ZM245.946 231.144C246.442 231.144 246.856 230.759 246.856 230.287C246.856 229.815 246.442 229.425 245.946 229.425C245.446 229.425 245.036 229.815 245.036 230.287C245.036 230.759 245.446 231.144 245.946 231.144ZM250.035 235.289C250.035 234.11 250.757 233.436 251.758 233.436C252.736 233.436 253.328 234.076 253.328 235.15V239.68H254.768V234.976C254.768 233.147 253.761 232.189 252.25 232.189C251.137 232.189 250.41 232.704 250.069 233.489H249.977V232.285H248.595V239.68H250.035V235.289ZM259.813 239.829C261.898 239.829 263.26 238.303 263.26 236.016C263.26 233.715 261.898 232.189 259.813 232.189C257.728 232.189 256.366 233.715 256.366 236.016C256.366 238.303 257.728 239.829 259.813 239.829ZM259.818 238.621C258.455 238.621 257.82 237.432 257.82 236.011C257.82 234.596 258.455 233.392 259.818 233.392C261.171 233.392 261.806 234.596 261.806 236.011C261.806 237.432 261.171 238.621 259.818 238.621ZM267.982 239.829C270.067 239.829 271.429 238.303 271.429 236.016C271.429 233.715 270.067 232.189 267.982 232.189C265.897 232.189 264.535 233.715 264.535 236.016C264.535 238.303 265.897 239.829 267.982 239.829ZM267.987 238.621C266.624 238.621 265.989 237.432 265.989 236.011C265.989 234.596 266.624 233.392 267.987 233.392C269.34 233.392 269.975 234.596 269.975 236.011C269.975 237.432 269.34 238.621 267.987 238.621ZM273.036 242.453H274.475V238.529H274.562C274.822 239.001 275.352 239.824 276.7 239.824C278.491 239.824 279.79 238.39 279.79 235.997C279.79 233.599 278.471 232.189 276.685 232.189C275.313 232.189 274.817 233.026 274.562 233.484H274.442V232.285H273.036V242.453ZM274.446 235.982C274.446 234.437 275.12 233.412 276.377 233.412C277.682 233.412 278.337 234.514 278.337 235.982C278.337 237.465 277.663 238.597 276.377 238.597C275.14 238.597 274.446 237.538 274.446 235.982ZM284.518 239.829C286.603 239.829 287.965 238.303 287.965 236.016C287.965 233.715 286.603 232.189 284.518 232.189C282.434 232.189 281.071 233.715 281.071 236.016C281.071 238.303 282.434 239.829 284.518 239.829ZM284.523 238.621C283.161 238.621 282.525 237.432 282.525 236.011C282.525 234.596 283.161 233.392 284.523 233.392C285.876 233.392 286.511 234.596 286.511 236.011C286.511 237.432 285.876 238.621 284.523 238.621ZM289.572 239.68H291.012V235.164C291.012 234.196 291.758 233.498 292.779 233.498C293.077 233.498 293.414 233.551 293.53 233.585V232.208C293.385 232.189 293.101 232.174 292.918 232.174C292.052 232.174 291.31 232.665 291.041 233.46H290.964V232.285H289.572V239.68ZM296.215 235.289C296.215 234.11 296.937 233.436 297.938 233.436C298.916 233.436 299.508 234.076 299.508 235.15V239.68H300.947V234.976C300.947 233.147 299.941 232.189 298.43 232.189C297.317 232.189 296.59 232.704 296.249 233.489H296.157V232.285H294.775V239.68H296.215V235.289ZM305.993 239.829C308.078 239.829 309.44 238.303 309.44 236.016C309.44 233.715 308.078 232.189 305.993 232.189C303.908 232.189 302.546 233.715 302.546 236.016C302.546 238.303 303.908 239.829 305.993 239.829ZM305.998 238.621C304.635 238.621 304 237.432 304 236.011C304 234.596 304.635 233.392 305.998 233.392C307.351 233.392 307.986 234.596 307.986 236.011C307.986 237.432 307.351 238.621 305.998 238.621ZM316.588 234.09C316.29 232.94 315.39 232.189 313.791 232.189C312.121 232.189 310.936 233.07 310.936 234.379C310.936 235.429 311.572 236.127 312.958 236.435L314.21 236.709C314.923 236.868 315.255 237.186 315.255 237.648C315.255 238.221 314.643 238.669 313.7 238.669C312.838 238.669 312.284 238.298 312.111 237.571L310.72 237.783C310.96 239.093 312.048 239.829 313.709 239.829C315.495 239.829 316.733 238.881 316.733 237.542C316.733 236.498 316.068 235.852 314.711 235.54L313.536 235.27C312.722 235.077 312.371 234.803 312.376 234.302C312.371 233.734 312.987 233.33 313.806 233.33C314.701 233.33 315.115 233.826 315.284 234.321L316.588 234.09ZM313.213 231.298H314.364L315.857 229.079H314.34L313.213 231.298ZM321.43 239.829C323.178 239.829 324.309 238.78 324.468 237.34H323.067C322.884 238.139 322.263 238.611 321.44 238.611C320.222 238.611 319.437 237.595 319.437 235.982C319.437 234.399 320.236 233.402 321.44 233.402C322.355 233.402 322.913 233.98 323.067 234.673H324.468C324.314 233.18 323.096 232.189 321.416 232.189C319.331 232.189 317.983 233.758 317.983 236.016C317.983 238.245 319.283 239.829 321.43 239.829ZM320.809 231.298H321.96L323.453 229.079H321.936L320.809 231.298Z" fill="#333333"/>
</g>
<g clip-path="url(#clip4)">
<rect x="185.704" y="272.131" width="17.431" height="17.431" rx="2.90516" fill="white" stroke="#333333" stroke-width="1.93677"/>
<path d="M222.8 276.303H221.625V284.064H221.529L216.137 276.303H214.981V286.163H216.175V278.421H216.271L221.644 286.163H222.8V276.303ZM227.211 286.336C228.501 286.336 229.175 285.643 229.406 285.161H229.464V286.163H230.6V281.29C230.6 278.941 228.809 278.671 227.866 278.671C226.749 278.671 225.478 279.057 224.9 280.405L225.978 280.79C226.229 280.25 226.821 279.673 227.904 279.673C228.949 279.673 229.464 280.226 229.464 281.175V281.213C229.464 281.762 228.906 281.714 227.558 281.887C226.185 282.066 224.688 282.369 224.688 284.064C224.688 285.508 225.805 286.336 227.211 286.336ZM227.384 285.315C226.479 285.315 225.824 284.911 225.824 284.121C225.824 283.255 226.614 282.985 227.5 282.87C227.981 282.812 229.272 282.677 229.464 282.446V283.486C229.464 284.41 228.732 285.315 227.384 285.315ZM235.466 286.317C236.892 286.317 237.373 285.431 237.623 285.026H237.758V286.163H238.856V276.303H237.72V279.942H237.623C237.373 279.557 236.93 278.671 235.486 278.671C233.618 278.671 232.327 280.154 232.327 282.484C232.327 284.834 233.618 286.317 235.466 286.317ZM235.621 285.296C234.195 285.296 233.464 284.044 233.464 282.465C233.464 280.905 234.176 279.692 235.621 279.692C237.007 279.692 237.739 280.809 237.739 282.465C237.739 284.141 236.988 285.296 235.621 285.296ZM244.099 286.317C245.736 286.317 246.814 285.315 247.007 284.006H245.87C245.659 284.815 244.985 285.296 244.099 285.296C242.751 285.296 241.884 284.179 241.884 282.465C241.884 280.79 242.77 279.692 244.099 279.692C245.1 279.692 245.697 280.308 245.87 280.982H247.007C246.814 279.596 245.639 278.671 244.079 278.671C242.077 278.671 240.748 280.25 240.748 282.504C240.748 284.718 242.019 286.317 244.099 286.317ZM248.668 286.163H249.804V278.768H248.668V286.163ZM249.245 277.535C249.688 277.535 250.054 277.189 250.054 276.765C250.054 276.341 249.688 275.995 249.245 275.995C248.802 275.995 248.437 276.341 248.437 276.765C248.437 277.189 248.802 277.535 249.245 277.535ZM257.123 280.424C256.767 279.374 255.967 278.671 254.504 278.671C252.944 278.671 251.789 279.557 251.789 280.809C251.789 281.83 252.395 282.513 253.753 282.831L254.985 283.12C255.732 283.293 256.083 283.649 256.083 284.16C256.083 284.795 255.409 285.315 254.35 285.315C253.421 285.315 252.838 284.916 252.636 284.121L251.557 284.391C251.822 285.647 252.857 286.317 254.369 286.317C256.088 286.317 257.258 285.378 257.258 284.102C257.258 283.072 256.613 282.422 255.293 282.099L254.196 281.83C253.32 281.613 252.925 281.319 252.925 280.751C252.925 280.116 253.599 279.653 254.504 279.653C255.496 279.653 255.905 280.202 256.102 280.713L257.123 280.424ZM253.984 277.766H254.985L256.487 275.532H255.159L253.984 277.766ZM260.104 281.714C260.104 280.424 260.903 279.692 261.992 279.692C263.046 279.692 263.686 280.38 263.686 281.541V286.163H264.822V281.464C264.822 279.576 263.816 278.671 262.319 278.671C261.202 278.671 260.509 279.172 260.162 279.923H260.066V278.768H258.968V286.163H260.104V281.714ZM266.899 286.163H268.035V278.768H266.899V286.163ZM267.476 277.535C267.919 277.535 268.285 277.189 268.285 276.765C268.285 276.341 267.919 275.995 267.476 275.995C267.033 275.995 266.668 276.341 266.668 276.765C266.668 277.189 267.033 277.535 267.476 277.535ZM273.216 286.317C274.718 286.317 275.816 285.566 276.163 284.449L275.065 284.141C274.776 284.911 274.107 285.296 273.216 285.296C271.883 285.296 270.963 284.434 270.91 282.85H276.278V282.369C276.278 279.615 274.641 278.671 273.101 278.671C271.098 278.671 269.769 280.25 269.769 282.523C269.769 284.795 271.079 286.317 273.216 286.317ZM270.91 281.868C270.987 280.717 271.801 279.692 273.101 279.692C274.333 279.692 275.123 280.616 275.123 281.868H270.91ZM279.143 281.714C279.143 280.424 279.942 279.692 281.03 279.692C282.085 279.692 282.725 280.38 282.725 281.541V286.163H283.861V281.464C283.861 279.576 282.855 278.671 281.358 278.671C280.241 278.671 279.547 279.172 279.201 279.923H279.104V278.768H278.007V286.163H279.143V281.714ZM285.937 286.163H287.074V278.768H285.937V286.163ZM286.515 277.535C286.958 277.535 287.324 277.189 287.324 276.765C287.324 276.341 286.958 275.995 286.515 275.995C286.072 275.995 285.706 276.341 285.706 276.765C285.706 277.189 286.072 277.535 286.515 277.535ZM292.255 286.317C293.757 286.317 294.855 285.566 295.201 284.449L294.104 284.141C293.815 284.911 293.146 285.296 292.255 285.296C290.921 285.296 290.002 284.434 289.949 282.85H295.317V282.369C295.317 279.615 293.68 278.671 292.139 278.671C290.137 278.671 288.808 280.25 288.808 282.523C288.808 284.795 290.117 286.317 292.255 286.317ZM289.949 281.868C290.026 280.717 290.84 279.692 292.139 279.692C293.372 279.692 294.162 280.616 294.162 281.868H289.949Z" fill="#333333"/>
</g>
<g clip-path="url(#clip5)">
<rect x="185.704" y="318.613" width="17.431" height="17.431" rx="2.90516" fill="white" stroke="#333333" stroke-width="1.93677"/>
<path d="M222.8 322.785H221.625V330.546H221.529L216.137 322.785H214.981V332.645H216.175V324.903H216.271L221.644 332.645H222.8V322.785ZM225.035 332.645H226.171V325.25H225.035V332.645ZM225.613 324.018C226.055 324.018 226.421 323.671 226.421 323.247C226.421 322.824 226.055 322.477 225.613 322.477C225.17 322.477 224.804 322.824 224.804 323.247C224.804 323.671 225.17 324.018 225.613 324.018ZM231.353 332.799C232.855 332.799 233.952 332.048 234.299 330.931L233.201 330.623C232.912 331.393 232.243 331.778 231.353 331.778C230.019 331.778 229.099 330.917 229.046 329.333H234.415V328.851C234.415 326.097 232.778 325.154 231.237 325.154C229.234 325.154 227.905 326.733 227.905 329.005C227.905 331.278 229.215 332.799 231.353 332.799ZM229.046 328.351C229.123 327.2 229.937 326.174 231.237 326.174C232.469 326.174 233.259 327.099 233.259 328.351H229.046ZM238.935 332.799C240.36 332.799 240.842 331.913 241.092 331.509H241.227V332.645H242.325V322.785H241.188V326.425H241.092C240.842 326.04 240.399 325.154 238.955 325.154C237.087 325.154 235.796 326.637 235.796 328.967C235.796 331.316 237.087 332.799 238.935 332.799ZM239.089 331.778C237.664 331.778 236.932 330.527 236.932 328.948C236.932 327.388 237.645 326.174 239.089 326.174C240.476 326.174 241.208 327.291 241.208 328.948C241.208 330.623 240.457 331.778 239.089 331.778ZM247.568 332.799C249.57 332.799 250.918 331.278 250.918 328.986C250.918 326.675 249.57 325.154 247.568 325.154C245.565 325.154 244.217 326.675 244.217 328.986C244.217 331.278 245.565 332.799 247.568 332.799ZM247.568 331.778C246.046 331.778 245.353 330.469 245.353 328.986C245.353 327.503 246.046 326.174 247.568 326.174C249.089 326.174 249.782 327.503 249.782 328.986C249.782 330.469 249.089 331.778 247.568 331.778ZM255.657 332.799C257.294 332.799 258.372 331.798 258.565 330.488H257.429C257.217 331.297 256.543 331.778 255.657 331.778C254.309 331.778 253.442 330.661 253.442 328.948C253.442 327.272 254.328 326.174 255.657 326.174C256.658 326.174 257.255 326.791 257.429 327.465H258.565C258.372 326.078 257.198 325.154 255.638 325.154C253.635 325.154 252.306 326.733 252.306 328.986C252.306 331.201 253.577 332.799 255.657 332.799ZM260.014 332.645H265.811V331.586H261.593V331.509L265.676 326.155V325.25H260.149V326.309H264.212V326.386L260.014 331.778V332.645ZM268.292 335.418C269.318 335.418 270.04 334.874 270.469 333.723L273.617 325.269L272.375 325.25L270.334 331.143H270.257L268.215 325.25H266.983L269.718 332.684L269.506 333.261C269.092 334.388 268.581 334.494 267.753 334.282L267.464 335.283C267.58 335.341 267.907 335.418 268.292 335.418ZM276.257 328.196C276.257 326.906 277.056 326.174 278.144 326.174C279.198 326.174 279.839 326.863 279.839 328.023V332.645H280.975V327.946C280.975 326.059 279.969 325.154 278.471 325.154C277.354 325.154 276.661 325.654 276.314 326.406H276.218V325.25H275.12V332.645H276.257V328.196ZM284.187 328.196C284.187 326.906 284.986 326.174 286.075 326.174C287.129 326.174 287.769 326.863 287.769 328.023V332.645H288.905V327.946C288.905 326.059 287.899 325.154 286.402 325.154C285.285 325.154 284.592 325.654 284.245 326.406H284.149V325.25H283.051V332.645H284.187V328.196ZM293.986 332.799C295.989 332.799 297.337 331.278 297.337 328.986C297.337 326.675 295.989 325.154 293.986 325.154C291.983 325.154 290.635 326.675 290.635 328.986C290.635 331.278 291.983 332.799 293.986 332.799ZM293.986 331.778C292.464 331.778 291.771 330.469 291.771 328.986C291.771 327.503 292.464 326.174 293.986 326.174C295.507 326.174 296.2 327.503 296.2 328.986C296.2 330.469 295.507 331.778 293.986 331.778ZM304.309 326.906C303.953 325.857 303.154 325.154 301.69 325.154C300.13 325.154 298.975 326.04 298.975 327.291C298.975 328.312 299.581 328.996 300.939 329.313L302.172 329.602C302.918 329.776 303.269 330.132 303.269 330.642C303.269 331.278 302.595 331.798 301.536 331.798C300.607 331.798 300.024 331.398 299.822 330.604L298.744 330.873C299.008 332.13 300.044 332.799 301.555 332.799C303.274 332.799 304.444 331.86 304.444 330.584C304.444 329.554 303.799 328.904 302.48 328.582L301.382 328.312C300.506 328.095 300.111 327.802 300.111 327.234C300.111 326.598 300.785 326.136 301.69 326.136C302.682 326.136 303.091 326.685 303.288 327.195L304.309 326.906ZM301.17 324.249H302.172L303.674 322.015H302.345L301.17 324.249ZM309.158 332.799C310.795 332.799 311.874 331.798 312.066 330.488H310.93C310.718 331.297 310.044 331.778 309.158 331.778C307.81 331.778 306.944 330.661 306.944 328.948C306.944 327.272 307.83 326.174 309.158 326.174C310.16 326.174 310.757 326.791 310.93 327.465H312.066C311.874 326.078 310.699 325.154 309.139 325.154C307.136 325.154 305.808 326.733 305.808 328.986C305.808 331.201 307.079 332.799 309.158 332.799ZM308.6 324.249H309.601L311.104 322.015H309.775L308.6 324.249ZM320.756 325.25H319.177V323.478H318.041V325.25H316.924V326.213H318.041V330.835C318.041 332.125 319.081 332.741 320.044 332.741C320.468 332.741 320.737 332.664 320.891 332.607L320.66 331.586C320.564 331.605 320.41 331.644 320.159 331.644C319.659 331.644 319.177 331.49 319.177 330.527V326.213H320.756V325.25ZM324.642 332.818C325.932 332.818 326.606 332.125 326.837 331.644H326.895V332.645H328.031V327.773C328.031 325.423 326.24 325.154 325.296 325.154C324.179 325.154 322.908 325.539 322.331 326.887L323.409 327.272C323.66 326.733 324.252 326.155 325.335 326.155C326.38 326.155 326.895 326.709 326.895 327.657V327.696C326.895 328.245 326.336 328.196 324.988 328.37C323.616 328.548 322.119 328.851 322.119 330.546C322.119 331.99 323.236 332.818 324.642 332.818ZM324.815 331.798C323.91 331.798 323.255 331.393 323.255 330.604C323.255 329.737 324.045 329.467 324.931 329.352C325.412 329.294 326.702 329.159 326.895 328.928V329.968C326.895 330.893 326.163 331.798 324.815 331.798ZM330.105 332.645H331.241V327.965C331.241 326.964 332.031 326.232 333.109 326.232C333.412 326.232 333.725 326.29 333.802 326.309V325.154C333.672 325.144 333.374 325.135 333.205 325.135C332.319 325.135 331.549 325.635 331.28 326.367H331.203V325.25H330.105V332.645ZM337.928 332.799C339.565 332.799 340.644 331.798 340.836 330.488H339.7C339.488 331.297 338.814 331.778 337.928 331.778C336.58 331.778 335.714 330.661 335.714 328.948C335.714 327.272 336.6 326.174 337.928 326.174C338.93 326.174 339.527 326.791 339.7 327.465H340.836C340.644 326.078 339.469 325.154 337.909 325.154C335.906 325.154 334.577 326.733 334.577 328.986C334.577 331.201 335.848 332.799 337.928 332.799ZM342.285 332.645H348.082V331.586H343.864V331.509L347.947 326.155V325.25H342.42V326.309H346.484V326.386L342.285 331.778V332.645ZM350.564 335.418C351.589 335.418 352.311 334.874 352.74 333.723L355.889 325.269L354.646 325.25L352.605 331.143H352.528L350.487 325.25H349.254L351.989 332.684L351.777 333.261C351.363 334.388 350.853 334.494 350.025 334.282L349.736 335.283C349.851 335.341 350.179 335.418 350.564 335.418ZM360.131 332.799C361.768 332.799 362.847 331.798 363.039 330.488H361.903C361.691 331.297 361.017 331.778 360.131 331.778C358.783 331.778 357.917 330.661 357.917 328.948C357.917 327.272 358.802 326.174 360.131 326.174C361.133 326.174 361.73 326.791 361.903 327.465H363.039C362.847 326.078 361.672 325.154 360.112 325.154C358.109 325.154 356.78 326.733 356.78 328.986C356.78 331.201 358.051 332.799 360.131 332.799ZM365.432 335.418C366.457 335.418 367.18 334.874 367.608 333.723L370.757 325.269L369.515 325.25L367.473 331.143H367.396L365.355 325.25H364.122L366.857 332.684L366.645 333.261C366.231 334.388 365.721 334.494 364.893 334.282L364.604 335.283C364.719 335.341 365.047 335.418 365.432 335.418Z" fill="#333333"/>
</g>
<g clip-path="url(#clip6)">
<rect x="185.704" y="365.096" width="17.431" height="17.431" rx="2.90516" fill="white" stroke="#333333" stroke-width="1.93677"/>
<path d="M223.3 374.198C223.3 371.078 221.471 369.133 218.948 369.133C216.425 369.133 214.596 371.078 214.596 374.198C214.596 377.317 216.425 379.262 218.948 379.262C221.471 379.262 223.3 377.317 223.3 374.198ZM222.145 374.198C222.145 376.759 220.739 378.146 218.948 378.146C217.157 378.146 215.751 376.759 215.751 374.198C215.751 371.636 217.157 370.25 218.948 370.25C220.739 370.25 222.145 371.636 222.145 374.198ZM228.37 371.733H226.791V369.961H225.655V371.733H224.538V372.696H225.655V377.317C225.655 378.608 226.695 379.224 227.657 379.224C228.081 379.224 228.351 379.147 228.505 379.089L228.274 378.069C228.177 378.088 228.023 378.126 227.773 378.126C227.272 378.126 226.791 377.972 226.791 377.009V372.696H228.37V371.733ZM230.811 381.901C231.836 381.901 232.559 381.357 232.987 380.206L236.136 371.752L234.894 371.733L232.852 377.626H232.775L230.734 371.733H229.501L232.236 379.166L232.024 379.744C231.61 380.871 231.1 380.976 230.272 380.765L229.983 381.766C230.098 381.824 230.426 381.901 230.811 381.901ZM239.834 372.965L238.775 373.365V369.268H237.639V373.798L236.58 374.198V375.045L237.639 374.645V379.128H238.775V374.212L239.834 373.813V372.965ZM243.86 379.282C245.863 379.282 247.211 377.76 247.211 375.469C247.211 373.158 245.863 371.636 243.86 371.636C241.858 371.636 240.51 373.158 240.51 375.469C240.51 377.76 241.858 379.282 243.86 379.282ZM243.86 378.261C242.339 378.261 241.646 376.952 241.646 375.469C241.646 373.986 242.339 372.657 243.86 372.657C245.382 372.657 246.075 373.986 246.075 375.469C246.075 376.952 245.382 378.261 243.86 378.261ZM254.184 373.389C253.827 372.339 253.028 371.636 251.565 371.636C250.005 371.636 248.849 372.522 248.849 373.774C248.849 374.795 249.456 375.478 250.814 375.796L252.046 376.085C252.792 376.258 253.144 376.615 253.144 377.125C253.144 377.76 252.47 378.28 251.411 378.28C250.481 378.28 249.899 377.881 249.697 377.086L248.618 377.356C248.883 378.613 249.918 379.282 251.43 379.282C253.149 379.282 254.319 378.343 254.319 377.067C254.319 376.037 253.673 375.387 252.354 375.064L251.257 374.795C250.38 374.578 249.986 374.284 249.986 373.716C249.986 373.081 250.66 372.619 251.565 372.619C252.556 372.619 252.966 373.167 253.163 373.678L254.184 373.389ZM251.045 370.731H252.046L253.548 368.497H252.219L251.045 370.731ZM259.033 379.282C260.67 379.282 261.748 378.28 261.941 376.971H260.805C260.593 377.78 259.919 378.261 259.033 378.261C257.685 378.261 256.818 377.144 256.818 375.43C256.818 373.755 257.704 372.657 259.033 372.657C260.034 372.657 260.631 373.273 260.805 373.947H261.941C261.748 372.561 260.574 371.636 259.014 371.636C257.011 371.636 255.682 373.216 255.682 375.469C255.682 377.683 256.953 379.282 259.033 379.282ZM258.475 370.731H259.476L260.978 368.497H259.649L258.475 370.731Z" fill="#333333"/>
</g>
<g clip-path="url(#clip7)">
<rect x="185.704" y="411.579" width="17.431" height="17.431" rx="2.90516" fill="white" stroke="#333333" stroke-width="1.93677"/>
<path d="M214.981 425.61H216.175V422.009H218.332C220.628 422.009 221.664 420.613 221.664 418.87C221.664 417.127 220.628 415.75 218.313 415.75H214.981V425.61ZM216.175 420.95V416.81H218.274C219.877 416.81 220.489 417.686 220.489 418.87C220.489 420.055 219.877 420.95 218.293 420.95H216.175ZM223.433 425.61H224.569V420.931C224.569 419.929 225.359 419.198 226.437 419.198C226.74 419.198 227.053 419.255 227.13 419.275V418.119C227 418.109 226.702 418.1 226.533 418.1C225.647 418.1 224.877 418.601 224.608 419.332H224.531V418.215H223.433V425.61ZM228.265 425.61H234.062V424.551H229.844V424.474L233.927 419.121V418.215H228.4V419.275H232.463V419.352L228.265 424.744V425.61ZM238.701 425.764C240.203 425.764 241.3 425.013 241.647 423.896L240.549 423.588C240.26 424.359 239.591 424.744 238.701 424.744C237.367 424.744 236.447 423.882 236.394 422.298H241.763V421.817C241.763 419.063 240.126 418.119 238.585 418.119C236.582 418.119 235.253 419.698 235.253 421.971C235.253 424.243 236.563 425.764 238.701 425.764ZM236.394 421.316C236.471 420.165 237.285 419.14 238.585 419.14C239.818 419.14 240.607 420.064 240.607 421.316H236.394ZM245.166 425.61H246.283L247.901 419.929H248.016L249.634 425.61H250.751L253.004 418.215H251.81L250.212 423.858H250.135L248.575 418.215H247.362L245.783 423.877H245.706L244.107 418.215H242.913L245.166 425.61ZM255.643 415.75H254.506V425.61H255.643V415.75ZM260.824 425.764C262.326 425.764 263.424 425.013 263.77 423.896L262.673 423.588C262.384 424.359 261.715 424.744 260.824 424.744C259.49 424.744 258.571 423.882 258.518 422.298H263.886V421.817C263.886 419.063 262.249 418.119 260.709 418.119C258.706 418.119 257.377 419.698 257.377 421.971C257.377 424.243 258.686 425.764 260.824 425.764ZM258.518 421.316C258.595 420.165 259.409 419.14 260.709 419.14C261.941 419.14 262.731 420.064 262.731 421.316H258.518ZM265.614 425.61H266.751V422.842L267.545 422.105L270.313 425.61H271.758L268.402 421.374L271.527 418.215H270.121L266.885 421.508H266.751V415.75H265.614V425.61ZM275.184 419.448L274.125 419.847V415.75H272.989V420.281L271.93 420.68V421.528L272.989 421.128V425.61H274.125V420.695L275.184 420.295V419.448ZM278.382 425.784C279.673 425.784 280.347 425.09 280.578 424.609H280.635V425.61H281.772V420.738C281.772 418.389 279.981 418.119 279.037 418.119C277.92 418.119 276.649 418.504 276.071 419.852L277.15 420.237C277.4 419.698 277.992 419.121 279.076 419.121C280.12 419.121 280.635 419.674 280.635 420.623V420.661C280.635 421.21 280.077 421.162 278.729 421.335C277.357 421.513 275.86 421.817 275.86 423.511C275.86 424.956 276.976 425.784 278.382 425.784ZM278.556 424.763C277.65 424.763 276.996 424.359 276.996 423.569C276.996 422.702 277.785 422.433 278.671 422.317C279.153 422.26 280.443 422.125 280.635 421.894V422.934C280.635 423.858 279.904 424.763 278.556 424.763ZM288.795 421.162C288.795 419.872 289.594 419.14 290.682 419.14C291.736 419.14 292.377 419.828 292.377 420.989V425.61H293.513V420.911C293.513 419.024 292.507 418.119 291.009 418.119C289.892 418.119 289.199 418.62 288.852 419.371H288.756V418.215H287.658V425.61H288.795V421.162ZM295.589 425.61H296.725V418.215H295.589V425.61ZM296.167 416.983C296.61 416.983 296.976 416.636 296.976 416.213C296.976 415.789 296.61 415.442 296.167 415.442C295.724 415.442 295.358 415.789 295.358 416.213C295.358 416.636 295.724 416.983 296.167 416.983ZM301.907 425.764C303.409 425.764 304.507 425.013 304.853 423.896L303.755 423.588C303.467 424.359 302.797 424.744 301.907 424.744C300.573 424.744 299.654 423.882 299.601 422.298H304.969V421.817C304.969 419.063 303.332 418.119 301.791 418.119C299.788 418.119 298.46 419.698 298.46 421.971C298.46 424.243 299.769 425.764 301.907 425.764ZM299.601 421.316C299.678 420.165 300.491 419.14 301.791 419.14C303.024 419.14 303.813 420.064 303.813 421.316H299.601ZM308.373 425.61H309.489L311.107 419.929H311.223L312.84 425.61H313.957L316.21 418.215H315.016L313.418 423.858H313.341L311.781 418.215H310.568L308.989 423.877H308.912L307.313 418.215H306.119L308.373 425.61ZM318.444 428.383C319.47 428.383 320.192 427.839 320.62 426.689L323.769 418.235L322.527 418.215L320.486 424.108H320.409L318.367 418.215H317.135L319.869 425.649L319.658 426.227C319.244 427.353 318.733 427.459 317.905 427.247L317.616 428.249C317.732 428.306 318.059 428.383 318.444 428.383ZM327.8 425.764C329.225 425.764 329.706 424.879 329.957 424.474H330.092V425.61H331.189V415.75H330.053V419.39H329.957C329.706 419.005 329.264 418.119 327.819 418.119C325.951 418.119 324.661 419.602 324.661 421.932C324.661 424.282 325.951 425.764 327.8 425.764ZM327.954 424.744C326.529 424.744 325.797 423.492 325.797 421.913C325.797 420.353 326.51 419.14 327.954 419.14C329.341 419.14 330.072 420.257 330.072 421.913C330.072 423.588 329.321 424.744 327.954 424.744ZM336.432 425.764C338.435 425.764 339.783 424.243 339.783 421.951C339.783 419.64 338.435 418.119 336.432 418.119C334.429 418.119 333.081 419.64 333.081 421.951C333.081 424.243 334.429 425.764 336.432 425.764ZM336.432 424.744C334.911 424.744 334.218 423.434 334.218 421.951C334.218 420.469 334.911 419.14 336.432 419.14C337.954 419.14 338.647 420.469 338.647 421.951C338.647 423.434 337.954 424.744 336.432 424.744ZM342.654 415.75H341.517V425.61H342.654V415.75ZM345.871 421.162C345.871 419.872 346.67 419.14 347.758 419.14C348.812 419.14 349.453 419.828 349.453 420.989V425.61H350.589V420.911C350.589 419.024 349.583 418.119 348.086 418.119C346.969 418.119 346.275 418.62 345.929 419.371H345.832V418.215H344.735V425.61H345.871V421.162ZM355.669 425.764C357.672 425.764 359.02 424.243 359.02 421.951C359.02 419.64 357.672 418.119 355.669 418.119C353.667 418.119 352.319 419.64 352.319 421.951C352.319 424.243 353.667 425.764 355.669 425.764ZM355.669 424.744C354.148 424.744 353.455 423.434 353.455 421.951C353.455 420.469 354.148 419.14 355.669 419.14C357.191 419.14 357.884 420.469 357.884 421.951C357.884 423.434 357.191 424.744 355.669 424.744ZM365.993 419.872C365.637 418.822 364.837 418.119 363.374 418.119C361.814 418.119 360.658 419.005 360.658 420.257C360.658 421.277 361.265 421.961 362.623 422.279L363.855 422.568C364.601 422.741 364.953 423.097 364.953 423.608C364.953 424.243 364.279 424.763 363.22 424.763C362.29 424.763 361.708 424.363 361.506 423.569L360.427 423.839C360.692 425.095 361.727 425.764 363.239 425.764C364.958 425.764 366.128 424.826 366.128 423.55C366.128 422.519 365.482 421.87 364.163 421.547L363.066 421.277C362.189 421.061 361.795 420.767 361.795 420.199C361.795 419.563 362.469 419.101 363.374 419.101C364.366 419.101 364.775 419.65 364.972 420.16L365.993 419.872ZM362.854 417.214H363.855L365.357 414.98H364.028L362.854 417.214ZM370.842 425.764C372.479 425.764 373.557 424.763 373.75 423.453H372.614C372.402 424.262 371.728 424.744 370.842 424.744C369.494 424.744 368.627 423.627 368.627 421.913C368.627 420.237 369.513 419.14 370.842 419.14C371.844 419.14 372.44 419.756 372.614 420.43H373.75C373.557 419.043 372.383 418.119 370.823 418.119C368.82 418.119 367.491 419.698 367.491 421.951C367.491 424.166 368.762 425.764 370.842 425.764ZM370.284 417.214H371.285L372.787 414.98H371.458L370.284 417.214ZM380.36 421.162C380.36 419.872 381.159 419.14 382.247 419.14C383.302 419.14 383.942 419.828 383.942 420.989V425.61H385.078V420.911C385.078 419.024 384.072 418.119 382.575 418.119C381.458 418.119 380.765 418.62 380.418 419.371H380.322V418.215H379.224V425.61H380.36V421.162ZM390.255 425.764C391.757 425.764 392.855 425.013 393.202 423.896L392.104 423.588C391.815 424.359 391.146 424.744 390.255 424.744C388.921 424.744 388.002 423.882 387.949 422.298H393.317V421.817C393.317 419.063 391.68 418.119 390.14 418.119C388.137 418.119 386.808 419.698 386.808 421.971C386.808 424.243 388.117 425.764 390.255 425.764ZM387.949 421.316C388.026 420.165 388.84 419.14 390.14 419.14C391.372 419.14 392.162 420.064 392.162 421.316H387.949ZM395.045 425.61H396.182V420.931C396.182 419.929 396.971 419.198 398.05 419.198C398.353 419.198 398.666 419.255 398.743 419.275V418.119C398.613 418.109 398.314 418.1 398.146 418.1C397.26 418.1 396.49 418.601 396.22 419.332H396.143V418.215H395.045V425.61ZM402.965 425.764C404.467 425.764 405.565 425.013 405.912 423.896L404.814 423.588C404.525 424.359 403.856 424.744 402.965 424.744C401.632 424.744 400.712 423.882 400.659 422.298H406.027V421.817C406.027 419.063 404.39 418.119 402.85 418.119C400.847 418.119 399.518 419.698 399.518 421.971C399.518 424.243 400.828 425.764 402.965 425.764ZM400.659 421.316C400.736 420.165 401.55 419.14 402.85 419.14C404.082 419.14 404.872 420.064 404.872 421.316H400.659ZM407.756 425.61H408.892V422.842L409.686 422.105L412.454 425.61H413.899L410.543 421.374L413.668 418.215H412.262L409.027 421.508H408.892V415.75H407.756V425.61Z" fill="#333333"/>
</g>
<g clip-path="url(#clip8)">
<rect x="185.22" y="457.577" width="18.3994" height="18.3994" rx="3.38936" fill="white" stroke="#333333" stroke-width="0.968387"/>
</g>
</g>
<g clip-path="url(#clip9)" filter="url(#filter0_d)">
<path d="M341.614 145.272C341.614 136.715 348.551 129.778 357.108 129.778H663.118V511.322H341.614V145.272Z" fill="white"/>
<g clip-path="url(#clip10)">
<rect x="381.319" y="179.167" width="17.431" height="17.431" rx="2.90516" fill="white" stroke="#333333" stroke-width="1.93677"/>
<path d="M418.529 186.419C418.163 184.396 416.545 183.203 414.562 183.203C412.039 183.203 410.21 185.148 410.21 188.267C410.21 191.387 412.039 193.332 414.562 193.332C416.545 193.332 418.163 192.138 418.529 190.116H417.335C417.046 191.483 415.871 192.215 414.562 192.215C412.771 192.215 411.365 190.829 411.365 188.267C411.365 185.706 412.771 184.319 414.562 184.319C415.871 184.319 417.046 185.051 417.335 186.419H418.529ZM423.405 193.351C424.907 193.351 426.005 192.6 426.351 191.483L425.254 191.175C424.965 191.946 424.296 192.331 423.405 192.331C422.071 192.331 421.152 191.469 421.099 189.885H426.467V189.403C426.467 186.65 424.83 185.706 423.289 185.706C421.286 185.706 419.958 187.285 419.958 189.558C419.958 191.83 421.267 193.351 423.405 193.351ZM421.099 188.903C421.176 187.752 421.989 186.727 423.289 186.727C424.522 186.727 425.311 187.651 425.311 188.903H421.099ZM429.331 183.337H428.195V193.197H429.331V183.337ZM431.412 193.197H432.549V185.802H431.412V193.197ZM431.99 184.57C432.433 184.57 432.799 184.223 432.799 183.8C432.799 183.376 432.433 183.029 431.99 183.029C431.547 183.029 431.181 183.376 431.181 183.8C431.181 184.223 431.547 184.57 431.99 184.57ZM436.806 193.371C438.096 193.371 438.77 192.677 439.001 192.196H439.059V193.197H440.195V188.325C440.195 185.976 438.404 185.706 437.461 185.706C436.344 185.706 435.073 186.091 434.495 187.439L435.573 187.824C435.824 187.285 436.416 186.707 437.499 186.707C438.544 186.707 439.059 187.261 439.059 188.21V188.248C439.059 188.797 438.5 188.749 437.152 188.922C435.78 189.1 434.283 189.403 434.283 191.098C434.283 192.543 435.4 193.371 436.806 193.371ZM436.979 192.35C436.074 192.35 435.419 191.946 435.419 191.156C435.419 190.289 436.209 190.02 437.095 189.904C437.576 189.846 438.866 189.712 439.059 189.481V190.52C439.059 191.445 438.327 192.35 436.979 192.35ZM442.269 193.197H443.405V190.429L444.2 189.692L446.968 193.197H448.412L445.057 188.961L448.181 185.802H446.775L443.54 189.095H443.405V183.337H442.269V193.197ZM449.643 193.197H450.78V185.802H449.643V193.197ZM450.221 184.57C450.664 184.57 451.03 184.223 451.03 183.8C451.03 183.376 450.664 183.029 450.221 183.029C449.778 183.029 449.412 183.376 449.412 183.8C449.412 184.223 449.778 184.57 450.221 184.57ZM455.037 193.371C456.327 193.371 457.001 192.677 457.232 192.196H457.29V193.197H458.426V188.325C458.426 185.976 456.635 185.706 455.692 185.706C454.575 185.706 453.304 186.091 452.726 187.439L453.804 187.824C454.055 187.285 454.647 186.707 455.73 186.707C456.775 186.707 457.29 187.261 457.29 188.21V188.248C457.29 188.797 456.731 188.749 455.383 188.922C454.011 189.1 452.514 189.403 452.514 191.098C452.514 192.543 453.631 193.371 455.037 193.371ZM455.21 192.35C454.305 192.35 453.65 191.946 453.65 191.156C453.65 190.289 454.44 190.02 455.326 189.904C455.807 189.846 457.097 189.712 457.29 189.481V190.52C457.29 191.445 456.558 192.35 455.21 192.35Z" fill="#333333"/>
</g>
<g clip-path="url(#clip11)">
<rect x="381.319" y="225.649" width="17.431" height="17.431" rx="2.90516" fill="white" stroke="#333333" stroke-width="1.93677"/>
<path d="M418.529 232.901C418.163 230.879 416.545 229.685 414.562 229.685C412.039 229.685 410.21 231.63 410.21 234.75C410.21 237.87 412.039 239.815 414.562 239.815C416.545 239.815 418.163 238.621 418.529 236.599H417.335C417.046 237.966 415.871 238.698 414.562 238.698C412.771 238.698 411.365 237.311 411.365 234.75C411.365 232.189 412.771 230.802 414.562 230.802C415.871 230.802 417.046 231.534 417.335 232.901H418.529ZM421.441 235.231C421.441 233.941 422.264 233.209 423.386 233.209C424.454 233.209 425.1 233.883 425.1 235.058V239.68H426.236V234.981C426.236 233.079 425.225 232.189 423.713 232.189C422.548 232.189 421.883 232.675 421.537 233.44H421.441V229.82H420.304V239.68H421.441V235.231ZM431.319 239.834C433.321 239.834 434.669 238.313 434.669 236.021C434.669 233.71 433.321 232.189 431.319 232.189C429.316 232.189 427.968 233.71 427.968 236.021C427.968 238.313 429.316 239.834 431.319 239.834ZM431.319 238.813C429.797 238.813 429.104 237.504 429.104 236.021C429.104 234.538 429.797 233.209 431.319 233.209C432.84 233.209 433.533 234.538 433.533 236.021C433.533 237.504 432.84 238.813 431.319 238.813ZM436.404 239.68H437.54V235C437.54 233.999 438.33 233.267 439.408 233.267C439.711 233.267 440.024 233.325 440.101 233.344V232.189C439.971 232.179 439.673 232.169 439.504 232.169C438.618 232.169 437.848 232.67 437.579 233.402H437.501V232.285H436.404V239.68ZM444.227 239.834C446.23 239.834 447.578 238.313 447.578 236.021C447.578 233.71 446.23 232.189 444.227 232.189C442.224 232.189 440.876 233.71 440.876 236.021C440.876 238.313 442.224 239.834 444.227 239.834ZM444.227 238.813C442.706 238.813 442.013 237.504 442.013 236.021C442.013 234.538 442.706 233.209 444.227 233.209C445.749 233.209 446.442 234.538 446.442 236.021C446.442 237.504 445.749 238.813 444.227 238.813ZM449.467 239.68H450.564V238.544H450.699C450.949 238.948 451.431 239.834 452.856 239.834C454.705 239.834 455.995 238.351 455.995 236.002C455.995 233.672 454.705 232.189 452.837 232.189C451.392 232.189 450.949 233.075 450.699 233.46H450.603V229.82H449.467V239.68ZM450.583 235.982C450.583 234.326 451.315 233.209 452.702 233.209C454.146 233.209 454.859 234.423 454.859 235.982C454.859 237.562 454.127 238.813 452.702 238.813C451.335 238.813 450.583 237.658 450.583 235.982ZM458.2 242.453C459.225 242.453 459.948 241.909 460.376 240.758L463.525 232.304L462.283 232.285L460.241 238.178H460.164L458.123 232.285H456.89L459.625 239.718L459.413 240.296C458.999 241.423 458.489 241.529 457.661 241.317L457.372 242.318C457.487 242.376 457.815 242.453 458.2 242.453ZM468.841 242.453H469.977V238.544H470.073C470.324 238.948 470.805 239.834 472.23 239.834C474.079 239.834 475.369 238.351 475.369 236.002C475.369 233.672 474.079 232.189 472.211 232.189C470.767 232.189 470.324 233.075 470.073 233.46H469.939V232.285H468.841V242.453ZM469.958 235.982C469.958 234.326 470.69 233.209 472.076 233.209C473.521 233.209 474.233 234.423 474.233 235.982C474.233 237.562 473.501 238.813 472.076 238.813C470.709 238.813 469.958 237.658 469.958 235.982ZM477.103 239.68H478.239V235C478.239 233.999 479.028 233.267 480.107 233.267C480.41 233.267 480.723 233.325 480.8 233.344V232.189C480.67 232.179 480.372 232.169 480.203 232.169C479.317 232.169 478.547 232.67 478.277 233.402H478.2V232.285H477.103V239.68ZM481.935 239.68H487.732V238.621H483.514V238.544L487.597 233.19V232.285H482.07V233.344H486.133V233.421L481.935 238.813V239.68ZM492.37 239.834C493.872 239.834 494.97 239.083 495.317 237.966L494.219 237.658C493.93 238.428 493.261 238.813 492.37 238.813C491.037 238.813 490.117 237.952 490.064 236.368H495.432V235.886C495.432 233.132 493.795 232.189 492.255 232.189C490.252 232.189 488.923 233.768 488.923 236.04C488.923 238.313 490.233 239.834 492.37 239.834ZM490.064 235.385C490.141 234.235 490.955 233.209 492.255 233.209C493.487 233.209 494.277 234.134 494.277 235.385H490.064ZM499.356 233.517L498.297 233.917V229.82H497.161V234.35L496.101 234.75V235.597L497.161 235.198V239.68H498.297V234.764L499.356 234.365V233.517ZM501.11 242.453C502.135 242.453 502.857 241.909 503.286 240.758L506.434 232.304L505.192 232.285L503.151 238.178H503.074L501.033 232.285H499.8L502.535 239.718L502.323 240.296C501.909 241.423 501.399 241.529 500.57 241.317L500.282 242.318C500.397 242.376 500.725 242.453 501.11 242.453ZM507.938 239.68H509.074V236.912L509.868 236.175L512.637 239.68H514.081L510.725 235.443L513.85 232.285H512.444L509.209 235.578H509.074V229.82H507.938V239.68ZM519.973 236.656C519.973 238.043 518.913 238.679 518.066 238.679C517.122 238.679 516.448 237.985 516.448 236.907V232.285H515.312V236.984C515.312 238.871 516.314 239.776 517.7 239.776C518.817 239.776 519.549 239.179 519.896 238.428H519.973V239.68H521.109V232.285H519.973V236.656ZM524.885 238.332H523.652L523.594 238.871C523.455 240.176 523.18 241.476 523.055 242.087H523.922C524.153 241.432 524.644 239.95 524.807 238.852L524.885 238.332ZM530.803 232.285V240.219C530.803 240.97 530.495 241.394 529.801 241.394H529.589V242.453H529.821C531.246 242.453 531.939 241.586 531.939 240.219V232.285H530.803ZM531.361 231.052C531.804 231.052 532.17 230.706 532.17 230.282C532.17 229.859 531.804 229.512 531.361 229.512C530.918 229.512 530.552 229.859 530.552 230.282C530.552 230.706 530.918 231.052 531.361 231.052ZM536.196 239.853C537.486 239.853 538.16 239.16 538.391 238.679H538.449V239.68H539.585V234.808C539.585 232.458 537.794 232.189 536.851 232.189C535.734 232.189 534.463 232.574 533.885 233.922L534.964 234.307C535.214 233.768 535.806 233.19 536.889 233.19C537.934 233.19 538.449 233.744 538.449 234.692V234.731C538.449 235.28 537.891 235.231 536.543 235.405C535.171 235.583 533.673 235.886 533.673 237.581C533.673 239.025 534.79 239.853 536.196 239.853ZM536.369 238.833C535.464 238.833 534.809 238.428 534.809 237.639C534.809 236.772 535.599 236.502 536.485 236.387C536.966 236.329 538.257 236.194 538.449 235.963V237.003C538.449 237.927 537.717 238.833 536.369 238.833ZM541.659 239.68H542.795V235.058C542.795 233.975 543.585 233.209 544.471 233.209C545.333 233.209 545.934 233.773 545.934 234.615V239.68H547.09V234.866C547.09 233.912 547.687 233.209 548.727 233.209C549.536 233.209 550.229 233.638 550.229 234.731V239.68H551.365V234.731C551.365 232.993 550.431 232.189 549.112 232.189C548.053 232.189 547.278 232.675 546.897 233.44H546.82C546.454 232.651 545.809 232.189 544.837 232.189C543.874 232.189 543.161 232.651 542.853 233.44H542.757V232.285H541.659V239.68ZM553.909 242.453C554.935 242.453 555.657 241.909 556.086 240.758L559.234 232.304L557.992 232.285L555.951 238.178H555.874L553.832 232.285H552.6L555.335 239.718L555.123 240.296C554.709 241.423 554.198 241.529 553.37 241.317L553.081 242.318C553.197 242.376 553.524 242.453 553.909 242.453ZM569.211 236.656C569.211 238.043 568.152 238.679 567.304 238.679C566.361 238.679 565.687 237.985 565.687 236.907V232.285H564.551V236.984C564.551 238.871 565.552 239.776 566.939 239.776C568.055 239.776 568.787 239.179 569.134 238.428H569.211V239.68H570.347V232.285H569.211V236.656ZM577.666 233.941C577.31 232.892 576.511 232.189 575.047 232.189C573.487 232.189 572.332 233.075 572.332 234.326C572.332 235.347 572.939 236.031 574.296 236.348L575.529 236.637C576.275 236.811 576.626 237.167 576.626 237.677C576.626 238.313 575.952 238.833 574.893 238.833C573.964 238.833 573.381 238.433 573.179 237.639L572.101 237.908C572.366 239.165 573.401 239.834 574.912 239.834C576.631 239.834 577.801 238.895 577.801 237.619C577.801 236.589 577.156 235.939 575.837 235.617L574.739 235.347C573.863 235.13 573.468 234.837 573.468 234.269C573.468 233.633 574.142 233.171 575.047 233.171C576.039 233.171 576.448 233.72 576.646 234.23L577.666 233.941ZM582.727 232.285H581.148V230.513H580.012V232.285H578.895V233.248H580.012V237.87C580.012 239.16 581.052 239.776 582.015 239.776C582.439 239.776 582.708 239.699 582.862 239.641L582.631 238.621C582.535 238.64 582.381 238.679 582.13 238.679C581.63 238.679 581.148 238.524 581.148 237.562V233.248H582.727V232.285ZM585.573 235.231C585.573 233.941 586.372 233.209 587.46 233.209C588.514 233.209 589.155 233.898 589.155 235.058V239.68H590.291V234.981C590.291 233.094 589.285 232.189 587.787 232.189C586.67 232.189 585.977 232.689 585.631 233.44H585.534V232.285H584.437V239.68H585.573V235.231ZM595.468 239.834C596.97 239.834 598.067 239.083 598.414 237.966L597.316 237.658C597.027 238.428 596.358 238.813 595.468 238.813C594.134 238.813 593.214 237.952 593.162 236.368H598.53V235.886C598.53 233.132 596.893 232.189 595.352 232.189C593.349 232.189 592.02 233.768 592.02 236.04C592.02 238.313 593.33 239.834 595.468 239.834ZM593.162 235.385C593.239 234.235 594.052 233.209 595.352 233.209C596.585 233.209 597.374 234.134 597.374 235.385H593.162ZM600.258 232.285V240.219C600.258 240.97 599.95 241.394 599.257 241.394H599.045V242.453H599.276C600.701 242.453 601.394 241.586 601.394 240.219V232.285H600.258ZM600.816 231.052C601.259 231.052 601.625 230.706 601.625 230.282C601.625 229.859 601.259 229.512 600.816 229.512C600.374 229.512 600.008 229.859 600.008 230.282C600.008 230.706 600.374 231.052 600.816 231.052Z" fill="#333333"/>
</g>
<g clip-path="url(#clip12)">
<rect x="383.255" y="272.131" width="15.4942" height="16.4626" rx="1.93677" fill="#FF6984"/>
<path d="M386.765 279.757L390.033 283.025L398.749 274.309" stroke="black" stroke-width="1.93677" stroke-linecap="round" stroke-linejoin="round"/>
<path d="M398.749 280.846V287.383C398.749 287.961 398.519 288.515 398.111 288.923C397.702 289.332 397.148 289.562 396.57 289.562H383.497C382.919 289.562 382.365 289.332 381.956 288.923C381.547 288.515 381.318 287.961 381.318 287.383V274.309C381.318 273.732 381.547 273.177 381.956 272.769C382.365 272.36 382.919 272.131 383.497 272.131H393.302" stroke="black" stroke-width="1.93677" stroke-linecap="round" stroke-linejoin="round"/>
<path d="M418.673 279.509C418.336 277.4 416.685 276.168 414.6 276.168C412.049 276.168 410.166 278.079 410.166 281.232C410.166 284.386 412.039 286.297 414.6 286.297C416.767 286.297 418.351 284.939 418.673 282.99L417.171 282.985C416.916 284.246 415.857 284.939 414.61 284.939C412.92 284.939 411.644 283.644 411.644 281.232C411.644 278.84 412.915 277.525 414.615 277.525C415.871 277.525 416.926 278.233 417.171 279.509H418.673ZM421.778 281.772C421.778 280.592 422.524 279.918 423.549 279.918C424.541 279.918 425.133 280.549 425.133 281.632V286.162H426.573V281.459C426.573 279.615 425.562 278.671 424.04 278.671C422.89 278.671 422.196 279.172 421.85 279.971H421.758V276.302H420.338V286.162H421.778V281.772ZM431.609 286.312C433.693 286.312 435.056 284.785 435.056 282.499C435.056 280.197 433.693 278.671 431.609 278.671C429.524 278.671 428.161 280.197 428.161 282.499C428.161 284.785 429.524 286.312 431.609 286.312ZM431.613 285.103C430.251 285.103 429.615 283.914 429.615 282.494C429.615 281.078 430.251 279.875 431.613 279.875C432.966 279.875 433.602 281.078 433.602 282.494C433.602 283.914 432.966 285.103 431.613 285.103ZM436.663 286.162H438.102V281.646C438.102 280.679 438.848 279.981 439.869 279.981C440.167 279.981 440.504 280.034 440.62 280.067V278.69C440.476 278.671 440.192 278.657 440.009 278.657C439.142 278.657 438.401 279.148 438.131 279.942H438.054V278.767H436.663V286.162ZM444.716 286.312C446.801 286.312 448.163 284.785 448.163 282.499C448.163 280.197 446.801 278.671 444.716 278.671C442.631 278.671 441.269 280.197 441.269 282.499C441.269 284.785 442.631 286.312 444.716 286.312ZM444.721 285.103C443.358 285.103 442.723 283.914 442.723 282.494C442.723 281.078 443.358 279.875 444.721 279.875C446.074 279.875 446.709 281.078 446.709 282.494C446.709 283.914 446.074 285.103 444.721 285.103ZM449.885 286.162H451.291V285.012H451.412C451.672 285.484 452.201 286.307 453.549 286.307C455.34 286.307 456.64 284.872 456.64 282.479C456.64 280.082 455.321 278.671 453.535 278.671C452.163 278.671 451.667 279.509 451.412 279.966H451.325V276.302H449.885V286.162ZM451.296 282.465C451.296 280.919 451.97 279.894 453.227 279.894C454.531 279.894 455.186 280.996 455.186 282.465C455.186 283.948 454.512 285.079 453.227 285.079C451.989 285.079 451.296 284.02 451.296 282.465ZM458.902 288.935C460.091 288.935 460.842 288.314 461.27 287.149L464.327 278.782L462.772 278.767L460.9 284.506H460.823L458.95 278.767H457.409L460.115 286.259L459.937 286.75C459.571 287.732 459.056 287.814 458.266 287.597L457.919 288.777C458.093 288.854 458.468 288.935 458.902 288.935ZM470.875 286.162H472.339L473.841 280.823H473.952L475.454 286.162H476.922L479.093 278.767H477.606L476.166 284.174H476.094L474.65 278.767H473.162L471.708 284.198H471.636L470.187 278.767H468.699L470.875 286.162ZM482.611 286.326C483.834 286.326 484.523 285.705 484.797 285.151H484.855V286.013C484.133 286.504 483.854 287.135 483.892 287.737C483.945 288.56 484.532 289.008 485.341 289.008C485.813 289.008 486.169 288.854 486.391 288.719L486.266 287.804C486.136 287.867 485.929 287.958 485.664 287.958C485.303 287.958 485.173 287.785 485.173 287.486C485.173 286.947 485.673 286.538 486.261 286.162V281.252C486.261 279.1 484.566 278.671 483.391 278.671C482.053 278.671 480.82 279.21 480.339 280.558L481.692 280.866C481.904 280.342 482.443 279.836 483.411 279.836C484.34 279.836 484.816 280.322 484.816 281.16V281.194C484.816 281.719 484.277 281.709 482.948 281.863C481.547 282.027 480.113 282.393 480.113 284.073C480.113 285.527 481.206 286.326 482.611 286.326ZM482.924 285.171C482.111 285.171 481.523 284.805 481.523 284.092C481.523 283.322 482.207 283.047 483.04 282.937C483.507 282.874 484.614 282.749 484.821 282.542V283.495C484.821 284.371 484.123 285.171 482.924 285.171ZM491.63 278.767H490.114V276.996H488.674V278.767H487.591V279.923H488.674V284.29C488.669 285.633 489.695 286.283 490.831 286.259C491.288 286.254 491.596 286.167 491.765 286.105L491.505 284.915C491.409 284.935 491.23 284.978 490.999 284.978C490.532 284.978 490.114 284.824 490.114 283.991V279.923H491.63V278.767ZM493.222 286.162H494.662V281.646C494.662 280.679 495.408 279.981 496.429 279.981C496.727 279.981 497.064 280.034 497.18 280.067V278.69C497.035 278.671 496.751 278.657 496.568 278.657C495.702 278.657 494.96 279.148 494.691 279.942H494.614V278.767H493.222V286.162ZM501.276 286.312C503.36 286.312 504.723 284.785 504.723 282.499C504.723 280.197 503.36 278.671 501.276 278.671C499.191 278.671 497.829 280.197 497.829 282.499C497.829 284.785 499.191 286.312 501.276 286.312ZM501.281 285.103C499.918 285.103 499.283 283.914 499.283 282.494C499.283 281.078 499.918 279.875 501.281 279.875C502.633 279.875 503.269 281.078 503.269 282.494C503.269 283.914 502.633 285.103 501.281 285.103ZM506.445 286.162H507.851V285.012H507.971C508.231 285.484 508.761 286.307 510.109 286.307C511.9 286.307 513.2 284.872 513.2 282.479C513.2 280.082 511.881 278.671 510.095 278.671C508.722 278.671 508.227 279.509 507.971 279.966H507.885V276.302H506.445V286.162ZM507.856 282.465C507.856 280.919 508.53 279.894 509.786 279.894C511.091 279.894 511.746 280.996 511.746 282.465C511.746 283.948 511.072 285.079 509.786 285.079C508.549 285.079 507.856 284.02 507.856 282.465ZM515.461 288.935C516.651 288.935 517.402 288.314 517.83 287.149L520.887 278.782L519.332 278.767L517.459 284.506H517.382L515.51 278.767H513.969L516.675 286.259L516.497 286.75C516.131 287.732 515.616 287.814 514.826 287.597L514.479 288.777C514.653 288.854 515.028 288.935 515.461 288.935Z" fill="#333333"/>
</g>
<g clip-path="url(#clip13)">
<rect x="381.319" y="318.614" width="17.431" height="17.431" rx="2.90516" fill="white" stroke="#333333" stroke-width="1.93677"/>
<path d="M418.529 325.866C418.163 323.844 416.545 322.65 414.562 322.65C412.039 322.65 410.21 324.595 410.21 327.715C410.21 330.835 412.039 332.78 414.562 332.78C416.545 332.78 418.163 331.586 418.529 329.564H417.335C417.046 330.931 415.871 331.663 414.562 331.663C412.771 331.663 411.365 330.276 411.365 327.715C411.365 325.154 412.771 323.767 414.562 323.767C415.871 323.767 417.046 324.499 417.335 325.866H418.529ZM421.441 328.196C421.441 326.906 422.264 326.174 423.386 326.174C424.454 326.174 425.1 326.848 425.1 328.023V332.645H426.236V327.946C426.236 326.044 425.225 325.154 423.713 325.154C422.548 325.154 421.883 325.64 421.537 326.406H421.441V322.785H420.304V332.645H421.441V328.196ZM431.319 332.799C433.321 332.799 434.669 331.278 434.669 328.986C434.669 326.675 433.321 325.154 431.319 325.154C429.316 325.154 427.968 326.675 427.968 328.986C427.968 331.278 429.316 332.799 431.319 332.799ZM431.319 331.778C429.797 331.778 429.104 330.469 429.104 328.986C429.104 327.503 429.797 326.174 431.319 326.174C432.84 326.174 433.533 327.503 433.533 328.986C433.533 330.469 432.84 331.778 431.319 331.778ZM436.404 332.645H437.54V327.965C437.54 326.964 438.33 326.232 439.408 326.232C439.711 326.232 440.024 326.29 440.101 326.309V325.154C439.971 325.144 439.673 325.135 439.504 325.135C438.618 325.135 437.848 325.635 437.579 326.367H437.501V325.25H436.404V332.645ZM444.227 332.799C446.23 332.799 447.578 331.278 447.578 328.986C447.578 326.675 446.23 325.154 444.227 325.154C442.224 325.154 440.876 326.675 440.876 328.986C440.876 331.278 442.224 332.799 444.227 332.799ZM444.227 331.778C442.706 331.778 442.013 330.469 442.013 328.986C442.013 327.503 442.706 326.174 444.227 326.174C445.749 326.174 446.442 327.503 446.442 328.986C446.442 330.469 445.749 331.778 444.227 331.778ZM449.467 332.645H450.564V331.509H450.699C450.949 331.913 451.431 332.799 452.856 332.799C454.705 332.799 455.995 331.316 455.995 328.967C455.995 326.637 454.705 325.154 452.837 325.154C451.392 325.154 450.949 326.04 450.699 326.425H450.603V322.785H449.467V332.645ZM450.583 328.948C450.583 327.291 451.315 326.174 452.702 326.174C454.146 326.174 454.859 327.388 454.859 328.948C454.859 330.527 454.127 331.778 452.702 331.778C451.335 331.778 450.583 330.623 450.583 328.948ZM458.2 335.418C459.225 335.418 459.948 334.874 460.376 333.723L463.525 325.269L462.283 325.25L460.241 331.143H460.164L458.123 325.25H456.89L459.625 332.684L459.413 333.261C458.999 334.388 458.489 334.494 457.661 334.282L457.372 335.283C457.487 335.341 457.815 335.418 458.2 335.418ZM468.629 332.645H474.426V331.586H470.208V331.509L474.291 326.155V325.25H468.764V326.309H472.827V326.386L468.629 331.778V332.645ZM478.352 332.818C479.642 332.818 480.316 332.125 480.547 331.644H480.605V332.645H481.741V327.773C481.741 325.423 479.95 325.154 479.007 325.154C477.89 325.154 476.619 325.539 476.041 326.887L477.119 327.272C477.37 326.733 477.962 326.155 479.045 326.155C480.09 326.155 480.605 326.709 480.605 327.657V327.696C480.605 328.245 480.047 328.196 478.699 328.37C477.326 328.548 475.829 328.851 475.829 330.546C475.829 331.99 476.946 332.818 478.352 332.818ZM478.525 331.798C477.62 331.798 476.965 331.393 476.965 330.604C476.965 329.737 477.755 329.467 478.641 329.352C479.122 329.294 480.412 329.159 480.605 328.928V329.968C480.605 330.893 479.873 331.798 478.525 331.798ZM483.815 335.418H484.951V331.509H485.048C485.298 331.913 485.779 332.799 487.204 332.799C489.053 332.799 490.343 331.316 490.343 328.967C490.343 326.637 489.053 325.154 487.185 325.154C485.741 325.154 485.298 326.04 485.048 326.425H484.913V325.25H483.815V335.418ZM484.932 328.948C484.932 327.291 485.664 326.174 487.05 326.174C488.495 326.174 489.207 327.388 489.207 328.948C489.207 330.527 488.475 331.778 487.05 331.778C485.683 331.778 484.932 330.623 484.932 328.948ZM494.253 332.818C495.543 332.818 496.217 332.125 496.448 331.644H496.506V332.645H497.642V327.773C497.642 325.423 495.851 325.154 494.907 325.154C493.791 325.154 492.52 325.539 491.942 326.887L493.02 327.272C493.271 326.733 493.863 326.155 494.946 326.155C495.991 326.155 496.506 326.709 496.506 327.657V327.696C496.506 328.245 495.947 328.196 494.599 328.37C493.227 328.548 491.73 328.851 491.73 330.546C491.73 331.99 492.847 332.818 494.253 332.818ZM494.426 331.798C493.521 331.798 492.866 331.393 492.866 330.604C492.866 329.737 493.656 329.467 494.542 329.352C495.023 329.294 496.313 329.159 496.506 328.928V329.968C496.506 330.893 495.774 331.798 494.426 331.798ZM500.852 322.785H499.716V332.645H500.852V322.785ZM504.069 328.196C504.069 326.906 504.869 326.174 505.957 326.174C507.011 326.174 507.651 326.863 507.651 328.023V332.645H508.787V327.946C508.787 326.059 507.781 325.154 506.284 325.154C505.167 325.154 504.474 325.654 504.127 326.406H504.031V325.25H502.933V332.645H504.069V328.196ZM513.964 332.799C515.466 332.799 516.564 332.048 516.911 330.931L515.813 330.623C515.524 331.393 514.855 331.778 513.964 331.778C512.631 331.778 511.711 330.917 511.658 329.333H517.026V328.851C517.026 326.097 515.389 325.154 513.849 325.154C511.846 325.154 510.517 326.733 510.517 329.005C510.517 331.278 511.827 332.799 513.964 332.799ZM511.658 328.351C511.735 327.2 512.549 326.174 513.849 326.174C515.081 326.174 515.871 327.099 515.871 328.351H511.658ZM522.568 325.25V333.184C522.568 333.935 522.259 334.359 521.566 334.359H521.354V335.418H521.585C523.01 335.418 523.704 334.552 523.704 333.184V325.25H522.568ZM523.126 324.018C523.569 324.018 523.935 323.671 523.935 323.247C523.935 322.824 523.569 322.477 523.126 322.477C522.683 322.477 522.317 322.824 522.317 323.247C522.317 323.671 522.683 324.018 523.126 324.018ZM528.885 332.799C530.387 332.799 531.485 332.048 531.832 330.931L530.734 330.623C530.445 331.393 529.776 331.778 528.885 331.778C527.552 331.778 526.632 330.917 526.579 329.333H531.947V328.851C531.947 326.097 530.31 325.154 528.77 325.154C526.767 325.154 525.438 326.733 525.438 329.005C525.438 331.278 526.748 332.799 528.885 332.799ZM526.579 328.351C526.656 327.2 527.47 326.174 528.77 326.174C530.002 326.174 530.792 327.099 530.792 328.351H526.579ZM534.812 322.785H533.676V332.645H534.812V322.785ZM536.893 332.645H538.029V325.25H536.893V332.645ZM537.471 324.018C537.914 324.018 538.279 323.671 538.279 323.247C538.279 322.824 537.914 322.477 537.471 322.477C537.028 322.477 536.662 322.824 536.662 323.247C536.662 323.671 537.028 324.018 537.471 324.018ZM543.326 325.25H541.747V323.478H540.611V325.25H539.494V326.213H540.611V330.835C540.611 332.125 541.651 332.741 542.614 332.741C543.037 332.741 543.307 332.664 543.461 332.607L543.23 331.586C543.134 331.605 542.98 331.644 542.729 331.644C542.228 331.644 541.747 331.49 541.747 330.527V326.213H543.326V325.25Z" fill="#333333"/>
</g>
<g clip-path="url(#clip14)">
<rect x="383.255" y="365.096" width="15.4942" height="16.4626" rx="1.93677" fill="#FF6984"/>
<path d="M386.765 372.722L390.033 375.991L398.749 367.275" stroke="black" stroke-width="1.93677" stroke-linecap="round" stroke-linejoin="round"/>
<path d="M398.749 373.812V380.348C398.749 380.926 398.519 381.48 398.111 381.889C397.702 382.298 397.148 382.527 396.57 382.527H383.497C382.919 382.527 382.365 382.298 381.956 381.889C381.547 381.48 381.318 380.926 381.318 380.348V367.275C381.318 366.697 381.547 366.143 381.956 365.734C382.365 365.326 382.919 365.096 383.497 365.096H393.302" stroke="black" stroke-width="1.93677" stroke-linecap="round" stroke-linejoin="round"/>
<path d="M418.673 372.474C418.336 370.365 416.685 369.133 414.6 369.133C412.049 369.133 410.166 371.044 410.166 374.198C410.166 377.351 412.039 379.262 414.6 379.262C416.767 379.262 418.351 377.905 418.673 375.955L417.171 375.95C416.916 377.212 415.857 377.905 414.61 377.905C412.92 377.905 411.644 376.61 411.644 374.198C411.644 371.805 412.915 370.491 414.615 370.491C415.871 370.491 416.926 371.198 417.171 372.474H418.673ZM425.022 376.061C425.027 377.317 424.093 377.914 423.284 377.914C422.394 377.914 421.778 377.269 421.778 376.263V371.733H420.338V376.436C420.338 378.271 421.344 379.224 422.765 379.224C423.877 379.224 424.633 378.637 424.974 377.847H425.051V379.128H426.467V371.733H425.022V376.061ZM428.401 379.128H429.841V376.504L430.558 375.786L433.071 379.128H434.838L431.641 374.905L434.636 371.733H432.912L429.966 374.862H429.841V369.268H428.401V379.128ZM435.948 379.128H437.387V374.612C437.387 373.644 438.133 372.946 439.154 372.946C439.453 372.946 439.79 372.999 439.905 373.033V371.656C439.761 371.636 439.477 371.622 439.294 371.622C438.427 371.622 437.686 372.113 437.416 372.907H437.339V371.733H435.948V379.128ZM440.997 379.128H446.933V377.876H442.947V377.809L446.798 372.782V371.733H441.127V372.984H445.002V373.052L440.997 378.141V379.128ZM449.541 381.901C450.73 381.901 451.481 381.28 451.91 380.115L454.967 371.747L453.412 371.733L451.539 377.472H451.462L449.589 371.733H448.049L450.754 379.224L450.576 379.715C450.21 380.697 449.695 380.779 448.906 380.562L448.559 381.742C448.732 381.819 449.108 381.901 449.541 381.901ZM459.174 379.277C460.921 379.277 462.053 378.227 462.212 376.788H460.811C460.628 377.587 460.007 378.059 459.183 378.059C457.965 378.059 457.18 377.043 457.18 375.43C457.18 373.846 457.98 372.85 459.183 372.85C460.098 372.85 460.656 373.427 460.811 374.121H462.212C462.057 372.628 460.839 371.636 459.159 371.636C457.075 371.636 455.726 373.206 455.726 375.464C455.726 377.693 457.026 379.277 459.174 379.277ZM465.903 379.291C467.126 379.291 467.814 378.67 468.089 378.117H468.147V379.128H469.552V374.217C469.552 372.065 467.858 371.636 466.683 371.636C465.345 371.636 464.112 372.176 463.631 373.524L464.983 373.832C465.195 373.307 465.734 372.802 466.702 372.802C467.631 372.802 468.108 373.288 468.108 374.125V374.159C468.108 374.684 467.569 374.674 466.24 374.828C464.839 374.992 463.404 375.358 463.404 377.038C463.404 378.492 464.497 379.291 465.903 379.291ZM466.216 378.136C465.402 378.136 464.815 377.77 464.815 377.057C464.815 376.287 465.499 376.013 466.331 375.902C466.798 375.839 467.906 375.714 468.113 375.507V376.46C468.113 377.337 467.415 378.136 466.216 378.136Z" fill="#333333"/>
</g>
<g clip-path="url(#clip15)">
<rect x="381.319" y="411.58" width="17.431" height="17.431" rx="2.90516" fill="white" stroke="#333333" stroke-width="1.93677"/>
<path d="M413.638 425.61C416.642 425.61 418.336 423.742 418.336 420.661C418.336 417.599 416.642 415.75 413.772 415.75H410.595V425.61H413.638ZM411.789 424.551V416.81H413.695C416.006 416.81 417.181 418.273 417.181 420.661C417.181 423.068 416.006 424.551 413.561 424.551H411.789ZM421.321 421.162C421.321 419.872 422.121 419.14 423.209 419.14C424.263 419.14 424.903 419.828 424.903 420.989V425.61H426.04V420.911C426.04 419.024 425.033 418.119 423.536 418.119C422.419 418.119 421.726 418.62 421.379 419.371H421.283V418.215H420.185V425.61H421.321V421.162ZM430.292 425.784C431.582 425.784 432.256 425.09 432.487 424.609H432.545V425.61H433.681V420.738C433.681 418.389 431.89 418.119 430.947 418.119C429.83 418.119 428.559 418.504 427.981 419.852L429.059 420.237C429.31 419.698 429.902 419.121 430.985 419.121C432.03 419.121 432.545 419.674 432.545 420.623V420.661C432.545 421.21 431.987 421.162 430.639 421.335C429.266 421.513 427.769 421.817 427.769 423.511C427.769 424.956 428.886 425.784 430.292 425.784ZM430.465 424.763C429.56 424.763 428.905 424.359 428.905 423.569C428.905 422.702 429.695 422.433 430.581 422.317C431.062 422.26 432.352 422.125 432.545 421.894V422.934C432.545 423.858 431.813 424.763 430.465 424.763ZM439.568 425.61H440.704V420.989C440.704 419.905 441.494 419.14 442.38 419.14C443.241 419.14 443.843 419.703 443.843 420.546V425.61H444.999V420.796C444.999 419.843 445.596 419.14 446.636 419.14C447.444 419.14 448.138 419.568 448.138 420.661V425.61H449.274V420.661C449.274 418.923 448.34 418.119 447.021 418.119C445.962 418.119 445.187 418.605 444.806 419.371H444.729C444.363 418.581 443.718 418.119 442.746 418.119C441.783 418.119 441.07 418.581 440.762 419.371H440.666V418.215H439.568V425.61ZM454.356 425.764C456.358 425.764 457.706 424.243 457.706 421.951C457.706 419.64 456.358 418.119 454.356 418.119C452.353 418.119 451.005 419.64 451.005 421.951C451.005 424.243 452.353 425.764 454.356 425.764ZM454.356 424.744C452.834 424.744 452.141 423.434 452.141 421.951C452.141 420.469 452.834 419.14 454.356 419.14C455.877 419.14 456.57 420.469 456.57 421.951C456.57 423.434 455.877 424.744 454.356 424.744ZM462.445 425.764C464.082 425.764 465.16 424.763 465.353 423.453H464.217C464.005 424.262 463.331 424.744 462.445 424.744C461.097 424.744 460.23 423.627 460.23 421.913C460.23 420.237 461.116 419.14 462.445 419.14C463.446 419.14 464.043 419.756 464.217 420.43H465.353C465.16 419.043 463.986 418.119 462.426 418.119C460.423 418.119 459.094 419.698 459.094 421.951C459.094 424.166 460.365 425.764 462.445 425.764ZM466.802 425.61H472.599V424.551H468.381V424.474L472.464 419.121V418.215H466.937V419.275H471V419.352L466.802 424.744V425.61ZM476.525 425.784C477.815 425.784 478.489 425.09 478.72 424.609H478.778V425.61H479.914V420.738C479.914 418.389 478.123 418.119 477.18 418.119C476.063 418.119 474.792 418.504 474.214 419.852L475.292 420.237C475.543 419.698 476.135 419.121 477.218 419.121C478.263 419.121 478.778 419.674 478.778 420.623V420.661C478.778 421.21 478.219 421.162 476.871 421.335C475.499 421.513 474.002 421.817 474.002 423.511C474.002 424.956 475.119 425.784 476.525 425.784ZM476.698 424.763C475.793 424.763 475.138 424.359 475.138 423.569C475.138 422.702 475.928 422.433 476.814 422.317C477.295 422.26 478.585 422.125 478.778 421.894V422.934C478.778 423.858 478.046 424.763 476.698 424.763ZM483.124 421.162C483.124 419.872 483.923 419.14 485.011 419.14C486.066 419.14 486.706 419.828 486.706 420.989V425.61H487.842V420.911C487.842 419.024 486.836 418.119 485.339 418.119C484.222 418.119 483.529 418.62 483.182 419.371H483.086V418.215H481.988V425.61H483.124V421.162ZM492.923 425.764C494.926 425.764 496.274 424.243 496.274 421.951C496.274 419.64 494.926 418.119 492.923 418.119C490.92 418.119 489.572 419.64 489.572 421.951C489.572 424.243 490.92 425.764 492.923 425.764ZM492.923 424.744C491.401 424.744 490.708 423.434 490.708 421.951C490.708 420.469 491.401 419.14 492.923 419.14C494.444 419.14 495.137 420.469 495.137 421.951C495.137 423.434 494.444 424.744 492.923 424.744ZM499.432 425.61H500.549L502.166 419.929H502.282L503.9 425.61H505.017L507.27 418.215H506.076L504.477 423.858H504.4L502.84 418.215H501.627L500.048 423.877H499.971L498.373 418.215H497.179L499.432 425.61ZM510.948 425.784C512.238 425.784 512.912 425.09 513.143 424.609H513.201V425.61H514.337V420.738C514.337 418.389 512.546 418.119 511.603 418.119C510.486 418.119 509.215 418.504 508.637 419.852L509.715 420.237C509.966 419.698 510.558 419.121 511.641 419.121C512.686 419.121 513.201 419.674 513.201 420.623V420.661C513.201 421.21 512.643 421.162 511.295 421.335C509.922 421.513 508.425 421.817 508.425 423.511C508.425 424.956 509.542 425.784 510.948 425.784ZM511.121 424.763C510.216 424.763 509.561 424.359 509.561 423.569C509.561 422.702 510.351 422.433 511.237 422.317C511.718 422.26 513.009 422.125 513.201 421.894V422.934C513.201 423.858 512.469 424.763 511.121 424.763Z" fill="#333333"/>
</g>
</g>
</g>
<mask id="mask0" mask-type="alpha" maskUnits="userSpaceOnUse" x="150" y="90" width="579" height="430">
<path d="M209.69 147.278C211.784 137.448 220.078 130.155 230.095 129.337L703.391 90.673C716.646 89.5902 728.001 100.055 728.001 113.355V496.34C728.001 510.123 715.846 520.742 702.188 518.892L170.895 446.904C157.773 445.126 148.935 432.564 151.693 419.613L209.69 147.278Z" stroke="black" stroke-width="0.968387"/>
</mask>
<g mask="url(#mask0)">
</g>
</g>
<g filter="url(#filter1_d)">
<rect x="32" y="277.823" width="137.255" height="39.2157" rx="7.84314" fill="#2F80ED"/>
<path d="M59.18 296.257L58.2003 296.588V292.684H56.4359V297.178L55.4562 297.51V298.563L56.4359 298.231V302.667H58.2003V297.641L59.18 297.31V296.257ZM62.1691 302.818C63.3437 302.818 64.0456 302.267 64.3673 301.638H64.4258V302.667H66.122V297.656C66.122 295.677 64.5086 295.082 63.0805 295.082C61.5062 295.082 60.2974 295.784 59.9075 297.149L61.5549 297.383C61.7304 296.871 62.2275 296.433 63.0903 296.433C63.9091 296.433 64.3575 296.852 64.3575 297.588V297.617C64.3575 298.124 63.8262 298.148 62.5054 298.29C61.0529 298.446 59.6638 298.879 59.6638 300.566C59.6638 302.038 60.7409 302.818 62.1691 302.818ZM62.6272 301.521C61.8912 301.521 61.3648 301.185 61.3648 300.537C61.3648 299.859 61.9546 299.576 62.7442 299.464C63.2072 299.401 64.1333 299.284 64.3624 299.099V299.981C64.3624 300.814 63.6898 301.521 62.6272 301.521ZM71.6346 295.18H70.1577V293.386H68.3933V295.18H67.3307V296.545H68.3933V300.707C68.3835 302.116 69.4071 302.808 70.7329 302.769C71.2349 302.754 71.581 302.657 71.771 302.593L71.4737 301.214C71.3762 301.238 71.1764 301.282 70.9571 301.282C70.5135 301.282 70.1577 301.126 70.1577 300.415V296.545H71.6346V295.18ZM74.6553 302.667H76.4977L77.9015 297.607H78.0038L79.4076 302.667H81.2451L83.3653 295.18H81.5619L80.2654 300.415H80.1923L78.847 295.18H77.068L75.7227 300.444H75.6545L74.3385 295.18H72.5399L74.6553 302.667ZM87.6619 302.813C89.8552 302.813 91.2492 301.268 91.2492 298.952C91.2492 296.632 89.8552 295.082 87.6619 295.082C85.4685 295.082 84.0745 296.632 84.0745 298.952C84.0745 301.268 85.4685 302.813 87.6619 302.813ZM87.6716 301.399C86.458 301.399 85.8633 300.317 85.8633 298.948C85.8633 297.578 86.458 296.481 87.6716 296.481C88.8658 296.481 89.4604 297.578 89.4604 298.948C89.4604 300.317 88.8658 301.399 87.6716 301.399ZM98.6639 297.159C98.4202 295.891 97.4064 295.082 95.6517 295.082C93.8483 295.082 92.62 295.969 92.6249 297.354C92.62 298.446 93.2927 299.167 94.7305 299.464L96.0076 299.732C96.6948 299.883 97.0165 300.161 97.0165 300.585C97.0165 301.097 96.4608 301.482 95.6225 301.482C94.8134 301.482 94.287 301.131 94.1359 300.459L92.4153 300.624C92.6347 301.999 93.7898 302.813 95.6274 302.813C97.499 302.813 98.8199 301.843 98.8248 300.424C98.8199 299.357 98.1327 298.704 96.7192 298.397L95.4422 298.124C94.6818 297.953 94.3796 297.69 94.3845 297.256C94.3796 296.749 94.9401 296.398 95.6761 296.398C96.4901 296.398 96.919 296.842 97.0555 297.334L98.6639 297.159ZM104.018 295.18H102.541V293.386H100.777V295.18H99.7143V296.545H100.777V300.707C100.767 302.116 101.791 302.808 103.116 302.769C103.618 302.754 103.965 302.657 104.155 302.593L103.857 301.214C103.76 301.238 103.56 301.282 103.341 301.282C102.897 301.282 102.541 301.126 102.541 300.415V296.545H104.018V295.18ZM105.494 302.667H107.258V298.265C107.258 297.315 107.975 296.642 108.945 296.642C109.242 296.642 109.612 296.696 109.764 296.744V295.121C109.603 295.092 109.325 295.073 109.13 295.073C108.272 295.073 107.556 295.56 107.283 296.428H107.205V295.18H105.494V302.667ZM112.943 302.818C114.117 302.818 114.819 302.267 115.141 301.638H115.199V302.667H116.896V297.656C116.896 295.677 115.282 295.082 113.854 295.082C112.28 295.082 111.071 295.784 110.681 297.149L112.329 297.383C112.504 296.871 113.001 296.433 113.864 296.433C114.683 296.433 115.131 296.852 115.131 297.588V297.617C115.131 298.124 114.6 298.148 113.279 298.29C111.826 298.446 110.437 298.879 110.437 300.566C110.437 302.038 111.515 302.818 112.943 302.818ZM113.401 301.521C112.665 301.521 112.138 301.185 112.138 300.537C112.138 299.859 112.728 299.576 113.518 299.464C113.981 299.401 114.907 299.284 115.136 299.099V299.981C115.136 300.814 114.463 301.521 113.401 301.521ZM120.215 302.667H122.057L123.461 297.607H123.563L124.967 302.667H126.805L128.925 295.18H127.121L125.825 300.415H125.752L124.407 295.18H122.627L121.282 300.444H121.214L119.898 295.18H118.099L120.215 302.667ZM131.921 298.28C131.921 297.198 132.574 296.574 133.505 296.574C134.417 296.574 134.963 297.173 134.963 298.173V302.667H136.727V297.9C136.732 296.106 135.708 295.082 134.163 295.082C133.042 295.082 132.272 295.619 131.931 296.452H131.843V295.18H130.157V302.667H131.921V298.28ZM140.675 302.818C141.85 302.818 142.552 302.267 142.873 301.638H142.932V302.667H144.628V297.656C144.628 295.677 143.015 295.082 141.587 295.082C140.012 295.082 138.803 295.784 138.414 297.149L140.061 297.383C140.236 296.871 140.734 296.433 141.596 296.433C142.415 296.433 142.864 296.852 142.864 297.588V297.617C142.864 298.124 142.332 298.148 141.011 298.29C139.559 298.446 138.17 298.879 138.17 300.566C138.17 302.038 139.247 302.818 140.675 302.818ZM141.133 301.521C140.397 301.521 139.871 301.185 139.871 300.537C139.871 299.859 140.461 299.576 141.25 299.464C141.713 299.401 142.639 299.284 142.868 299.099V299.981C142.868 300.814 142.196 301.521 141.133 301.521Z" fill="white"/>
</g>
<g filter="url(#filter2_d)">
<rect x="493.765" y="111.157" width="138.235" height="39.2157" rx="7.84314" fill="#EEF5FE"/>
<path d="M518.503 136H519.614V134.849H519.75C520.004 135.259 520.491 136.156 521.934 136.156C523.806 136.156 525.112 134.655 525.112 132.276C525.112 129.917 523.806 128.416 521.915 128.416C520.452 128.416 520.004 129.312 519.75 129.702H519.653V126.018H518.503V136ZM519.634 132.256C519.634 130.58 520.374 129.449 521.778 129.449C523.24 129.449 523.962 130.677 523.962 132.256C523.962 133.855 523.221 135.122 521.778 135.122C520.394 135.122 519.634 133.953 519.634 132.256ZM530.01 136.156C531.531 136.156 532.643 135.395 532.993 134.265L531.882 133.953C531.59 134.732 530.912 135.122 530.01 135.122C528.66 135.122 527.729 134.25 527.676 132.646H533.11V132.159C533.11 129.371 531.453 128.416 529.894 128.416C527.866 128.416 526.521 130.014 526.521 132.315C526.521 134.616 527.846 136.156 530.01 136.156ZM527.676 131.652C527.754 130.487 528.578 129.449 529.894 129.449C531.141 129.449 531.941 130.385 531.941 131.652H527.676ZM534.646 136H540.514V134.927H536.244V134.849L540.378 129.429V128.513H534.782V129.585H538.896V129.663L534.646 135.122V136ZM545.093 138.963C546.887 138.963 548.33 138.144 548.33 136.214V128.513H547.219V129.702H547.102C546.848 129.312 546.38 128.416 544.918 128.416C543.027 128.416 541.721 129.917 541.721 132.217C541.721 134.557 543.085 135.883 544.898 135.883C546.361 135.883 546.829 135.025 547.082 134.616H547.18V136.136C547.18 137.384 546.302 137.949 545.093 137.949C543.734 137.949 543.256 137.233 542.949 136.819L542.032 137.462C542.5 138.247 543.422 138.963 545.093 138.963ZM545.054 134.849C543.612 134.849 542.871 133.758 542.871 132.198C542.871 130.677 543.592 129.449 545.054 129.449C546.458 129.449 547.199 130.58 547.199 132.198C547.199 133.855 546.439 134.849 545.054 134.849ZM551.586 126.018H550.435V136H551.586V126.018ZM558.411 132.939C558.411 134.343 557.338 134.986 556.481 134.986C555.525 134.986 554.843 134.284 554.843 133.192V128.513H553.693V133.27C553.693 135.181 554.706 136.097 556.11 136.097C557.241 136.097 557.982 135.493 558.333 134.732H558.411V136H559.561V128.513H558.411V132.939ZM564.924 128.513H563.325V126.719H562.175V128.513H561.044V129.488H562.175V134.167C562.175 135.473 563.228 136.097 564.202 136.097C564.631 136.097 564.904 136.019 565.06 135.961L564.826 134.927C564.729 134.947 564.573 134.986 564.319 134.986C563.812 134.986 563.325 134.83 563.325 133.855V129.488H564.924V128.513ZM569.713 136.156C571.233 136.156 572.345 135.395 572.696 134.265L571.584 133.953C571.292 134.732 570.614 135.122 569.713 135.122C568.362 135.122 567.431 134.25 567.378 132.646H572.812V132.159C572.812 129.371 571.155 128.416 569.596 128.416C567.568 128.416 566.223 130.014 566.223 132.315C566.223 134.616 567.548 136.156 569.713 136.156ZM567.378 131.652C567.456 130.487 568.28 129.449 569.596 129.449C570.843 129.449 571.643 130.385 571.643 131.652H567.378ZM575.713 131.496C575.713 130.19 576.522 129.449 577.623 129.449C578.691 129.449 579.339 130.146 579.339 131.321V136H580.489V131.243C580.489 129.332 579.471 128.416 577.955 128.416C576.824 128.416 576.122 128.923 575.771 129.683H575.674V128.513H574.562V136H575.713V131.496ZM585.633 136.156C587.66 136.156 589.025 134.616 589.025 132.295C589.025 129.956 587.66 128.416 585.633 128.416C583.605 128.416 582.24 129.956 582.24 132.295C582.24 134.616 583.605 136.156 585.633 136.156ZM585.633 135.122C584.092 135.122 583.391 133.797 583.391 132.295C583.391 130.794 584.092 129.449 585.633 129.449C587.173 129.449 587.875 130.794 587.875 132.295C587.875 133.797 587.173 135.122 585.633 135.122ZM592.222 136H593.353L594.991 130.248H595.108L596.746 136H597.876L600.157 128.513H598.949L597.33 134.226H597.252L595.673 128.513H594.445L592.846 134.245H592.768L591.15 128.513H589.941L592.222 136ZM603.881 136.175C605.188 136.175 605.87 135.473 606.104 134.986H606.162V136H607.313V131.067C607.313 128.689 605.499 128.416 604.544 128.416C603.413 128.416 602.127 128.806 601.542 130.17L602.633 130.56C602.887 130.014 603.486 129.429 604.583 129.429C605.641 129.429 606.162 129.99 606.162 130.95V130.989C606.162 131.545 605.597 131.496 604.232 131.672C602.843 131.852 601.327 132.159 601.327 133.875C601.327 135.337 602.458 136.175 603.881 136.175ZM604.057 135.142C603.14 135.142 602.478 134.732 602.478 133.933C602.478 133.056 603.277 132.783 604.174 132.666C604.661 132.607 605.967 132.471 606.162 132.237V133.29C606.162 134.226 605.421 135.142 604.057 135.142Z" fill="#2F80ED"/>
</g>
<g filter="url(#filter3_d)">
<rect x="322.079" y="19.2632" width="135.921" height="47.3163" rx="9.34272" fill="#2F80ED"/>
<path d="M353.207 48.606H354.972L356.784 42.1671H356.917L358.729 48.606H360.5L363.118 39.6879H361.324L359.588 46.2081H359.501L357.759 39.6879H355.965L354.212 46.2371H354.125L352.377 39.6879H350.583L353.207 48.606ZM368.338 48.7859C370.283 48.7859 371.659 47.828 372.054 46.3764L370.411 46.0803C370.097 46.9222 369.342 47.3519 368.355 47.3519C366.869 47.3519 365.87 46.3881 365.824 44.6695H372.164V44.054C372.164 40.8317 370.236 39.5718 368.216 39.5718C365.731 39.5718 364.094 41.4646 364.094 44.205C364.094 46.9745 365.708 48.7859 368.338 48.7859ZM365.83 43.3689C365.899 42.1032 366.817 41.0059 368.228 41.0059C369.575 41.0059 370.457 42.0045 370.463 43.3689H365.83ZM377.829 52.136C380.099 52.136 381.853 51.0967 381.853 48.8034V39.6879H380.152V41.1336H380.024C379.716 40.582 379.101 39.5718 377.44 39.5718C375.286 39.5718 373.701 41.273 373.701 44.1121C373.701 46.957 375.321 48.4724 377.429 48.4724C379.066 48.4724 379.699 47.5493 380.012 46.9803H380.123V48.7337C380.123 50.1329 379.165 50.7368 377.847 50.7368C376.401 50.7368 375.838 50.011 375.53 49.5001L374.038 50.1155C374.508 51.2071 375.698 52.136 377.829 52.136ZM377.812 47.0325C376.262 47.0325 375.455 45.8423 375.455 44.0889C375.455 42.3761 376.244 41.0465 377.812 41.0465C379.327 41.0465 380.14 42.2832 380.14 44.0889C380.14 45.9294 379.31 47.0325 377.812 47.0325ZM386.776 48.8034C388.251 48.8034 389.081 48.0544 389.412 47.3867H389.482V48.606H391.177V42.6838C391.177 40.0885 389.134 39.5718 387.717 39.5718C386.103 39.5718 384.616 40.2221 384.036 41.8477L385.667 42.2193C385.923 41.5865 386.573 40.9768 387.74 40.9768C388.861 40.9768 389.435 41.5633 389.435 42.5735V42.6141C389.435 43.247 388.785 43.2354 387.183 43.4212C385.493 43.6186 383.763 44.0598 383.763 46.0861C383.763 47.8396 385.081 48.8034 386.776 48.8034ZM387.154 47.4099C386.172 47.4099 385.464 46.9687 385.464 46.1094C385.464 45.1804 386.289 44.8495 387.293 44.7159C387.856 44.6404 389.192 44.4895 389.441 44.2398V45.3894C389.441 46.4461 388.599 47.4099 387.154 47.4099ZM395.226 43.3109C395.226 41.8884 396.096 41.0755 397.304 41.0755C398.483 41.0755 399.197 41.8477 399.197 43.1425V48.606H400.933V42.9335C400.933 40.7272 399.719 39.5718 397.896 39.5718C396.555 39.5718 395.678 40.193 395.266 41.1394H395.156V39.6879H393.49V48.606H395.226V43.3109ZM396.491 38.4977H397.879L399.679 35.8211H397.85L396.491 38.4977ZM409.944 41.8652C409.584 40.4775 408.498 39.5718 406.57 39.5718C404.556 39.5718 403.128 40.6343 403.128 42.2135C403.128 43.4792 403.894 44.3211 405.566 44.6927L407.076 45.0236C407.935 45.2152 408.336 45.5984 408.336 46.1558C408.336 46.8467 407.598 47.3867 406.46 47.3867C405.421 47.3867 404.753 46.9396 404.544 46.0629L402.866 46.3184C403.157 47.8976 404.469 48.7859 406.472 48.7859C408.626 48.7859 410.118 47.6422 410.118 46.0281C410.118 44.7682 409.317 43.9902 407.679 43.6128L406.263 43.2876C405.282 43.0554 404.858 42.7245 404.864 42.1206C404.858 41.4355 405.601 40.9478 406.588 40.9478C407.668 40.9478 408.167 41.5458 408.37 42.1439L409.944 41.8652ZM412.027 48.606H413.763V45.4417L414.628 44.5766L417.659 48.606H419.789L415.934 43.5141L419.545 39.6879H417.467L413.914 43.4618H413.763V36.7152H412.027V48.606ZM423.723 48.8034C425.198 48.8034 426.028 48.0544 426.359 47.3867H426.429V48.606H428.124V42.6838C428.124 40.0885 426.08 39.5718 424.663 39.5718C423.049 39.5718 421.563 40.2221 420.982 41.8477L422.614 42.2193C422.869 41.5865 423.52 40.9768 424.687 40.9768C425.807 40.9768 426.382 41.5633 426.382 42.5735V42.6141C426.382 43.247 425.732 43.2354 424.129 43.4212C422.44 43.6186 420.71 44.0598 420.71 46.0861C420.71 47.8396 422.028 48.8034 423.723 48.8034ZM424.1 47.4099C423.119 47.4099 422.411 46.9687 422.411 46.1094C422.411 45.1804 423.235 44.8495 424.24 44.7159C424.803 44.6404 426.138 44.4895 426.388 44.2398V45.3894C426.388 46.4461 425.546 47.4099 424.1 47.4099Z" fill="white"/>
</g>
<g filter="url(#filter4_d)">
<rect x="134.941" y="97.4312" width="145.098" height="39.2157" rx="7.84314" fill="#EEF5FE"/>
<path d="M160.674 117.77C160.674 116.464 161.483 115.723 162.584 115.723C163.652 115.723 164.3 116.42 164.3 117.595V122.274H165.45V117.517C165.45 115.606 164.432 114.69 162.916 114.69C161.785 114.69 161.083 115.197 160.732 115.957H160.635V114.788H159.524V122.274H160.674V117.77ZM167.552 122.274H168.703V114.788H167.552V122.274ZM168.137 113.54C168.586 113.54 168.956 113.189 168.956 112.76C168.956 112.331 168.586 111.98 168.137 111.98C167.689 111.98 167.318 112.331 167.318 112.76C167.318 113.189 167.689 113.54 168.137 113.54ZM176.113 116.464C175.752 115.402 174.943 114.69 173.461 114.69C171.882 114.69 170.712 115.587 170.712 116.854C170.712 117.887 171.326 118.58 172.701 118.901L173.948 119.194C174.704 119.369 175.06 119.73 175.06 120.247C175.06 120.89 174.377 121.416 173.305 121.416C172.364 121.416 171.775 121.012 171.57 120.208L170.478 120.48C170.746 121.753 171.794 122.43 173.325 122.43C175.065 122.43 176.249 121.48 176.249 120.188C176.249 119.145 175.596 118.487 174.26 118.16L173.149 117.887C172.262 117.668 171.862 117.371 171.862 116.796C171.862 116.152 172.545 115.684 173.461 115.684C174.465 115.684 174.879 116.24 175.079 116.757L176.113 116.464ZM177.981 122.274H179.131V119.472L179.935 118.726L182.738 122.274H184.2L180.803 117.985L183.966 114.788H182.543L179.267 118.121H179.131V112.292H177.981V122.274ZM188.18 122.43C190.207 122.43 191.572 120.89 191.572 118.57C191.572 116.23 190.207 114.69 188.18 114.69C186.152 114.69 184.787 116.23 184.787 118.57C184.787 120.89 186.152 122.43 188.18 122.43ZM188.18 121.397C186.639 121.397 185.938 120.071 185.938 118.57C185.938 117.069 186.639 115.723 188.18 115.723C189.72 115.723 190.422 117.069 190.422 118.57C190.422 120.071 189.72 121.397 188.18 121.397ZM193.328 125.082H194.478V121.124H194.576C194.829 121.533 195.317 122.43 196.759 122.43C198.631 122.43 199.937 120.929 199.937 118.55C199.937 116.191 198.631 114.69 196.74 114.69C195.278 114.69 194.829 115.587 194.576 115.977H194.439V114.788H193.328V125.082ZM194.459 118.531C194.459 116.854 195.2 115.723 196.603 115.723C198.066 115.723 198.787 116.952 198.787 118.531C198.787 120.13 198.046 121.397 196.603 121.397C195.219 121.397 194.459 120.227 194.459 118.531ZM206.41 119.213C206.41 120.617 205.338 121.26 204.48 121.26C203.525 121.26 202.842 120.558 202.842 119.467V114.788H201.692V119.545C201.692 121.455 202.706 122.372 204.109 122.372C205.24 122.372 205.981 121.767 206.332 121.007H206.41V122.274H207.56V114.788H206.41V119.213ZM209.667 122.274H210.817V117.537C210.817 116.523 211.617 115.782 212.709 115.782C213.016 115.782 213.332 115.84 213.41 115.86V114.69C213.279 114.68 212.977 114.671 212.806 114.671C211.909 114.671 211.129 115.177 210.856 115.918H210.778V114.788H209.667V122.274ZM215.743 125.082C216.781 125.082 217.512 124.531 217.946 123.366L221.133 114.807L219.876 114.788L217.809 120.753H217.731L215.665 114.788H214.417L217.185 122.313L216.971 122.898C216.552 124.039 216.035 124.146 215.197 123.931L214.904 124.945C215.021 125.004 215.353 125.082 215.743 125.082ZM223.806 117.77C223.806 116.464 224.615 115.723 225.716 115.723C226.784 115.723 227.432 116.42 227.432 117.595V122.274H228.582V117.517C228.582 115.606 227.564 114.69 226.048 114.69C224.917 114.69 224.215 115.197 223.864 115.957H223.767V114.788H222.655V122.274H223.806V117.77ZM233.726 122.43C235.753 122.43 237.118 120.89 237.118 118.57C237.118 116.23 235.753 114.69 233.726 114.69C231.698 114.69 230.333 116.23 230.333 118.57C230.333 120.89 231.698 122.43 233.726 122.43ZM233.726 121.397C232.186 121.397 231.484 120.071 231.484 118.57C231.484 117.069 232.186 115.723 233.726 115.723C235.266 115.723 235.968 117.069 235.968 118.57C235.968 120.071 235.266 121.397 233.726 121.397ZM240.316 122.274H241.446L243.084 116.523H243.201L244.839 122.274H245.969L248.251 114.788H247.042L245.424 120.5H245.346L243.766 114.788H242.538L240.939 120.519H240.861L239.243 114.788H238.034L240.316 122.274ZM251.974 122.45C253.281 122.45 253.963 121.748 254.197 121.26H254.255V122.274H255.406V117.342C255.406 114.963 253.593 114.69 252.637 114.69C251.506 114.69 250.22 115.08 249.635 116.445L250.727 116.835C250.98 116.289 251.58 115.704 252.676 115.704C253.734 115.704 254.255 116.264 254.255 117.225V117.264C254.255 117.819 253.69 117.77 252.325 117.946C250.936 118.126 249.42 118.433 249.42 120.149C249.42 121.611 250.551 122.45 251.974 122.45ZM252.15 121.416C251.234 121.416 250.571 121.007 250.571 120.208C250.571 119.33 251.37 119.057 252.267 118.94C252.754 118.882 254.061 118.745 254.255 118.511V119.564C254.255 120.5 253.515 121.416 252.15 121.416Z" fill="#2F80ED"/>
</g>
<rect x="146" y="377.137" width="486" height="97" fill="url(#paint0_linear)"/>
<defs>
<filter id="filter0_d" x="295.131" y="98.7894" width="383.481" height="443.521" filterUnits="userSpaceOnUse" color-interpolation-filters="sRGB">
<feFlood flood-opacity="0" result="BackgroundImageFix"/>
<feColorMatrix in="SourceAlpha" type="matrix" values="0 0 0 0 0 0 0 0 0 0 0 0 0 0 0 0 0 0 127 0"/>
<feOffset dx="-15.4942"/>
<feGaussianBlur stdDeviation="15.4942"/>
<feColorMatrix type="matrix" values="0 0 0 0 0 0 0 0 0 0 0 0 0 0 0 0 0 0 0.08 0"/>
<feBlend mode="normal" in2="BackgroundImageFix" result="effect1_dropShadow"/>
<feBlend mode="normal" in="SourceGraphic" in2="effect1_dropShadow" result="shape"/>
</filter>
<filter id="filter1_d" x="0.627451" y="262.137" width="200" height="101.961" filterUnits="userSpaceOnUse" color-interpolation-filters="sRGB">
<feFlood flood-opacity="0" result="BackgroundImageFix"/>
<feColorMatrix in="SourceAlpha" type="matrix" values="0 0 0 0 0 0 0 0 0 0 0 0 0 0 0 0 0 0 127 0"/>
<feOffset dy="15.6863"/>
<feGaussianBlur stdDeviation="15.6863"/>
<feColorMatrix type="matrix" values="0 0 0 0 0.2 0 0 0 0 0.2 0 0 0 0 0.2 0 0 0 0.16 0"/>
<feBlend mode="normal" in2="BackgroundImageFix" result="effect1_dropShadow"/>
<feBlend mode="normal" in="SourceGraphic" in2="effect1_dropShadow" result="shape"/>
</filter>
<filter id="filter2_d" x="462.392" y="95.4705" width="200.98" height="101.961" filterUnits="userSpaceOnUse" color-interpolation-filters="sRGB">
<feFlood flood-opacity="0" result="BackgroundImageFix"/>
<feColorMatrix in="SourceAlpha" type="matrix" values="0 0 0 0 0 0 0 0 0 0 0 0 0 0 0 0 0 0 127 0"/>
<feOffset dy="15.6863"/>
<feGaussianBlur stdDeviation="15.6863"/>
<feColorMatrix type="matrix" values="0 0 0 0 0.2 0 0 0 0 0.2 0 0 0 0 0.2 0 0 0 0.16 0"/>
<feBlend mode="normal" in2="BackgroundImageFix" result="effect1_dropShadow"/>
<feBlend mode="normal" in="SourceGraphic" in2="effect1_dropShadow" result="shape"/>
</filter>
<filter id="filter3_d" x="284.708" y="0.577751" width="210.663" height="122.058" filterUnits="userSpaceOnUse" color-interpolation-filters="sRGB">
<feFlood flood-opacity="0" result="BackgroundImageFix"/>
<feColorMatrix in="SourceAlpha" type="matrix" values="0 0 0 0 0 0 0 0 0 0 0 0 0 0 0 0 0 0 127 0"/>
<feOffset dy="18.6854"/>
<feGaussianBlur stdDeviation="18.6854"/>
<feColorMatrix type="matrix" values="0 0 0 0 0.2 0 0 0 0 0.2 0 0 0 0 0.2 0 0 0 0.16 0"/>
<feBlend mode="normal" in2="BackgroundImageFix" result="effect1_dropShadow"/>
<feBlend mode="normal" in="SourceGraphic" in2="effect1_dropShadow" result="shape"/>
</filter>
<filter id="filter4_d" x="103.569" y="81.7449" width="207.843" height="101.961" filterUnits="userSpaceOnUse" color-interpolation-filters="sRGB">
<feFlood flood-opacity="0" result="BackgroundImageFix"/>
<feColorMatrix in="SourceAlpha" type="matrix" values="0 0 0 0 0 0 0 0 0 0 0 0 0 0 0 0 0 0 127 0"/>
<feOffset dy="15.6863"/>
<feGaussianBlur stdDeviation="15.6863"/>
<feColorMatrix type="matrix" values="0 0 0 0 0.2 0 0 0 0 0.2 0 0 0 0 0.2 0 0 0 0.16 0"/>
<feBlend mode="normal" in2="BackgroundImageFix" result="effect1_dropShadow"/>
<feBlend mode="normal" in="SourceGraphic" in2="effect1_dropShadow" result="shape"/>
</filter>
<linearGradient id="paint0_linear" x1="389" y1="377.137" x2="389" y2="469.518" gradientUnits="userSpaceOnUse">
<stop stop-color="white" stop-opacity="0"/>
<stop offset="1" stop-color="white"/>
</linearGradient>
<clipPath id="clip0">
<rect width="474" height="369" fill="white" transform="translate(146 88.1372)"/>
</clipPath>
<clipPath id="clip1">
<rect width="474.51" height="381.545" fill="white" transform="translate(146 91.0425)"/>
</clipPath>
<clipPath id="clip2">
<rect width="321.505" height="347.651" fill="white" transform="translate(146 182.071)"/>
</clipPath>
<clipPath id="clip3">
<rect width="284.706" height="23.2413" fill="white" transform="translate(182.799 222.743)"/>
</clipPath>
<clipPath id="clip4">
<rect width="284.706" height="23.2413" fill="white" transform="translate(182.799 269.226)"/>
</clipPath>
<clipPath id="clip5">
<rect width="284.706" height="23.2413" fill="white" transform="translate(182.799 315.708)"/>
</clipPath>
<clipPath id="clip6">
<rect width="284.706" height="23.2413" fill="white" transform="translate(182.799 362.191)"/>
</clipPath>
<clipPath id="clip7">
<rect width="284.706" height="23.2413" fill="white" transform="translate(182.799 408.674)"/>
</clipPath>
<clipPath id="clip8">
<rect width="284.706" height="23.2413" fill="white" transform="translate(182.799 455.156)"/>
</clipPath>
<clipPath id="clip9">
<rect width="321.505" height="381.545" fill="white" transform="translate(341.614 129.778)"/>
</clipPath>
<clipPath id="clip10">
<rect width="284.706" height="23.2413" fill="white" transform="translate(378.413 176.26)"/>
</clipPath>
<clipPath id="clip11">
<rect width="284.706" height="23.2413" fill="white" transform="translate(378.413 222.743)"/>
</clipPath>
<clipPath id="clip12">
<rect width="284.706" height="23.2413" fill="white" transform="translate(378.413 269.226)"/>
</clipPath>
<clipPath id="clip13">
<rect width="284.706" height="23.2413" fill="white" transform="translate(378.413 315.708)"/>
</clipPath>
<clipPath id="clip14">
<rect width="284.706" height="23.2413" fill="white" transform="translate(378.413 362.191)"/>
</clipPath>
<clipPath id="clip15">
<rect width="284.706" height="23.2413" fill="white" transform="translate(378.413 408.674)"/>
</clipPath>
</defs>
</svg>
