<svg width="104" height="104" viewBox="0 0 104 104" fill="none" xmlns="http://www.w3.org/2000/svg">
<rect x="25.5" y="17.5" width="53" height="69" rx="2.5" stroke="#7A3DA8" stroke-width="3"/>
<circle cx="78" cy="81" r="14" fill="white"/>
<path d="M39.3541 63.7171C39.1979 64.8105 39.9577 65.8236 41.0511 65.9798C42.1446 66.136 43.1577 65.3762 43.3139 64.2827L39.3541 63.7171ZM60.6874 64.2827C60.8436 65.3762 61.8567 66.136 62.9502 65.9798C64.0436 65.8236 64.8034 64.8105 64.6472 63.7171L60.6874 64.2827ZM41.334 63.9999C43.3139 64.2827 43.3138 64.2837 43.3136 64.2845C43.3136 64.2848 43.3135 64.2856 43.3134 64.2861C43.3133 64.2871 43.3131 64.288 43.313 64.2887C43.3128 64.2901 43.3127 64.291 43.3126 64.2913C43.3125 64.2921 43.3127 64.2906 43.3133 64.2872C43.3144 64.2802 43.3169 64.265 43.3209 64.2421C43.329 64.1963 43.3432 64.1201 43.3651 64.0179C43.409 63.8129 43.4831 63.5065 43.5987 63.1329C43.8321 62.3791 44.2231 61.3894 44.8497 60.4147C46.0623 58.5285 48.1513 56.6666 52.0006 56.6666V52.6666C46.5167 52.6666 43.2723 55.4713 41.485 58.2517C40.6115 59.6104 40.0859 60.9541 39.7776 61.9502C39.6224 62.4516 39.5194 62.8744 39.4539 63.1798C39.4211 63.3328 39.3976 63.4571 39.3816 63.548C39.3736 63.5935 39.3674 63.6308 39.3629 63.6591C39.3606 63.6733 39.3588 63.6852 39.3573 63.6949C39.3566 63.6998 39.356 63.704 39.3554 63.7077C39.3552 63.7096 39.3549 63.7113 39.3547 63.7128C39.3546 63.7136 39.3544 63.7147 39.3544 63.715C39.3542 63.7161 39.3541 63.7171 41.334 63.9999ZM52.0006 56.6666C55.85 56.6666 57.939 58.5285 59.1516 60.4147C59.7782 61.3894 60.1692 62.3791 60.4026 63.1329C60.5182 63.5065 60.5923 63.8129 60.6362 64.0179C60.6581 64.1201 60.6723 64.1963 60.6804 64.2421C60.6844 64.265 60.6869 64.2802 60.688 64.2872C60.6886 64.2906 60.6888 64.2921 60.6887 64.2913C60.6886 64.291 60.6885 64.2901 60.6883 64.2887C60.6882 64.288 60.688 64.2871 60.6879 64.2861C60.6878 64.2856 60.6877 64.2848 60.6877 64.2845C60.6875 64.2837 60.6874 64.2827 62.6673 63.9999C64.6472 63.7171 64.6471 63.7161 64.6469 63.715C64.6469 63.7147 64.6467 63.7136 64.6466 63.7128C64.6464 63.7113 64.6461 63.7096 64.6459 63.7077C64.6453 63.704 64.6447 63.6998 64.644 63.6949C64.6425 63.6852 64.6407 63.6733 64.6384 63.6591C64.6339 63.6308 64.6277 63.5935 64.6197 63.548C64.6037 63.4571 64.5802 63.3328 64.5474 63.1798C64.4819 62.8744 64.3789 62.4516 64.2237 61.9502C63.9154 60.9541 63.3898 59.6104 62.5163 58.2517C60.729 55.4713 57.4846 52.6666 52.0006 52.6666V56.6666Z" fill="#FF6984"/>
<circle cx="52.0016" cy="45.3334" r="4.66667" stroke="#FF6984" stroke-width="4"/>
<path d="M90 81C90 84.1826 88.7357 87.2348 86.4853 89.4853C84.2348 91.7357 81.1826 93 78 93C74.8174 93 71.7652 91.7357 69.5147 89.4853C67.2643 87.2348 66 84.1826 66 81C66 77.8174 67.2643 74.7652 69.5147 72.5147C71.7652 70.2643 74.8174 69 78 69C81.1826 69 84.2348 70.2643 86.4853 72.5147C88.7357 74.7652 90 77.8174 90 81ZM78.75 75.75C78.75 75.5511 78.671 75.3603 78.5303 75.2197C78.3897 75.079 78.1989 75 78 75C77.8011 75 77.6103 75.079 77.4697 75.2197C77.329 75.3603 77.25 75.5511 77.25 75.75V80.25H72.75C72.5511 80.25 72.3603 80.329 72.2197 80.4697C72.079 80.6103 72 80.8011 72 81C72 81.1989 72.079 81.3897 72.2197 81.5303C72.3603 81.671 72.5511 81.75 72.75 81.75H77.25V86.25C77.25 86.4489 77.329 86.6397 77.4697 86.7803C77.6103 86.921 77.8011 87 78 87C78.1989 87 78.3897 86.921 78.5303 86.7803C78.671 86.6397 78.75 86.4489 78.75 86.25V81.75H83.25C83.4489 81.75 83.6397 81.671 83.7803 81.5303C83.921 81.3897 84 81.1989 84 81C84 80.8011 83.921 80.6103 83.7803 80.4697C83.6397 80.329 83.4489 80.25 83.25 80.25H78.75V75.75Z" fill="#FF6984"/>
</svg>
