<svg width="598" height="397" viewBox="0 0 598 397" fill="none" xmlns="http://www.w3.org/2000/svg">
<path d="M406.523 33.7525C404.647 24.3709 411.369 15.4506 420.904 14.6682L579.3 1.6716C589.112 0.866516 597.316 9.02926 596.561 18.8451L591.191 88.6562C590.527 97.2803 583.13 103.816 574.49 103.412L431.489 96.7215C424.151 96.3782 417.989 91.081 416.548 83.8769L406.523 33.7525Z" fill="#EBE6F0"/>
<path d="M177.405 32.0869C178.285 23.2828 171.853 15.4357 163.047 14.5713L31.0739 1.61685C22.6185 0.786876 14.9888 6.71017 13.6969 15.1074L2.97375 84.8078C1.43648 94.8001 9.43665 103.696 19.5354 103.223L157.202 96.7827C165.128 96.4119 171.585 90.2878 172.374 82.3923L177.405 32.0869Z" fill="#EEF5FE"/>
<path d="M417.796 167.38C418.494 159.704 424.565 153.616 432.24 152.898L573.715 139.661C582.651 138.825 590.526 145.5 591.165 154.451L596.722 232.245C597.403 241.779 589.628 249.779 580.079 249.371L427.77 242.855C418.641 242.464 411.692 234.521 412.52 225.421L417.796 167.38Z" fill="#EEF5FE"/>
<path d="M179.86 171.41C181.545 162.14 174.897 153.429 165.511 152.608L18.6896 139.771C8.88289 138.914 0.6353 147.031 1.33665 156.85L6.88377 234.51C7.50401 243.193 14.9527 249.787 23.6471 249.35L154.331 242.775C161.752 242.401 167.94 236.968 169.269 229.657L179.86 171.41Z" fill="#FFEEEF"/>
<path d="M406.671 318.494C404.744 308.855 411.883 299.773 421.705 299.37L578.574 292.934C588.638 292.521 596.575 301.398 595.044 311.354L584.303 381.167C583.011 389.564 575.382 395.488 566.926 394.658L430.801 381.296C423.791 380.608 418.056 375.417 416.675 368.51L406.671 318.494Z" fill="#FFEEEF"/>
<path d="M177.241 317.729C178.183 308.31 170.786 300.137 161.32 300.137H22.7221C14.4007 300.137 7.46844 306.516 6.77739 314.808L1.58658 377.098C0.75943 387.024 9.10493 395.285 19.0219 394.357L157.881 381.365C165.501 380.652 171.55 374.642 172.311 367.026L177.241 317.729Z" fill="#EBE6F0"/>
<path fill-rule="evenodd" clip-rule="evenodd" d="M474.709 40.4146C474.709 46.8888 469.46 52.1372 462.986 52.1372C456.512 52.1372 451.263 46.8888 451.263 40.4146C451.263 33.9404 456.512 28.692 462.986 28.692C469.46 28.692 474.709 33.9404 474.709 40.4146ZM470.019 40.4146C470.019 44.2991 466.87 47.4482 462.986 47.4482C459.101 47.4482 455.952 44.2991 455.952 40.4146C455.952 36.5301 459.101 33.3811 462.986 33.3811C466.87 33.3811 470.019 36.5301 470.019 40.4146Z" fill="#FF9595"/>
<path d="M446.551 73.5715L446.553 73.5589C446.556 73.5404 446.561 73.5072 446.569 73.4604C446.586 73.3666 446.614 73.2186 446.655 73.0239C446.739 72.6341 446.878 72.0612 447.093 71.3668C447.525 69.9702 448.252 68.1262 449.426 66.2999C451.727 62.721 455.738 59.1708 462.986 59.1708C470.234 59.1708 474.246 62.721 476.546 66.2999C477.721 68.1262 478.448 69.9702 478.88 71.3668C479.095 72.0612 479.234 72.6341 479.317 73.0239C479.359 73.2186 479.387 73.3666 479.403 73.4604C479.411 73.5072 479.417 73.5404 479.42 73.5589L479.422 73.5715L479.422 73.5756C479.608 74.8541 480.794 75.7417 482.074 75.5588C483.356 75.3757 484.246 74.1881 484.063 72.9063L481.742 73.2379C484.063 72.9063 484.063 72.9051 484.063 72.9039L484.063 72.9011L484.062 72.8944L484.059 72.8764L484.051 72.8227C484.044 72.7791 484.034 72.7201 484.021 72.6468C483.995 72.5001 483.957 72.2956 483.902 72.0414C483.793 71.5338 483.621 70.8246 483.359 69.9803C482.839 68.2997 481.954 66.0408 480.491 63.7642C477.516 59.1373 472.15 54.4817 462.986 54.4817C453.822 54.4817 448.456 59.1373 445.482 63.7642C444.018 66.0408 443.133 68.2997 442.613 69.9803C442.352 70.8246 442.179 71.5338 442.07 72.0414C442.016 72.2956 441.977 72.5001 441.951 72.6468C441.939 72.7201 441.929 72.7791 441.922 72.8227L441.914 72.8764L441.911 72.8944L441.91 72.9011L441.909 72.9039C441.909 72.9051 441.909 72.9063 444.23 73.2379L441.909 72.9063C441.726 74.1881 442.617 75.3757 443.899 75.5588C445.178 75.7417 446.364 74.8541 446.55 73.5755L446.551 73.5715Z" fill="#FF9595"/>
<rect x="502.844" y="35.3348" width="43.7644" height="6.25205" rx="1.56301" fill="#FF9595"/>
<rect x="502.845" y="50.1835" width="63.302" height="6.25205" rx="1.56301" fill="#FF9595" fill-opacity="0.32"/>
<rect x="502.844" y="62.6875" width="50.7979" height="6.25205" rx="1.56301" fill="#FF9595" fill-opacity="0.32"/>
<path fill-rule="evenodd" clip-rule="evenodd" d="M115.291 40.4146C115.291 46.8888 120.54 52.1372 127.014 52.1372C133.488 52.1372 138.737 46.8888 138.737 40.4146C138.737 33.9404 133.488 28.692 127.014 28.692C120.54 28.692 115.291 33.9404 115.291 40.4146ZM119.981 40.4146C119.981 44.2991 123.13 47.4482 127.014 47.4482C130.899 47.4482 134.048 44.2991 134.048 40.4146C134.048 36.5301 130.899 33.3811 127.014 33.3811C123.13 33.3811 119.981 36.5301 119.981 40.4146Z" fill="#FF9595"/>
<path d="M143.449 73.5715L143.447 73.5589C143.444 73.5404 143.439 73.5072 143.431 73.4604C143.414 73.3666 143.386 73.2186 143.345 73.0239C143.261 72.6341 143.122 72.0612 142.907 71.3668C142.475 69.9702 141.748 68.1262 140.574 66.2999C138.273 62.721 134.262 59.1708 127.014 59.1708C119.766 59.1708 115.754 62.721 113.454 66.2999C112.279 68.1262 111.552 69.9702 111.12 71.3668C110.905 72.0612 110.766 72.6341 110.683 73.0239C110.641 73.2186 110.613 73.3666 110.597 73.4604C110.589 73.5072 110.583 73.5404 110.58 73.5589L110.578 73.5715L110.578 73.5756C110.392 74.8541 109.206 75.7417 107.926 75.5588C106.644 75.3757 105.754 74.1881 105.937 72.9063L108.258 73.2379C105.937 72.9063 105.937 72.9051 105.937 72.9039L105.937 72.9011L105.938 72.8944L105.941 72.8764L105.949 72.8227C105.956 72.7791 105.966 72.7201 105.979 72.6468C106.005 72.5001 106.043 72.2956 106.098 72.0414C106.207 71.5338 106.379 70.8246 106.641 69.9803C107.161 68.2997 108.046 66.0408 109.509 63.7642C112.484 59.1373 117.85 54.4817 127.014 54.4817C136.178 54.4817 141.544 59.1373 144.518 63.7642C145.982 66.0408 146.867 68.2997 147.387 69.9803C147.648 70.8246 147.821 71.5338 147.93 72.0414C147.984 72.2956 148.023 72.5001 148.049 72.6468C148.061 72.7201 148.071 72.7791 148.078 72.8227L148.086 72.8764L148.089 72.8944L148.09 72.9011L148.091 72.9039C148.091 72.9051 148.091 72.9063 145.77 73.2379L148.091 72.9063C148.274 74.1881 147.383 75.3757 146.101 75.5588C144.822 75.7417 143.636 74.8541 143.45 73.5755L143.449 73.5715Z" fill="#FF9595"/>
<rect width="43.7644" height="6.25205" rx="1.56301" transform="matrix(-1 0 0 1 87.1558 35.3348)" fill="#FF9595"/>
<rect width="63.302" height="6.25205" rx="1.56301" transform="matrix(-1 0 0 1 87.1553 50.1835)" fill="#FF9595" fill-opacity="0.32"/>
<rect width="50.7979" height="6.25205" rx="1.56301" transform="matrix(-1 0 0 1 87.1558 62.6875)" fill="#FF9595" fill-opacity="0.32"/>
<path fill-rule="evenodd" clip-rule="evenodd" d="M474.709 186.415C474.709 192.889 469.46 198.137 462.986 198.137C456.512 198.137 451.263 192.889 451.263 186.415C451.263 179.94 456.512 174.692 462.986 174.692C469.46 174.692 474.709 179.94 474.709 186.415ZM470.019 186.415C470.019 190.299 466.87 193.448 462.986 193.448C459.101 193.448 455.952 190.299 455.952 186.415C455.952 182.53 459.101 179.381 462.986 179.381C466.87 179.381 470.019 182.53 470.019 186.415Z" fill="#FF9595"/>
<path d="M446.551 219.571L446.553 219.559C446.556 219.54 446.561 219.507 446.569 219.46C446.586 219.367 446.614 219.219 446.655 219.024C446.739 218.634 446.878 218.061 447.093 217.367C447.525 215.97 448.252 214.126 449.426 212.3C451.727 208.721 455.738 205.171 462.986 205.171C470.234 205.171 474.246 208.721 476.546 212.3C477.721 214.126 478.448 215.97 478.88 217.367C479.095 218.061 479.234 218.634 479.317 219.024C479.359 219.219 479.387 219.367 479.403 219.46C479.411 219.507 479.417 219.54 479.42 219.559L479.422 219.571L479.422 219.576C479.608 220.854 480.794 221.742 482.074 221.559C483.356 221.376 484.246 220.188 484.063 218.906L481.742 219.238C484.063 218.906 484.063 218.905 484.063 218.904L484.063 218.901L484.062 218.894L484.059 218.876L484.051 218.823C484.044 218.779 484.034 218.72 484.021 218.647C483.995 218.5 483.957 218.296 483.902 218.041C483.793 217.534 483.621 216.825 483.359 215.98C482.839 214.3 481.954 212.041 480.491 209.764C477.516 205.137 472.15 200.482 462.986 200.482C453.822 200.482 448.456 205.137 445.482 209.764C444.018 212.041 443.133 214.3 442.613 215.98C442.352 216.825 442.179 217.534 442.07 218.041C442.016 218.296 441.977 218.5 441.951 218.647C441.939 218.72 441.929 218.779 441.922 218.823L441.914 218.876L441.911 218.894L441.91 218.901L441.909 218.904C441.909 218.905 441.909 218.906 444.23 219.238L441.909 218.906C441.726 220.188 442.617 221.376 443.899 221.559C445.178 221.742 446.364 220.854 446.55 219.575L446.551 219.571Z" fill="#FF9595"/>
<rect x="502.844" y="181.335" width="43.7644" height="6.25205" rx="1.56301" fill="#FF9595"/>
<rect x="502.845" y="196.183" width="63.302" height="6.25205" rx="1.56301" fill="#FF9595" fill-opacity="0.32"/>
<rect x="502.844" y="208.688" width="50.7979" height="6.25205" rx="1.56301" fill="#FF9595" fill-opacity="0.32"/>
<path fill-rule="evenodd" clip-rule="evenodd" d="M115.291 186.415C115.291 192.889 120.54 198.137 127.014 198.137C133.488 198.137 138.737 192.889 138.737 186.415C138.737 179.94 133.488 174.692 127.014 174.692C120.54 174.692 115.291 179.94 115.291 186.415ZM119.981 186.415C119.981 190.299 123.13 193.448 127.014 193.448C130.899 193.448 134.048 190.299 134.048 186.415C134.048 182.53 130.899 179.381 127.014 179.381C123.13 179.381 119.981 182.53 119.981 186.415Z" fill="#FF9595"/>
<path d="M143.449 219.571L143.447 219.559C143.444 219.54 143.439 219.507 143.431 219.46C143.414 219.367 143.386 219.219 143.345 219.024C143.261 218.634 143.122 218.061 142.907 217.367C142.475 215.97 141.748 214.126 140.574 212.3C138.273 208.721 134.262 205.171 127.014 205.171C119.766 205.171 115.754 208.721 113.454 212.3C112.279 214.126 111.552 215.97 111.12 217.367C110.905 218.061 110.766 218.634 110.683 219.024C110.641 219.219 110.613 219.367 110.597 219.46C110.589 219.507 110.583 219.54 110.58 219.559L110.578 219.571L110.578 219.576C110.392 220.854 109.206 221.742 107.926 221.559C106.644 221.376 105.754 220.188 105.937 218.906L108.258 219.238C105.937 218.906 105.937 218.905 105.937 218.904L105.937 218.901L105.938 218.894L105.941 218.876L105.949 218.823C105.956 218.779 105.966 218.72 105.979 218.647C106.005 218.5 106.043 218.296 106.098 218.041C106.207 217.534 106.379 216.825 106.641 215.98C107.161 214.3 108.046 212.041 109.509 209.764C112.484 205.137 117.85 200.482 127.014 200.482C136.178 200.482 141.544 205.137 144.518 209.764C145.982 212.041 146.867 214.3 147.387 215.98C147.648 216.825 147.821 217.534 147.93 218.041C147.984 218.296 148.023 218.5 148.049 218.647C148.061 218.72 148.071 218.779 148.078 218.823L148.086 218.876L148.089 218.894L148.09 218.901L148.091 218.904C148.091 218.905 148.091 218.906 145.77 219.238L148.091 218.906C148.274 220.188 147.383 221.376 146.101 221.559C144.822 221.742 143.636 220.854 143.45 219.575L143.449 219.571Z" fill="#FF9595"/>
<rect width="43.7644" height="6.25205" rx="1.56301" transform="matrix(-1 0 0 1 87.1558 181.335)" fill="#FF9595"/>
<rect width="63.302" height="6.25205" rx="1.56301" transform="matrix(-1 0 0 1 87.1553 196.183)" fill="#FF9595" fill-opacity="0.32"/>
<rect width="50.7979" height="6.25205" rx="1.56301" transform="matrix(-1 0 0 1 87.1558 208.688)" fill="#FF9595" fill-opacity="0.32"/>
<path fill-rule="evenodd" clip-rule="evenodd" d="M474.709 332.415C474.709 338.889 469.46 344.137 462.986 344.137C456.512 344.137 451.263 338.889 451.263 332.415C451.263 325.94 456.512 320.692 462.986 320.692C469.46 320.692 474.709 325.94 474.709 332.415ZM470.019 332.415C470.019 336.299 466.87 339.448 462.986 339.448C459.101 339.448 455.952 336.299 455.952 332.415C455.952 328.53 459.101 325.381 462.986 325.381C466.87 325.381 470.019 328.53 470.019 332.415Z" fill="#FF9595"/>
<path d="M446.551 365.571L446.553 365.559C446.556 365.54 446.561 365.507 446.569 365.46C446.586 365.367 446.614 365.219 446.655 365.024C446.739 364.634 446.878 364.061 447.093 363.367C447.525 361.97 448.252 360.126 449.426 358.3C451.727 354.721 455.738 351.171 462.986 351.171C470.234 351.171 474.246 354.721 476.546 358.3C477.721 360.126 478.448 361.97 478.88 363.367C479.095 364.061 479.234 364.634 479.317 365.024C479.359 365.219 479.387 365.367 479.403 365.46C479.411 365.507 479.417 365.54 479.42 365.559L479.422 365.571L479.422 365.576C479.608 366.854 480.794 367.742 482.074 367.559C483.356 367.376 484.246 366.188 484.063 364.906L481.742 365.238C484.063 364.906 484.063 364.905 484.063 364.904L484.063 364.901L484.062 364.894L484.059 364.876L484.051 364.823C484.044 364.779 484.034 364.72 484.021 364.647C483.995 364.5 483.957 364.296 483.902 364.041C483.793 363.534 483.621 362.825 483.359 361.98C482.839 360.3 481.954 358.041 480.491 355.764C477.516 351.137 472.15 346.482 462.986 346.482C453.822 346.482 448.456 351.137 445.482 355.764C444.018 358.041 443.133 360.3 442.613 361.98C442.352 362.825 442.179 363.534 442.07 364.041C442.016 364.296 441.977 364.5 441.951 364.647C441.939 364.72 441.929 364.779 441.922 364.823L441.914 364.876L441.911 364.894L441.91 364.901L441.909 364.904C441.909 364.905 441.909 364.906 444.23 365.238L441.909 364.906C441.726 366.188 442.617 367.376 443.899 367.559C445.178 367.742 446.364 366.854 446.55 365.575L446.551 365.571Z" fill="#FF9595"/>
<rect x="502.844" y="327.335" width="43.7644" height="6.25205" rx="1.56301" fill="#FF9595"/>
<rect x="502.845" y="342.183" width="63.302" height="6.25205" rx="1.56301" fill="#FF9595" fill-opacity="0.32"/>
<rect x="502.844" y="354.688" width="50.7979" height="6.25205" rx="1.56301" fill="#FF9595" fill-opacity="0.32"/>
<path fill-rule="evenodd" clip-rule="evenodd" d="M115.291 332.415C115.291 338.889 120.54 344.137 127.014 344.137C133.488 344.137 138.737 338.889 138.737 332.415C138.737 325.94 133.488 320.692 127.014 320.692C120.54 320.692 115.291 325.94 115.291 332.415ZM119.981 332.415C119.981 336.299 123.13 339.448 127.014 339.448C130.899 339.448 134.048 336.299 134.048 332.415C134.048 328.53 130.899 325.381 127.014 325.381C123.13 325.381 119.981 328.53 119.981 332.415Z" fill="#FF9595"/>
<path d="M143.449 365.571L143.447 365.559C143.444 365.54 143.439 365.507 143.431 365.46C143.414 365.367 143.386 365.219 143.345 365.024C143.261 364.634 143.122 364.061 142.907 363.367C142.475 361.97 141.748 360.126 140.574 358.3C138.273 354.721 134.262 351.171 127.014 351.171C119.766 351.171 115.754 354.721 113.454 358.3C112.279 360.126 111.552 361.97 111.12 363.367C110.905 364.061 110.766 364.634 110.683 365.024C110.641 365.219 110.613 365.367 110.597 365.46C110.589 365.507 110.583 365.54 110.58 365.559L110.578 365.571L110.578 365.576C110.392 366.854 109.206 367.742 107.926 367.559C106.644 367.376 105.754 366.188 105.937 364.906L108.258 365.238C105.937 364.906 105.937 364.905 105.937 364.904L105.937 364.901L105.938 364.894L105.941 364.876L105.949 364.823C105.956 364.779 105.966 364.72 105.979 364.647C106.005 364.5 106.043 364.296 106.098 364.041C106.207 363.534 106.379 362.825 106.641 361.98C107.161 360.3 108.046 358.041 109.509 355.764C112.484 351.137 117.85 346.482 127.014 346.482C136.178 346.482 141.544 351.137 144.518 355.764C145.982 358.041 146.867 360.3 147.387 361.98C147.648 362.825 147.821 363.534 147.93 364.041C147.984 364.296 148.023 364.5 148.049 364.647C148.061 364.72 148.071 364.779 148.078 364.823L148.086 364.876L148.089 364.894L148.09 364.901L148.091 364.904C148.091 364.905 148.091 364.906 145.77 365.238L148.091 364.906C148.274 366.188 147.383 367.376 146.101 367.559C144.822 367.742 143.636 366.854 143.45 365.575L143.449 365.571Z" fill="#FF9595"/>
<rect width="43.7644" height="6.25205" rx="1.56301" transform="matrix(-1 0 0 1 87.1558 327.335)" fill="#FF9595"/>
<rect width="63.302" height="6.25205" rx="1.56301" transform="matrix(-1 0 0 1 87.1553 342.183)" fill="#FF9595" fill-opacity="0.32"/>
<rect width="50.7979" height="6.25205" rx="1.56301" transform="matrix(-1 0 0 1 87.1558 354.688)" fill="#FF9595" fill-opacity="0.32"/>
<path fill-rule="evenodd" clip-rule="evenodd" d="M266.4 158.337C267.487 158.337 268.53 158.769 269.299 159.538C270.068 160.307 270.5 161.35 270.5 162.437V171.051C273.911 167.571 278.152 165.017 282.823 163.629C287.495 162.241 292.442 162.065 297.2 163.118C301.958 164.17 306.37 166.416 310.02 169.645C313.67 172.873 316.438 176.978 318.064 181.572C318.261 182.083 318.354 182.629 318.336 183.177C318.319 183.725 318.192 184.264 317.962 184.762C317.733 185.26 317.406 185.707 317.001 186.076C316.596 186.446 316.121 186.73 315.604 186.913C315.087 187.095 314.539 187.172 313.992 187.139C313.445 187.106 312.91 186.964 312.418 186.721C311.927 186.477 311.49 186.138 311.132 185.723C310.774 185.307 310.503 184.824 310.335 184.302C309.098 180.804 306.934 177.708 304.075 175.342C301.217 172.977 297.77 171.431 294.102 170.87C290.434 170.309 286.682 170.754 283.247 172.157C279.812 173.56 276.822 175.869 274.596 178.837H286.9C287.987 178.837 289.03 179.269 289.799 180.038C290.568 180.807 291 181.85 291 182.937C291 184.025 290.568 185.067 289.799 185.836C289.03 186.605 287.987 187.037 286.9 187.037H266.4C265.312 187.037 264.27 186.605 263.501 185.836C262.732 185.067 262.3 184.025 262.3 182.937V162.437C262.3 161.35 262.732 160.307 263.501 159.538C264.27 158.769 265.312 158.337 266.4 158.337ZM266.433 195.471C266.94 195.292 267.478 195.214 268.016 195.243C268.554 195.271 269.081 195.406 269.566 195.638C270.052 195.87 270.488 196.196 270.847 196.596C271.207 196.997 271.485 197.464 271.664 197.972C272.902 201.47 275.065 204.567 277.924 206.932C280.783 209.298 284.23 210.843 287.898 211.404C291.566 211.965 295.317 211.52 298.752 210.117C302.187 208.714 305.177 206.405 307.404 203.437H295.1C294.012 203.437 292.97 203.005 292.201 202.236C291.432 201.467 291 200.425 291 199.337C291 198.25 291.432 197.207 292.201 196.438C292.97 195.669 294.012 195.237 295.1 195.237H315.6C316.687 195.237 317.73 195.669 318.499 196.438C319.268 197.207 319.7 198.25 319.7 199.337V219.837C319.7 220.925 319.268 221.967 318.499 222.736C317.73 223.505 316.687 223.937 315.6 223.937C314.512 223.937 313.47 223.505 312.701 222.736C311.932 221.967 311.5 220.925 311.5 219.837V211.223C308.088 214.703 303.847 217.257 299.176 218.645C294.505 220.033 289.557 220.209 284.799 219.157C280.041 218.104 275.63 215.858 271.98 212.629C268.329 209.401 265.561 205.296 263.936 200.702C263.756 200.195 263.679 199.657 263.707 199.119C263.736 198.581 263.87 198.054 264.103 197.569C264.335 197.083 264.661 196.648 265.061 196.288C265.461 195.928 265.929 195.65 266.437 195.471H266.433Z" fill="#FF6984"/>
<circle cx="175" cy="52.1372" r="7" fill="#734C92"/>
<path d="M184 52.1372C225.421 52.1372 259 85.7159 259 127.137" stroke="#734C92"/>
<path d="M259.866 131.637C259.481 132.304 258.519 132.304 258.134 131.637L254.67 125.637C254.285 124.971 254.766 124.137 255.536 124.137L262.464 124.137C263.234 124.137 263.715 124.971 263.33 125.637L259.866 131.637Z" fill="#734C92"/>
<circle r="7" transform="matrix(4.37114e-08 -1 -1 -4.37114e-08 175 337.137)" fill="#734C92"/>
<path d="M184 337.137C225.421 337.137 259 303.559 259 262.137" stroke="#734C92"/>
<path d="M258.134 254.637C258.519 253.971 259.481 253.971 259.866 254.637L263.33 260.637C263.715 261.304 263.234 262.137 262.464 262.137H255.536C254.766 262.137 254.285 261.304 254.67 260.637L258.134 254.637Z" fill="#734C92"/>
<circle cx="175" cy="198.137" r="7" fill="#734C92"/>
<path d="M183.5 198.137H222" stroke="#734C92" stroke-width="0.919866"/>
<path d="M228.5 197.271C229.167 197.656 229.167 198.618 228.5 199.003L222.5 202.467C221.833 202.852 221 202.371 221 201.601L221 194.673C221 193.903 221.833 193.422 222.5 193.807L228.5 197.271Z" fill="#734C92"/>
<circle cx="412" cy="198.137" r="7" fill="#734C92"/>
<path d="M366 198.137H403" stroke="#734C92" stroke-width="0.901769"/>
<path d="M358.5 199.003C357.833 198.618 357.833 197.656 358.5 197.271L364.5 193.807C365.167 193.422 366 193.903 366 194.673L366 201.601C366 202.371 365.167 202.852 364.5 202.467L358.5 199.003Z" fill="#734C92"/>
<circle cx="411" cy="337.137" r="7" transform="rotate(-90 411 337.137)" fill="#734C92"/>
<path d="M402 337.137C360.579 337.137 327 303.559 327 262.137" stroke="#734C92"/>
<path d="M326.134 254.637C326.519 253.971 327.481 253.971 327.866 254.637L331.33 260.637C331.715 261.304 331.234 262.137 330.464 262.137H323.536C322.766 262.137 322.285 261.304 322.67 260.637L326.134 254.637Z" fill="#734C92"/>
<circle cx="411" cy="49.1372" r="7" fill="#734C92"/>
<path d="M327 124.137C327 82.7158 360.579 49.1372 402 49.1372" stroke="#734C92"/>
<path d="M327.866 131.637C327.481 132.304 326.519 132.304 326.134 131.637L322.67 125.637C322.285 124.971 322.766 124.137 323.536 124.137L330.464 124.137C331.234 124.137 331.715 124.971 331.33 125.637L327.866 131.637Z" fill="#734C92"/>
</svg>
