<svg width="500" height="331" viewBox="0 0 550 365" fill="none" xmlns="http://www.w3.org/2000/svg">
<path d="M374.175 32.4682C372.299 23.0866 379.021 14.1663 388.556 13.3839L531.3 1.6716C541.112 0.866515 549.316 9.02926 548.561 18.8452L543.833 80.3084C543.17 88.9325 535.773 95.468 527.133 95.0638L397.858 89.0158C390.519 88.6725 384.357 83.3753 382.916 76.1712L374.175 32.4682Z" fill="#EBE6F0"/>
<path d="M163.037 30.8026C163.918 21.9985 157.485 14.1514 148.68 13.287L29.7898 1.61685C21.3344 0.786876 13.7047 6.71017 12.4128 15.1074L2.97396 76.46C1.43669 86.4523 9.43685 95.3479 19.5356 94.8754L143.476 89.0771C151.402 88.7062 157.859 82.5822 158.649 74.6866L163.037 30.8026Z" fill="#EEF5FE"/>
<path d="M384.164 155.019C384.862 147.343 390.934 141.255 398.608 140.537L526.358 128.584C535.293 127.748 543.168 134.423 543.808 143.374L548.722 212.178C549.403 221.712 541.628 229.712 532.079 229.304L394.78 223.43C385.651 223.039 378.703 215.096 379.53 205.996L384.164 155.019Z" fill="#EEF5FE"/>
<path d="M165.171 159.048C166.856 149.779 160.208 141.068 150.822 140.247L18.6896 128.694C8.88289 127.837 0.635291 135.954 1.33665 145.774L6.24163 214.443C6.86187 223.127 14.3106 229.721 23.005 229.283L140.927 223.35C148.348 222.977 154.535 217.543 155.864 210.232L165.171 159.048Z" fill="#FFEEEF"/>
<path d="M374.324 294.414C372.396 284.775 379.535 275.693 389.357 275.29L530.574 269.496C540.638 269.083 548.575 277.96 547.044 287.916L537.588 349.381C536.296 357.778 528.666 363.702 520.211 362.872L397.169 350.794C390.159 350.106 384.424 344.915 383.043 338.008L374.324 294.414Z" fill="#FFEEEF"/>
<path d="M162.873 293.649C163.815 284.23 156.418 276.057 146.953 276.057H22.0802C13.7588 276.057 6.82653 282.435 6.13547 290.728L1.5868 345.312C0.759642 355.238 9.10515 363.499 19.0221 362.571L144.156 350.863C151.776 350.15 157.824 344.14 158.586 336.525L162.873 293.649Z" fill="#EBE6F0"/>
<path fill-rule="evenodd" clip-rule="evenodd" d="M434.535 36.2408C434.535 42.715 429.286 47.9634 422.812 47.9634C416.338 47.9634 411.09 42.715 411.09 36.2408C411.09 29.7666 416.338 24.5182 422.812 24.5182C429.286 24.5182 434.535 29.7666 434.535 36.2408ZM429.846 36.2408C429.846 40.1253 426.697 43.2743 422.812 43.2743C418.928 43.2743 415.779 40.1253 415.779 36.2408C415.779 32.3563 418.928 29.2072 422.812 29.2072C426.697 29.2072 429.846 32.3563 429.846 36.2408Z" fill="#FF9595"/>
<path d="M406.377 69.3976L406.379 69.3851C406.382 69.3666 406.387 69.3334 406.396 69.2866C406.412 69.1928 406.44 69.0447 406.482 68.8501C406.565 68.4602 406.704 67.8873 406.919 67.193C407.351 65.7964 408.078 63.9524 409.252 62.126C411.553 58.5472 415.565 54.9969 422.812 54.9969C430.06 54.9969 434.072 58.5472 436.373 62.126C437.547 63.9524 438.274 65.7964 438.706 67.193C438.921 67.8873 439.06 68.4602 439.143 68.8501C439.185 69.0447 439.213 69.1928 439.229 69.2866C439.238 69.3334 439.243 69.3666 439.246 69.3851L439.248 69.3976L439.248 69.4017C439.434 70.6803 440.62 71.5678 441.9 71.385C443.182 71.2019 444.073 70.0143 443.889 68.7325L441.569 69.064C443.889 68.7325 443.889 68.7313 443.889 68.7301L443.889 68.7273L443.888 68.7205L443.885 68.7026L443.877 68.6488C443.87 68.6053 443.86 68.5463 443.847 68.4729C443.821 68.3263 443.783 68.1217 443.728 67.8676C443.619 67.36 443.447 66.6507 443.185 65.8065C442.665 64.1259 441.78 61.867 440.317 59.5904C437.343 54.9635 431.976 50.3079 422.812 50.3079C413.649 50.3079 408.282 54.9635 405.308 59.5904C403.844 61.867 402.96 64.1259 402.439 65.8065C402.178 66.6507 402.005 67.36 401.897 67.8676C401.842 68.1217 401.803 68.3263 401.778 68.4729C401.765 68.5463 401.755 68.6053 401.748 68.6488L401.74 68.7026L401.737 68.7205L401.736 68.7273L401.736 68.7301C401.735 68.7313 401.735 68.7325 404.056 69.064L401.735 68.7325C401.552 70.0143 402.443 71.2019 403.725 71.385C405.004 71.5678 406.19 70.6802 406.376 69.4017L406.377 69.3976Z" fill="#FF9595"/>
<rect x="462.67" y="31.161" width="43.7644" height="6.25205" rx="1.56301" fill="#FF9595"/>
<rect x="462.67" y="46.0096" width="63.302" height="6.25205" rx="1.56301" fill="#FF9595" fill-opacity="0.32"/>
<rect x="462.67" y="58.5137" width="50.7979" height="6.25205" rx="1.56301" fill="#FF9595" fill-opacity="0.32"/>
<path fill-rule="evenodd" clip-rule="evenodd" d="M108.107 36.2408C108.107 42.715 113.356 47.9634 119.83 47.9634C126.304 47.9634 131.553 42.715 131.553 36.2408C131.553 29.7666 126.304 24.5182 119.83 24.5182C113.356 24.5182 108.107 29.7666 108.107 36.2408ZM112.796 36.2408C112.796 40.1253 115.945 43.2743 119.83 43.2743C123.715 43.2743 126.864 40.1253 126.864 36.2408C126.864 32.3563 123.715 29.2072 119.83 29.2072C115.945 29.2072 112.796 32.3563 112.796 36.2408Z" fill="#FF9595"/>
<path d="M136.265 69.3976L136.263 69.3851C136.26 69.3666 136.255 69.3334 136.247 69.2866C136.23 69.1928 136.202 69.0447 136.161 68.8501C136.077 68.4602 135.938 67.8873 135.723 67.193C135.291 65.7964 134.564 63.9524 133.39 62.126C131.089 58.5472 127.077 54.9969 119.83 54.9969C112.582 54.9969 108.57 58.5472 106.269 62.126C105.095 63.9524 104.368 65.7964 103.936 67.193C103.721 67.8873 103.582 68.4602 103.499 68.8501C103.457 69.0447 103.429 69.1928 103.413 69.2866C103.405 69.3334 103.399 69.3666 103.396 69.3851L103.394 69.3976L103.394 69.4017C103.208 70.6803 102.022 71.5678 100.742 71.385C99.4602 71.2019 98.5695 70.0143 98.7526 68.7325L101.074 69.064C98.7526 68.7325 98.7528 68.7313 98.7529 68.7301L98.7533 68.7273L98.7543 68.7205L98.757 68.7026L98.7653 68.6488C98.7723 68.6053 98.782 68.5463 98.7949 68.4729C98.8208 68.3263 98.8594 68.1217 98.9139 67.8676C99.0226 67.36 99.1953 66.6507 99.4566 65.8065C99.9768 64.1259 100.862 61.867 102.325 59.5904C105.3 54.9635 110.666 50.3079 119.83 50.3079C128.994 50.3079 134.36 54.9635 137.334 59.5904C138.798 61.867 139.683 64.1259 140.203 65.8065C140.464 66.6507 140.637 67.36 140.746 67.8676C140.8 68.1217 140.839 68.3263 140.864 68.4729C140.877 68.5463 140.887 68.6053 140.894 68.6488L140.902 68.7026L140.905 68.7205L140.906 68.7273L140.906 68.7301C140.907 68.7313 140.907 68.7325 138.586 69.064L140.907 68.7325C141.09 70.0143 140.199 71.2019 138.917 71.385C137.638 71.5678 136.452 70.6802 136.266 69.4017L136.265 69.3976Z" fill="#FF9595"/>
<rect width="43.7644" height="6.25205" rx="1.56301" transform="matrix(-1 0 0 1 79.9722 31.161)" fill="#FF9595"/>
<rect width="63.302" height="6.25205" rx="1.56301" transform="matrix(-1 0 0 1 79.9717 46.0096)" fill="#FF9595" fill-opacity="0.32"/>
<rect width="50.7979" height="6.25205" rx="1.56301" transform="matrix(-1 0 0 1 79.9722 58.5137)" fill="#FF9595" fill-opacity="0.32"/>
<path fill-rule="evenodd" clip-rule="evenodd" d="M434.535 170.522C434.535 176.996 429.286 182.244 422.812 182.244C416.338 182.244 411.09 176.996 411.09 170.522C411.09 164.047 416.338 158.799 422.812 158.799C429.286 158.799 434.535 164.047 434.535 170.522ZM429.846 170.522C429.846 174.406 426.697 177.555 422.812 177.555C418.928 177.555 415.779 174.406 415.779 170.522C415.779 166.637 418.928 163.488 422.812 163.488C426.697 163.488 429.846 166.637 429.846 170.522Z" fill="#FF9595"/>
<path d="M406.377 203.679L406.379 203.666C406.382 203.647 406.387 203.614 406.396 203.567C406.412 203.474 406.44 203.326 406.482 203.131C406.565 202.741 406.704 202.168 406.919 201.474C407.351 200.077 408.078 198.233 409.252 196.407C411.553 192.828 415.565 189.278 422.812 189.278C430.06 189.278 434.072 192.828 436.373 196.407C437.547 198.233 438.274 200.077 438.706 201.474C438.921 202.168 439.06 202.741 439.143 203.131C439.185 203.326 439.213 203.474 439.229 203.567C439.238 203.614 439.243 203.647 439.246 203.666L439.248 203.679L439.248 203.683C439.434 204.961 440.62 205.849 441.9 205.666C443.182 205.483 444.073 204.295 443.889 203.013L441.569 203.345C443.889 203.013 443.889 203.012 443.889 203.011L443.889 203.008L443.888 203.001L443.885 202.983L443.877 202.93C443.87 202.886 443.86 202.827 443.847 202.754C443.821 202.607 443.783 202.403 443.728 202.148C443.619 201.641 443.447 200.932 443.185 200.087C442.665 198.407 441.78 196.148 440.317 193.871C437.343 189.244 431.976 184.589 422.812 184.589C413.649 184.589 408.282 189.244 405.308 193.871C403.844 196.148 402.96 198.407 402.439 200.087C402.178 200.932 402.005 201.641 401.897 202.148C401.842 202.403 401.803 202.607 401.778 202.754C401.765 202.827 401.755 202.886 401.748 202.93L401.74 202.983L401.737 203.001L401.736 203.008L401.736 203.011C401.735 203.012 401.735 203.013 404.056 203.345L401.735 203.013C401.552 204.295 402.443 205.483 403.725 205.666C405.004 205.849 406.19 204.961 406.376 203.683L406.377 203.679Z" fill="#FF9595"/>
<rect x="462.67" y="165.442" width="43.7644" height="6.25205" rx="1.56301" fill="#FF9595"/>
<rect x="462.67" y="180.291" width="63.302" height="6.25205" rx="1.56301" fill="#FF9595" fill-opacity="0.32"/>
<rect x="462.67" y="192.795" width="50.7979" height="6.25205" rx="1.56301" fill="#FF9595" fill-opacity="0.32"/>
<path fill-rule="evenodd" clip-rule="evenodd" d="M108.107 170.522C108.107 176.996 113.356 182.244 119.83 182.244C126.304 182.244 131.553 176.996 131.553 170.522C131.553 164.047 126.304 158.799 119.83 158.799C113.356 158.799 108.107 164.047 108.107 170.522ZM112.796 170.522C112.796 174.406 115.945 177.555 119.83 177.555C123.715 177.555 126.864 174.406 126.864 170.522C126.864 166.637 123.715 163.488 119.83 163.488C115.945 163.488 112.796 166.637 112.796 170.522Z" fill="#FF9595"/>
<path d="M136.265 203.679L136.263 203.666C136.26 203.647 136.255 203.614 136.247 203.567C136.23 203.474 136.202 203.326 136.161 203.131C136.077 202.741 135.938 202.168 135.723 201.474C135.291 200.077 134.564 198.233 133.39 196.407C131.089 192.828 127.077 189.278 119.83 189.278C112.582 189.278 108.57 192.828 106.269 196.407C105.095 198.233 104.368 200.077 103.936 201.474C103.721 202.168 103.582 202.741 103.499 203.131C103.457 203.326 103.429 203.474 103.413 203.567C103.405 203.614 103.399 203.647 103.396 203.666L103.394 203.679L103.394 203.683C103.208 204.961 102.022 205.849 100.742 205.666C99.4602 205.483 98.5695 204.295 98.7526 203.013L101.074 203.345C98.7526 203.013 98.7528 203.012 98.7529 203.011L98.7533 203.008L98.7543 203.001L98.757 202.983L98.7653 202.93C98.7723 202.886 98.782 202.827 98.7949 202.754C98.8208 202.607 98.8594 202.403 98.9139 202.148C99.0226 201.641 99.1953 200.932 99.4566 200.087C99.9768 198.407 100.862 196.148 102.325 193.871C105.3 189.244 110.666 184.589 119.83 184.589C128.994 184.589 134.36 189.244 137.334 193.871C138.798 196.148 139.683 198.407 140.203 200.087C140.464 200.932 140.637 201.641 140.746 202.148C140.8 202.403 140.839 202.607 140.864 202.754C140.877 202.827 140.887 202.886 140.894 202.93L140.902 202.983L140.905 203.001L140.906 203.008L140.906 203.011C140.907 203.012 140.907 203.013 138.586 203.345L140.907 203.013C141.09 204.295 140.199 205.483 138.917 205.666C137.638 205.849 136.452 204.961 136.266 203.683L136.265 203.679Z" fill="#FF9595"/>
<rect width="43.7644" height="6.25205" rx="1.56301" transform="matrix(-1 0 0 1 79.9722 165.442)" fill="#FF9595"/>
<rect width="63.302" height="6.25205" rx="1.56301" transform="matrix(-1 0 0 1 79.9717 180.291)" fill="#FF9595" fill-opacity="0.32"/>
<rect width="50.7979" height="6.25205" rx="1.56301" transform="matrix(-1 0 0 1 79.9722 192.795)" fill="#FF9595" fill-opacity="0.32"/>
<path fill-rule="evenodd" clip-rule="evenodd" d="M434.535 304.803C434.535 311.277 429.286 316.525 422.812 316.525C416.338 316.525 411.09 311.277 411.09 304.803C411.09 298.328 416.338 293.08 422.812 293.08C429.286 293.08 434.535 298.328 434.535 304.803ZM429.846 304.803C429.846 308.687 426.697 311.836 422.812 311.836C418.928 311.836 415.779 308.687 415.779 304.803C415.779 300.918 418.928 297.769 422.812 297.769C426.697 297.769 429.846 300.918 429.846 304.803Z" fill="#FF9595"/>
<path d="M406.377 337.96L406.379 337.947C406.382 337.928 406.387 337.895 406.396 337.848C406.412 337.755 406.44 337.607 406.482 337.412C406.565 337.022 406.704 336.449 406.919 335.755C407.351 334.358 408.078 332.514 409.252 330.688C411.553 327.109 415.565 323.559 422.812 323.559C430.06 323.559 434.072 327.109 436.373 330.688C437.547 332.514 438.274 334.358 438.706 335.755C438.921 336.449 439.06 337.022 439.143 337.412C439.185 337.607 439.213 337.755 439.229 337.848C439.238 337.895 439.243 337.928 439.246 337.947L439.248 337.96L439.248 337.964C439.434 339.242 440.62 340.13 441.9 339.947C443.182 339.764 444.073 338.576 443.889 337.294L441.569 337.626C443.889 337.294 443.889 337.293 443.889 337.292L443.889 337.289L443.888 337.282L443.885 337.264L443.877 337.211C443.87 337.167 443.86 337.108 443.847 337.035C443.821 336.888 443.783 336.684 443.728 336.43C443.619 335.922 443.447 335.213 443.185 334.368C442.665 332.688 441.78 330.429 440.317 328.152C437.343 323.525 431.976 318.87 422.812 318.87C413.649 318.87 408.282 323.525 405.308 328.152C403.844 330.429 402.96 332.688 402.439 334.368C402.178 335.213 402.005 335.922 401.897 336.43C401.842 336.684 401.803 336.888 401.778 337.035C401.765 337.108 401.755 337.167 401.748 337.211L401.74 337.264L401.737 337.282L401.736 337.289L401.736 337.292C401.735 337.293 401.735 337.294 404.056 337.626L401.735 337.294C401.552 338.576 402.443 339.764 403.725 339.947C405.004 340.13 406.19 339.242 406.376 337.964L406.377 337.96Z" fill="#FF9595"/>
<rect x="462.67" y="299.723" width="43.7644" height="6.25205" rx="1.56301" fill="#FF9595"/>
<rect x="462.67" y="314.572" width="63.302" height="6.25205" rx="1.56301" fill="#FF9595" fill-opacity="0.32"/>
<rect x="462.67" y="327.076" width="50.7979" height="6.25205" rx="1.56301" fill="#FF9595" fill-opacity="0.32"/>
<path fill-rule="evenodd" clip-rule="evenodd" d="M108.107 304.803C108.107 311.277 113.356 316.525 119.83 316.525C126.304 316.525 131.553 311.277 131.553 304.803C131.553 298.328 126.304 293.08 119.83 293.08C113.356 293.08 108.107 298.328 108.107 304.803ZM112.796 304.803C112.796 308.687 115.945 311.836 119.83 311.836C123.715 311.836 126.864 308.687 126.864 304.803C126.864 300.918 123.715 297.769 119.83 297.769C115.945 297.769 112.796 300.918 112.796 304.803Z" fill="#FF9595"/>
<path d="M136.265 337.96L136.263 337.947C136.26 337.928 136.255 337.895 136.247 337.848C136.23 337.755 136.202 337.607 136.161 337.412C136.077 337.022 135.938 336.449 135.723 335.755C135.291 334.358 134.564 332.514 133.39 330.688C131.089 327.109 127.077 323.559 119.83 323.559C112.582 323.559 108.57 327.109 106.269 330.688C105.095 332.514 104.368 334.358 103.936 335.755C103.721 336.449 103.582 337.022 103.499 337.412C103.457 337.607 103.429 337.755 103.413 337.848C103.405 337.895 103.399 337.928 103.396 337.947L103.394 337.96L103.394 337.964C103.208 339.242 102.022 340.13 100.742 339.947C99.4602 339.764 98.5695 338.576 98.7526 337.294L101.074 337.626C98.7526 337.294 98.7528 337.293 98.7529 337.292L98.7533 337.289L98.7543 337.282L98.757 337.264L98.7653 337.211C98.7723 337.167 98.782 337.108 98.7949 337.035C98.8208 336.888 98.8594 336.684 98.9139 336.43C99.0226 335.922 99.1953 335.213 99.4566 334.368C99.9768 332.688 100.862 330.429 102.325 328.152C105.3 323.525 110.666 318.87 119.83 318.87C128.994 318.87 134.36 323.525 137.334 328.152C138.798 330.429 139.683 332.688 140.203 334.368C140.464 335.213 140.637 335.922 140.746 336.43C140.8 336.684 140.839 336.888 140.864 337.035C140.877 337.108 140.887 337.167 140.894 337.211L140.902 337.264L140.905 337.282L140.906 337.289L140.906 337.292C140.907 337.293 140.907 337.294 138.586 337.626L140.907 337.294C141.09 338.576 140.199 339.764 138.917 339.947C137.638 340.13 136.452 339.242 136.266 337.964L136.265 337.96Z" fill="#FF9595"/>
<rect width="43.7644" height="6.25205" rx="1.56301" transform="matrix(-1 0 0 1 79.9722 299.723)" fill="#FF9595"/>
<rect width="63.302" height="6.25205" rx="1.56301" transform="matrix(-1 0 0 1 79.9717 314.572)" fill="#FF9595" fill-opacity="0.32"/>
<rect width="50.7979" height="6.25205" rx="1.56301" transform="matrix(-1 0 0 1 79.9722 327.076)" fill="#FF9595" fill-opacity="0.32"/>
<path fill-rule="evenodd" clip-rule="evenodd" d="M245.017 145.639C246.017 145.639 246.976 146.036 247.683 146.743C248.39 147.45 248.787 148.41 248.787 149.41V157.332C251.925 154.132 255.826 151.783 260.122 150.506C264.418 149.23 268.968 149.068 273.345 150.036C277.721 151.004 281.778 153.07 285.135 156.039C288.493 159.008 291.039 162.783 292.534 167.009C292.715 167.479 292.8 167.981 292.784 168.485C292.768 168.989 292.651 169.485 292.44 169.942C292.229 170.4 291.929 170.811 291.556 171.151C291.184 171.491 290.747 171.753 290.271 171.921C289.796 172.089 289.292 172.159 288.788 172.129C288.285 172.099 287.793 171.968 287.341 171.744C286.889 171.52 286.487 171.208 286.158 170.826C285.829 170.444 285.58 170 285.426 169.52C284.287 166.303 282.297 163.454 279.668 161.279C277.039 159.103 273.868 157.682 270.495 157.166C267.121 156.65 263.671 157.059 260.512 158.35C257.352 159.64 254.602 161.763 252.555 164.493H263.871C264.871 164.493 265.83 164.891 266.537 165.598C267.245 166.305 267.642 167.264 267.642 168.264C267.642 169.264 267.245 170.223 266.537 170.931C265.83 171.638 264.871 172.035 263.871 172.035H245.017C244.016 172.035 243.057 171.638 242.35 170.931C241.643 170.223 241.246 169.264 241.246 168.264V149.41C241.246 148.41 241.643 147.45 242.35 146.743C243.057 146.036 244.016 145.639 245.017 145.639V145.639ZM245.047 179.792C245.514 179.627 246.009 179.556 246.503 179.582C246.998 179.608 247.482 179.732 247.929 179.945C248.376 180.159 248.776 180.458 249.107 180.827C249.438 181.195 249.693 181.625 249.858 182.092C250.997 185.309 252.986 188.158 255.616 190.333C258.245 192.509 261.416 193.93 264.789 194.446C268.162 194.962 271.613 194.553 274.772 193.263C277.931 191.972 280.682 189.849 282.729 187.119H271.413C270.413 187.119 269.454 186.721 268.746 186.014C268.039 185.307 267.642 184.348 267.642 183.348C267.642 182.348 268.039 181.389 268.746 180.681C269.454 179.974 270.413 179.577 271.413 179.577H290.267C291.267 179.577 292.227 179.974 292.934 180.681C293.641 181.389 294.038 182.348 294.038 183.348V202.202C294.038 203.202 293.641 204.162 292.934 204.869C292.227 205.576 291.267 205.973 290.267 205.973C289.267 205.973 288.308 205.576 287.601 204.869C286.894 204.162 286.496 203.202 286.496 202.202V194.28C283.359 197.48 279.458 199.829 275.162 201.106C270.866 202.382 266.315 202.544 261.939 201.576C257.563 200.608 253.505 198.542 250.148 195.573C246.791 192.604 244.245 188.829 242.75 184.604C242.585 184.137 242.514 183.642 242.54 183.147C242.567 182.653 242.69 182.168 242.904 181.721C243.117 181.274 243.417 180.874 243.785 180.543C244.154 180.212 244.583 179.957 245.05 179.792H245.047Z" fill="#FF6984"/>
<circle cx="160.953" cy="47.9633" r="6.43813" fill="#734C92"/>
<path d="M169.231 47.9633C207.328 47.9633 238.211 78.8467 238.211 116.943" stroke="#734C92"/>
<path d="M239.077 120.962C238.692 121.628 237.729 121.628 237.345 120.962L234.298 115.684C233.913 115.017 234.394 114.184 235.164 114.184L241.258 114.184C242.027 114.184 242.509 115.017 242.124 115.684L239.077 120.962Z" fill="#734C92"/>
<circle r="6.43813" transform="matrix(4.37114e-08 -1 -1 -4.37114e-08 160.953 310.087)" fill="#734C92"/>
<path d="M169.231 310.087C207.328 310.087 238.211 279.204 238.211 241.107" stroke="#734C92"/>
<path d="M237.345 234.329C237.73 233.663 238.692 233.663 239.077 234.329L242.124 239.607C242.509 240.274 242.028 241.107 241.258 241.107H235.164C234.394 241.107 233.913 240.274 234.298 239.607L237.345 234.329Z" fill="#734C92"/>
<circle cx="160.953" cy="182.244" r="6.43813" fill="#734C92"/>
<path d="M168.771 182.244H204.181" stroke="#734C92" stroke-width="0.919866"/>
<path d="M210.039 181.378C210.705 181.763 210.705 182.725 210.039 183.11L204.761 186.157C204.094 186.542 203.261 186.061 203.261 185.291L203.261 179.197C203.261 178.427 204.094 177.946 204.761 178.331L210.039 181.378Z" fill="#734C92"/>
<circle cx="378.929" cy="182.244" r="6.43813" fill="#734C92"/>
<path d="M336.622 182.244H370.652" stroke="#734C92" stroke-width="0.901769"/>
<path d="M329.844 183.11C329.178 182.725 329.178 181.763 329.844 181.378L335.122 178.331C335.788 177.946 336.622 178.427 336.622 179.197L336.622 185.291C336.622 186.061 335.788 186.542 335.122 186.157L329.844 183.11Z" fill="#734C92"/>
<circle cx="378.01" cy="310.087" r="6.43813" transform="rotate(-90 378.01 310.087)" fill="#734C92"/>
<path d="M369.732 310.087C331.636 310.087 300.752 279.204 300.752 241.107" stroke="#734C92"/>
<path d="M299.886 234.329C300.271 233.663 301.233 233.663 301.618 234.329L304.665 239.607C305.05 240.274 304.569 241.107 303.799 241.107H297.705C296.935 241.107 296.454 240.274 296.839 239.607L299.886 234.329Z" fill="#734C92"/>
<circle cx="378.01" cy="45.2041" r="6.43813" fill="#734C92"/>
<path d="M300.753 114.184C300.753 76.0875 331.636 45.2041 369.733 45.2041" stroke="#734C92"/>
<path d="M301.619 120.962C301.234 121.628 300.271 121.628 299.887 120.962L296.84 115.684C296.455 115.017 296.936 114.184 297.706 114.184L303.8 114.184C304.569 114.184 305.051 115.017 304.666 115.684L301.619 120.962Z" fill="#734C92"/>
</svg>
