<svg width="662" height="524" viewBox="0 0 662 524" fill="none" xmlns="http://www.w3.org/2000/svg">
<g filter="url(#filter0_b)">
<path d="M160.596 93.3528C163.562 83.2416 172.346 75.9262 182.827 74.8376L516.452 40.1868C530.206 38.7583 542.667 48.3603 544.79 62.0242L597.09 398.542C599.621 414.83 586.53 429.323 570.069 428.457L102.794 403.863C86.0563 402.982 74.5266 386.709 79.2452 370.626L160.596 93.3528Z" fill="#572D80"/>
</g>
<g filter="url(#filter1_d)">
<rect x="468" y="407.137" width="162" height="36" rx="4" fill="#EFE2FF"/>
<path d="M482.801 422.501H483.994C483.94 420.965 482.523 419.816 480.554 419.816C478.605 419.816 477.074 420.95 477.074 422.66C477.074 424.032 478.068 424.847 479.659 425.305L480.912 425.663C481.986 425.961 482.94 426.339 482.94 427.353C482.94 428.467 481.866 429.203 480.455 429.203C479.241 429.203 478.168 428.666 478.068 427.512H476.795C476.915 429.183 478.267 430.316 480.455 430.316C482.801 430.316 484.134 429.024 484.134 427.373C484.134 425.464 482.324 424.847 481.27 424.569L480.236 424.291C479.48 424.092 478.267 423.694 478.267 422.6C478.267 421.626 479.162 420.91 480.514 420.91C481.747 420.91 482.682 421.497 482.801 422.501ZM488.249 430.316C489.581 430.316 490.277 429.6 490.516 429.103H490.575V430.137H491.749V425.106C491.749 422.68 489.899 422.401 488.925 422.401C487.771 422.401 486.459 422.799 485.862 424.191L486.976 424.589C487.235 424.032 487.846 423.436 488.965 423.436C490.044 423.436 490.575 424.007 490.575 424.987V425.026C490.575 425.593 489.999 425.543 488.607 425.722C487.19 425.906 485.644 426.22 485.644 427.97C485.644 429.461 486.797 430.316 488.249 430.316ZM488.428 429.262C487.493 429.262 486.817 428.845 486.817 428.029C486.817 427.134 487.632 426.856 488.547 426.737C489.044 426.677 490.377 426.538 490.575 426.299V427.373C490.575 428.328 489.82 429.262 488.428 429.262ZM496.157 423.774L495.064 424.186V419.955H493.89V424.634L492.797 425.046V425.921L493.89 425.509V430.137H495.064V425.061L496.157 424.649V423.774ZM499.46 430.316C500.792 430.316 501.488 429.6 501.727 429.103H501.786V430.137H502.96V425.106C502.96 422.68 501.11 422.401 500.136 422.401C498.982 422.401 497.67 422.799 497.073 424.191L498.187 424.589C498.445 424.032 499.057 423.436 500.176 423.436C501.254 423.436 501.786 424.007 501.786 424.987V425.026C501.786 425.593 501.21 425.543 499.818 425.722C498.401 425.906 496.855 426.22 496.855 427.97C496.855 429.461 498.008 430.316 499.46 430.316ZM499.639 429.262C498.704 429.262 498.028 428.845 498.028 428.029C498.028 427.134 498.843 426.856 499.758 426.737C500.255 426.677 501.588 426.538 501.786 426.299V427.373C501.786 428.328 501.031 429.262 499.639 429.262ZM508.422 422.501H506.792V420.671H505.618V422.501H504.465V423.495H505.618V428.268C505.618 429.6 506.692 430.237 507.686 430.237C508.124 430.237 508.402 430.157 508.561 430.097L508.323 429.043C508.223 429.063 508.064 429.103 507.806 429.103C507.289 429.103 506.792 428.944 506.792 427.95V423.495H508.422V422.501ZM510.351 430.137H511.525V427.279L512.345 426.518L515.203 430.137H516.695L513.23 425.762L516.456 422.501H515.005L511.664 425.901H511.525V419.955H510.351V430.137ZM520.214 430.316C521.546 430.316 522.242 429.6 522.481 429.103H522.54V430.137H523.714V425.106C523.714 422.68 521.864 422.401 520.89 422.401C519.736 422.401 518.424 422.799 517.827 424.191L518.941 424.589C519.199 424.032 519.811 423.436 520.93 423.436C522.008 423.436 522.54 424.007 522.54 424.987V425.026C522.54 425.593 521.964 425.543 520.572 425.722C519.155 425.906 517.608 426.22 517.608 427.97C517.608 429.461 518.762 430.316 520.214 430.316ZM520.393 429.262C519.458 429.262 518.782 428.845 518.782 428.029C518.782 427.134 519.597 426.856 520.512 426.737C521.009 426.677 522.341 426.538 522.54 426.299V427.373C522.54 428.328 521.785 429.262 520.393 429.262ZM529.574 430.137H535.56V429.043H531.205V428.964L535.42 423.436V422.501H529.713V423.595H533.909V423.674L529.574 429.242V430.137ZM544.188 430.296C545.659 430.296 546.157 429.382 546.415 428.964H546.554V430.137H547.688V419.955H546.515V423.714H546.415C546.157 423.316 545.699 422.401 544.208 422.401C542.279 422.401 540.946 423.933 540.946 426.339C540.946 428.765 542.279 430.296 544.188 430.296ZM544.347 429.242C542.875 429.242 542.12 427.95 542.12 426.319C542.12 424.708 542.855 423.455 544.347 423.455C545.779 423.455 546.534 424.609 546.534 426.319C546.534 428.049 545.759 429.242 544.347 429.242ZM549.781 430.137H555.767V429.043H551.412V428.964L555.627 423.436V422.501H549.92V423.595H554.116V423.674L549.781 429.242V430.137ZM552.704 421.228C553.162 421.228 553.539 420.87 553.539 420.433C553.539 419.995 553.162 419.637 552.704 419.637C552.247 419.637 551.869 419.995 551.869 420.433C551.869 420.87 552.247 421.228 552.704 421.228ZM560.557 430.296C562.108 430.296 563.241 429.521 563.599 428.367L562.466 428.049C562.168 428.845 561.477 429.242 560.557 429.242C559.18 429.242 558.23 428.352 558.175 426.717H563.719V426.22C563.719 423.376 562.028 422.401 560.438 422.401C558.369 422.401 556.997 424.032 556.997 426.379C556.997 428.725 558.349 430.296 560.557 430.296ZM558.175 425.703C558.255 424.514 559.095 423.455 560.438 423.455C561.71 423.455 562.526 424.41 562.526 425.703H558.175ZM565.504 430.137H566.677V425.364C566.677 424.246 567.492 423.455 568.407 423.455C569.297 423.455 569.918 424.037 569.918 424.907V430.137H571.112V425.166C571.112 424.181 571.728 423.455 572.802 423.455C573.637 423.455 574.353 423.898 574.353 425.026V430.137H575.526V425.026C575.526 423.232 574.562 422.401 573.2 422.401C572.106 422.401 571.305 422.904 570.913 423.694H570.833C570.455 422.879 569.789 422.401 568.785 422.401C567.79 422.401 567.055 422.879 566.737 423.694H566.637V422.501H565.504V430.137ZM580.873 430.296C582.424 430.296 583.558 429.521 583.916 428.367L582.782 428.049C582.484 428.845 581.793 429.242 580.873 429.242C579.496 429.242 578.547 428.352 578.492 426.717H584.035V426.22C584.035 423.376 582.345 422.401 580.754 422.401C578.686 422.401 577.314 424.032 577.314 426.379C577.314 428.725 578.666 430.296 580.873 430.296ZM578.492 425.703C578.571 424.514 579.412 423.455 580.754 423.455C582.027 423.455 582.842 424.41 582.842 425.703H578.492ZM585.82 430.137H586.993V425.364C586.993 424.246 587.809 423.455 588.723 423.455C589.613 423.455 590.235 424.037 590.235 424.907V430.137H591.428V425.166C591.428 424.181 592.044 423.455 593.118 423.455C593.953 423.455 594.669 423.898 594.669 425.026V430.137H595.843V425.026C595.843 423.232 594.878 422.401 593.516 422.401C592.422 422.401 591.622 422.904 591.229 423.694H591.15C590.772 422.879 590.105 422.401 589.101 422.401C588.107 422.401 587.371 422.879 587.053 423.694H586.953V422.501H585.82V430.137Z" fill="#333333" fill-opacity="0.88"/>
<rect x="542" y="451.137" width="24" height="24" rx="4" fill="#F5F5F5"/>
<path d="M554 457.637C555.933 457.637 557.5 459.204 557.5 461.137C557.5 462.08 557.079 462.806 556.589 463.515C556.532 463.596 556.474 463.679 556.415 463.763C556.227 464.03 556.032 464.307 555.879 464.574C555.75 464.798 555.635 465.041 555.566 465.304H552.434C552.365 465.041 552.25 464.798 552.121 464.574C551.968 464.307 551.773 464.03 551.585 463.763C551.526 463.679 551.468 463.596 551.411 463.515C550.921 462.806 550.5 462.08 550.5 461.137C550.5 459.204 552.067 457.637 554 457.637Z" stroke="#A0A0A0" stroke-linecap="round" stroke-linejoin="round"/>
<path d="M554 468.137C553.565 468.137 553.194 467.859 553.057 467.471H554.943C554.806 467.859 554.435 468.137 554 468.137Z" stroke="#A0A0A0" stroke-width="1.33333"/>
<path fill-rule="evenodd" clip-rule="evenodd" d="M552.667 460.787C552.667 460.642 552.82 460.547 552.95 460.612C553.611 460.943 554.389 460.943 555.05 460.612C555.18 460.547 555.333 460.642 555.333 460.787V461.665C555.333 461.75 555.285 461.828 555.209 461.866C554.448 462.247 553.552 462.247 552.791 461.866C552.715 461.828 552.667 461.75 552.667 461.665V460.787Z" fill="#A0A0A0"/>
<rect x="574" y="451.137" width="24" height="24" rx="4" fill="#F5F5F5"/>
<path d="M586.667 462.471H589.333C589.702 462.471 590 462.769 590 463.137C590 463.505 589.702 463.804 589.333 463.804H586.667V466.471C586.667 466.839 586.368 467.137 586 467.137C585.632 467.137 585.333 466.839 585.333 466.471V463.804H582.667C582.298 463.804 582 463.505 582 463.137C582 462.769 582.298 462.471 582.667 462.471H585.333V459.804C585.333 459.436 585.632 459.137 586 459.137C586.368 459.137 586.667 459.436 586.667 459.804V462.471Z" fill="#A0A0A0"/>
<rect x="606" y="451.137" width="24" height="24" rx="4" fill="#F5F5F5"/>
<path d="M618.667 462.471H621.333C621.702 462.471 622 462.769 622 463.137C622 463.505 621.702 463.804 621.333 463.804H618.667V466.471C618.667 466.839 618.368 467.137 618 467.137C617.632 467.137 617.333 466.839 617.333 466.471V463.804H614.667C614.298 463.804 614 463.505 614 463.137C614 462.769 614.298 462.471 614.667 462.471H617.333V459.804C617.333 459.436 617.632 459.137 618 459.137C618.368 459.137 618.667 459.436 618.667 459.804V462.471Z" fill="#A0A0A0"/>
</g>
<g filter="url(#filter2_d)">
<rect x="32" y="315.137" width="162" height="116" rx="4" fill="#FFF7E2"/>
<path d="M46.8011 330.501H47.9943C47.9396 328.965 46.5227 327.816 44.554 327.816C42.6051 327.816 41.0739 328.95 41.0739 330.66C41.0739 332.032 42.0682 332.847 43.6591 333.305L44.9119 333.663C45.9858 333.961 46.9403 334.339 46.9403 335.353C46.9403 336.467 45.8665 337.203 44.4545 337.203C43.2415 337.203 42.1676 336.666 42.0682 335.512H40.7955C40.9148 337.183 42.267 338.316 44.4545 338.316C46.8011 338.316 48.1335 337.024 48.1335 335.373C48.1335 333.464 46.3239 332.847 45.2699 332.569L44.2358 332.291C43.4801 332.092 42.267 331.694 42.267 330.6C42.267 329.626 43.1619 328.91 44.5142 328.91C45.7472 328.91 46.6818 329.497 46.8011 330.501ZM52.2488 338.316C53.5811 338.316 54.2772 337.6 54.5158 337.103H54.5755V338.137H55.7488V333.106C55.7488 330.68 53.8993 330.401 52.9249 330.401C51.7715 330.401 50.459 330.799 49.8624 332.191L50.976 332.589C51.2346 332.032 51.8461 331.436 52.9647 331.436C54.0435 331.436 54.5755 332.007 54.5755 332.987V333.026C54.5755 333.593 53.9988 333.543 52.6067 333.722C51.1898 333.906 49.6436 334.22 49.6436 335.97C49.6436 337.461 50.7971 338.316 52.2488 338.316ZM52.4277 337.262C51.4931 337.262 50.8169 336.845 50.8169 336.029C50.8169 335.134 51.6323 334.856 52.5471 334.737C53.0442 334.677 54.3766 334.538 54.5755 334.299V335.373C54.5755 336.328 53.8198 337.262 52.4277 337.262ZM60.1573 331.774L59.0636 332.186V327.955H57.8903V332.634L56.7965 333.046V333.921L57.8903 333.509V338.137H59.0636V333.061L60.1573 332.649V331.774ZM63.4597 338.316C64.7921 338.316 65.4881 337.6 65.7267 337.103H65.7864V338.137H66.9597V333.106C66.9597 330.68 65.1103 330.401 64.1358 330.401C62.9824 330.401 61.6699 330.799 61.0733 332.191L62.187 332.589C62.4455 332.032 63.057 331.436 64.1756 331.436C65.2544 331.436 65.7864 332.007 65.7864 332.987V333.026C65.7864 333.593 65.2097 333.543 63.8176 333.722C62.4007 333.906 60.8546 334.22 60.8546 335.97C60.8546 337.461 62.008 338.316 63.4597 338.316ZM63.6387 337.262C62.704 337.262 62.0279 336.845 62.0279 336.029C62.0279 335.134 62.8432 334.856 63.758 334.737C64.2551 334.677 65.5875 334.538 65.7864 334.299V335.373C65.7864 336.328 65.0307 337.262 63.6387 337.262ZM72.4222 330.501H70.7915V328.671H69.6183V330.501H68.4648V331.495H69.6183V336.268C69.6183 337.6 70.6921 338.237 71.6864 338.237C72.1239 338.237 72.4023 338.157 72.5614 338.097L72.3228 337.043C72.2234 337.063 72.0643 337.103 71.8058 337.103C71.2887 337.103 70.7915 336.944 70.7915 335.95V331.495H72.4222V330.501ZM74.3512 338.137H75.5245V335.279L76.3448 334.518L79.2035 338.137H80.695L77.2298 333.762L80.4563 330.501H79.0046L75.6637 333.901H75.5245V327.955H74.3512V338.137ZM84.2136 338.316C85.546 338.316 86.242 337.6 86.4806 337.103H86.5403V338.137H87.7136V333.106C87.7136 330.68 85.8642 330.401 84.8897 330.401C83.7363 330.401 82.4238 330.799 81.8272 332.191L82.9409 332.589C83.1994 332.032 83.8109 331.436 84.9295 331.436C86.0083 331.436 86.5403 332.007 86.5403 332.987V333.026C86.5403 333.593 85.9636 333.543 84.5716 333.722C83.1547 333.906 81.6085 334.22 81.6085 335.97C81.6085 337.461 82.7619 338.316 84.2136 338.316ZM84.3926 337.262C83.4579 337.262 82.7818 336.845 82.7818 336.029C82.7818 335.134 83.5971 334.856 84.5119 334.737C85.0091 334.677 86.3414 334.538 86.5403 334.299V335.373C86.5403 336.328 85.7846 337.262 84.3926 337.262ZM93.5739 338.137H99.5597V337.043H95.2045V336.964L99.4205 331.436V330.501H93.7131V331.595H97.9091V331.674L93.5739 337.242V338.137ZM44.1562 361.16C45.9858 361.16 47.4574 360.325 47.4574 358.356V350.501H46.3239V351.714H46.2045C45.946 351.316 45.4688 350.401 43.9773 350.401C42.0483 350.401 40.7159 351.933 40.7159 354.279C40.7159 356.666 42.108 358.018 43.9574 358.018C45.4489 358.018 45.9261 357.143 46.1847 356.725H46.2841V358.276C46.2841 359.549 45.3892 360.126 44.1562 360.126C42.7692 360.126 42.282 359.395 41.9688 358.972L41.0341 359.629C41.5114 360.429 42.451 361.16 44.1562 361.16ZM44.1165 356.964C42.6449 356.964 41.8892 355.85 41.8892 354.259C41.8892 352.708 42.625 351.455 44.1165 351.455C45.5483 351.455 46.304 352.609 46.304 354.259C46.304 355.95 45.5284 356.964 44.1165 356.964ZM49.6051 358.137H50.7784V353.305C50.7784 352.271 51.5938 351.515 52.7074 351.515C53.0206 351.515 53.3438 351.575 53.4233 351.595V350.401C53.2891 350.391 52.9808 350.382 52.8068 350.382C51.892 350.382 51.0966 350.899 50.8182 351.654H50.7386V350.501H49.6051V358.137ZM54.8141 358.137H55.9874V350.501H54.8141V358.137ZM55.4107 349.228C55.8681 349.228 56.2459 348.87 56.2459 348.433C56.2459 347.995 55.8681 347.637 55.4107 347.637C54.9533 347.637 54.5755 347.995 54.5755 348.433C54.5755 348.87 54.9533 349.228 55.4107 349.228ZM59.3097 347.955H58.1364V358.137H59.3097V347.955ZM62.6319 347.955H61.4586V358.137H62.6319V347.955ZM67.8832 358.296C69.9513 358.296 71.3434 356.725 71.3434 354.359C71.3434 351.972 69.9513 350.401 67.8832 350.401C65.815 350.401 64.4229 351.972 64.4229 354.359C64.4229 356.725 65.815 358.296 67.8832 358.296ZM67.8832 357.242C66.3121 357.242 65.5962 355.89 65.5962 354.359C65.5962 352.828 66.3121 351.455 67.8832 351.455C69.4542 351.455 70.1701 352.828 70.1701 354.359C70.1701 355.89 69.4542 357.242 67.8832 357.242ZM74.6048 358.137H75.7582L77.4286 352.271H77.5479L79.2184 358.137H80.3718L82.6985 350.501H81.4656L79.815 356.328H79.7354L78.1246 350.501H76.8718L75.2411 356.347H75.1616L73.511 350.501H72.2781L74.6048 358.137ZM86.4968 358.316C87.8292 358.316 88.5252 357.6 88.7638 357.103H88.8235V358.137H89.9968V353.106C89.9968 350.68 88.1474 350.401 87.1729 350.401C86.0195 350.401 84.707 350.799 84.1104 352.191L85.2241 352.589C85.4826 352.032 86.0941 351.436 87.2127 351.436C88.2915 351.436 88.8235 352.007 88.8235 352.987V353.026C88.8235 353.593 88.2468 353.543 86.8548 353.722C85.4379 353.906 83.8917 354.22 83.8917 355.97C83.8917 357.461 85.0451 358.316 86.4968 358.316ZM86.6758 357.262C85.7411 357.262 85.065 356.845 85.065 356.029C85.065 355.134 85.8803 354.856 86.7951 354.737C87.2923 354.677 88.6246 354.538 88.8235 354.299V355.373C88.8235 356.328 88.0678 357.262 86.6758 357.262ZM93.3116 353.543C93.3116 352.211 94.1369 351.455 95.2605 351.455C96.3493 351.455 97.0105 352.166 97.0105 353.364V358.137H98.1838V353.285C98.1838 351.336 97.1447 350.401 95.5985 350.401C94.4451 350.401 93.7292 350.918 93.3713 351.694H93.2718V350.501H92.1383V358.137H93.3116V353.543ZM103.529 358.296C105.081 358.296 106.214 357.521 106.572 356.367L105.439 356.049C105.14 356.845 104.449 357.242 103.529 357.242C102.152 357.242 101.203 356.352 101.148 354.717H106.691V354.22C106.691 351.376 105.001 350.401 103.41 350.401C101.342 350.401 99.9698 352.032 99.9698 354.379C99.9698 356.725 101.322 358.296 103.529 358.296ZM101.148 353.703C101.228 352.514 102.068 351.455 103.41 351.455C104.683 351.455 105.498 352.41 105.498 353.703H101.148ZM111.559 361.16C113.388 361.16 114.86 360.325 114.86 358.356V350.501H113.726V351.714H113.607C113.348 351.316 112.871 350.401 111.38 350.401C109.451 350.401 108.118 351.933 108.118 354.279C108.118 356.666 109.51 358.018 111.36 358.018C112.851 358.018 113.328 357.143 113.587 356.725H113.686V358.276C113.686 359.549 112.792 360.126 111.559 360.126C110.172 360.126 109.684 359.395 109.371 358.972L108.436 359.629C108.914 360.429 109.853 361.16 111.559 361.16ZM111.519 356.964C110.047 356.964 109.292 355.85 109.292 354.259C109.292 352.708 110.027 351.455 111.519 351.455C112.951 351.455 113.706 352.609 113.706 354.259C113.706 355.95 112.931 356.964 111.519 356.964ZM120.11 358.296C122.178 358.296 123.57 356.725 123.57 354.359C123.57 351.972 122.178 350.401 120.11 350.401C118.042 350.401 116.65 351.972 116.65 354.359C116.65 356.725 118.042 358.296 120.11 358.296ZM120.11 357.242C118.539 357.242 117.823 355.89 117.823 354.359C117.823 352.828 118.539 351.455 120.11 351.455C121.681 351.455 122.397 352.828 122.397 354.359C122.397 355.89 121.681 357.242 120.11 357.242ZM131.566 351.774L130.472 352.186V347.955H129.298V352.634L128.205 353.046V353.921L129.298 353.509V358.137H130.472V353.061L131.566 352.649V351.774ZM135.723 358.296C137.791 358.296 139.183 356.725 139.183 354.359C139.183 351.972 137.791 350.401 135.723 350.401C133.655 350.401 132.263 351.972 132.263 354.359C132.263 356.725 133.655 358.296 135.723 358.296ZM135.723 357.242C134.152 357.242 133.436 355.89 133.436 354.359C133.436 352.828 134.152 351.455 135.723 351.455C137.294 351.455 138.01 352.828 138.01 354.359C138.01 355.89 137.294 357.242 135.723 357.242ZM146.383 352.211C146.015 351.127 145.19 350.401 143.679 350.401C142.068 350.401 140.875 351.316 140.875 352.609C140.875 353.663 141.501 354.369 142.903 354.697L144.176 354.995C144.947 355.174 145.309 355.542 145.309 356.069C145.309 356.725 144.613 357.262 143.52 357.262C142.56 357.262 141.959 356.85 141.75 356.029L140.636 356.308C140.91 357.605 141.979 358.296 143.54 358.296C145.314 358.296 146.523 357.327 146.523 356.009C146.523 354.945 145.856 354.274 144.494 353.941L143.361 353.663C142.456 353.439 142.048 353.136 142.048 352.549C142.048 351.893 142.744 351.416 143.679 351.416C144.703 351.416 145.126 351.982 145.329 352.509L146.383 352.211ZM151.391 358.296C153.459 358.296 154.851 356.725 154.851 354.359C154.851 351.972 153.459 350.401 151.391 350.401C149.323 350.401 147.931 351.972 147.931 354.359C147.931 356.725 149.323 358.296 151.391 358.296ZM151.391 357.242C149.82 357.242 149.104 355.89 149.104 354.359C149.104 352.828 149.82 351.455 151.391 351.455C152.962 351.455 153.678 352.828 153.678 354.359C153.678 355.89 152.962 357.242 151.391 357.242ZM162.051 352.211C161.683 351.127 160.858 350.401 159.347 350.401C157.736 350.401 156.543 351.316 156.543 352.609C156.543 353.663 157.169 354.369 158.571 354.697L159.844 354.995C160.615 355.174 160.977 355.542 160.977 356.069C160.977 356.725 160.281 357.262 159.188 357.262C158.228 357.262 157.627 356.85 157.418 356.029L156.304 356.308C156.578 357.605 157.646 358.296 159.208 358.296C160.982 358.296 162.191 357.327 162.191 356.009C162.191 354.945 161.524 354.274 160.162 353.941L159.029 353.663C158.124 353.439 157.716 353.136 157.716 352.549C157.716 351.893 158.412 351.416 159.347 351.416C160.371 351.416 160.794 351.982 160.997 352.509L162.051 352.211ZM163.957 358.137H165.13V350.501H163.957V358.137ZM164.553 349.228C165.011 349.228 165.388 348.87 165.388 348.433C165.388 347.995 165.011 347.637 164.553 347.637C164.096 347.637 163.718 347.995 163.718 348.433C163.718 348.87 164.096 349.228 164.553 349.228ZM169.526 358.316C170.858 358.316 171.555 357.6 171.793 357.103H171.853V358.137H173.026V353.106C173.026 350.68 171.177 350.401 170.202 350.401C169.049 350.401 167.736 350.799 167.14 352.191L168.253 352.589C168.512 352.032 169.123 351.436 170.242 351.436C171.321 351.436 171.853 352.007 171.853 352.987V353.026C171.853 353.593 171.276 353.543 169.884 353.722C168.467 353.906 166.921 354.22 166.921 355.97C166.921 357.461 168.074 358.316 169.526 358.316ZM169.705 357.262C168.77 357.262 168.094 356.845 168.094 356.029C168.094 355.134 168.91 354.856 169.824 354.737C170.322 354.677 171.654 354.538 171.853 354.299V355.373C171.853 356.328 171.097 357.262 169.705 357.262ZM178.886 358.137H184.872V357.043H180.517V356.964L184.733 351.436V350.501H179.026V351.595H183.222V351.674L178.886 357.242V358.137ZM41.0739 381.001H42.2472V376.964H42.3466C42.6051 377.382 43.1023 378.296 44.5739 378.296C46.483 378.296 47.8153 376.765 47.8153 374.339C47.8153 371.933 46.483 370.401 44.554 370.401C43.0625 370.401 42.6051 371.316 42.3466 371.714H42.2074V370.501H41.0739V381.001ZM42.2273 374.319C42.2273 372.609 42.983 371.455 44.4148 371.455C45.9062 371.455 46.642 372.708 46.642 374.319C46.642 375.95 45.8864 377.242 44.4148 377.242C43.0028 377.242 42.2273 376.049 42.2273 374.319ZM51.8523 378.316C53.1847 378.316 53.8807 377.6 54.1193 377.103H54.179V378.137H55.3523V373.106C55.3523 370.68 53.5028 370.401 52.5284 370.401C51.375 370.401 50.0625 370.799 49.4659 372.191L50.5795 372.589C50.8381 372.032 51.4496 371.436 52.5682 371.436C53.647 371.436 54.179 372.007 54.179 372.987V373.026C54.179 373.593 53.6023 373.543 52.2102 373.722C50.7933 373.906 49.2472 374.22 49.2472 375.97C49.2472 377.461 50.4006 378.316 51.8523 378.316ZM52.0312 377.262C51.0966 377.262 50.4205 376.845 50.4205 376.029C50.4205 375.134 51.2358 374.856 52.1506 374.737C52.6477 374.677 53.9801 374.538 54.179 374.299V375.373C54.179 376.328 53.4233 377.262 52.0312 377.262ZM57.4938 381.001H58.6671V376.964H58.7665C59.025 377.382 59.5222 378.296 60.9938 378.296C62.9029 378.296 64.2353 376.765 64.2353 374.339C64.2353 371.933 62.9029 370.401 60.9739 370.401C59.4824 370.401 59.025 371.316 58.7665 371.714H58.6273V370.501H57.4938V381.001ZM58.6472 374.319C58.6472 372.609 59.4029 371.455 60.8347 371.455C62.3262 371.455 63.062 372.708 63.062 374.319C63.062 375.95 62.3063 377.242 60.8347 377.242C59.4228 377.242 58.6472 376.049 58.6472 374.319ZM66.025 378.137H67.1983V373.305C67.1983 372.271 68.0137 371.515 69.1273 371.515C69.4405 371.515 69.7637 371.575 69.8432 371.595V370.401C69.709 370.391 69.4007 370.382 69.2267 370.382C68.312 370.382 67.5165 370.899 67.2381 371.654H67.1586V370.501H66.025V378.137ZM72.2221 381.001C73.2811 381.001 74.0268 380.439 74.4693 379.251L77.7207 370.521L76.438 370.501L74.3301 376.586H74.2505L72.1426 370.501H70.8699L73.6937 378.177L73.475 378.774C73.0474 379.937 72.5204 380.046 71.6653 379.828L71.367 380.862C71.4863 380.921 71.8244 381.001 72.2221 381.001ZM79.2731 378.137H80.4464V375.279L81.2667 374.518L84.1254 378.137H85.6168L82.1516 373.762L85.3782 370.501H83.9265L80.5856 373.901H80.4464V367.955H79.2731V378.137ZM89.1355 378.316C90.4679 378.316 91.1639 377.6 91.4025 377.103H91.4622V378.058C90.622 378.59 90.2889 379.206 90.2889 379.808C90.2889 380.663 90.8855 381.12 91.7008 381.12C92.1781 381.12 92.536 380.961 92.7548 380.822L92.6752 379.947C92.536 380.026 92.2974 380.126 91.9991 380.126C91.6014 380.126 91.4821 379.947 91.4821 379.649C91.4821 379.052 92.0389 378.575 92.6355 378.137V373.106C92.6355 370.68 90.786 370.401 89.8116 370.401C88.6582 370.401 87.3457 370.799 86.7491 372.191L87.8627 372.589C88.1213 372.032 88.7328 371.436 89.8514 371.436C90.9302 371.436 91.4622 372.007 91.4622 372.987V373.026C91.4622 373.593 90.8855 373.543 89.4934 373.722C88.0765 373.906 86.5304 374.22 86.5304 375.97C86.5304 377.461 87.6838 378.316 89.1355 378.316ZM89.3145 377.262C88.3798 377.262 87.7037 376.845 87.7037 376.029C87.7037 375.134 88.519 374.856 89.4338 374.737C89.9309 374.677 91.2633 374.538 91.4622 374.299V375.373C91.4622 376.328 90.7065 377.262 89.3145 377.262ZM98.7145 378.137H99.8878V370.501H98.7145V378.137ZM99.3111 369.228C99.7685 369.228 100.146 368.87 100.146 368.433C100.146 367.995 99.7685 367.637 99.3111 367.637C98.8537 367.637 98.4759 367.995 98.4759 368.433C98.4759 368.87 98.8537 369.228 99.3111 369.228ZM109.077 378.296C111.145 378.296 112.537 376.725 112.537 374.359C112.537 371.972 111.145 370.401 109.077 370.401C107.008 370.401 105.616 371.972 105.616 374.359C105.616 376.725 107.008 378.296 109.077 378.296ZM109.077 377.242C107.506 377.242 106.79 375.89 106.79 374.359C106.79 372.828 107.506 371.455 109.077 371.455C110.648 371.455 111.363 372.828 111.363 374.359C111.363 375.89 110.648 377.242 109.077 377.242ZM117.41 381.16C119.24 381.16 120.711 380.325 120.711 378.356V370.501H119.578V371.714H119.458C119.2 371.316 118.723 370.401 117.231 370.401C115.302 370.401 113.97 371.933 113.97 374.279C113.97 376.666 115.362 378.018 117.211 378.018C118.703 378.018 119.18 377.143 119.439 376.725H119.538V378.276C119.538 379.549 118.643 380.126 117.41 380.126C116.023 380.126 115.536 379.395 115.223 378.972L114.288 379.629C114.765 380.429 115.705 381.16 117.41 381.16ZM117.37 376.964C115.899 376.964 115.143 375.85 115.143 374.259C115.143 372.708 115.879 371.455 117.37 371.455C118.802 371.455 119.558 372.609 119.558 374.259C119.558 375.95 118.782 376.964 117.37 376.964ZM125.961 378.296C128.029 378.296 129.422 376.725 129.422 374.359C129.422 371.972 128.029 370.401 125.961 370.401C123.893 370.401 122.501 371.972 122.501 374.359C122.501 376.725 123.893 378.296 125.961 378.296ZM125.961 377.242C124.39 377.242 123.674 375.89 123.674 374.359C123.674 372.828 124.39 371.455 125.961 371.455C127.532 371.455 128.248 372.828 128.248 374.359C128.248 375.89 127.532 377.242 125.961 377.242ZM125.424 369.467H126.458L128.01 367.16H126.637L125.424 369.467ZM131.213 378.137H132.386V373.305C132.386 372.271 133.201 371.515 134.315 371.515C134.628 371.515 134.951 371.575 135.031 371.595V370.401C134.896 370.391 134.588 370.382 134.414 370.382C133.499 370.382 132.704 370.899 132.426 371.654H132.346V370.501H131.213V378.137ZM136.422 378.137H137.595V375.279L138.415 374.518L141.274 378.137H142.765L139.3 373.762L142.527 370.501H141.075L137.734 373.901H137.595V367.955H136.422V378.137ZM144.037 378.137H145.21V370.501H144.037V378.137ZM144.633 369.228C145.091 369.228 145.469 368.87 145.469 368.433C145.469 367.995 145.091 367.637 144.633 367.637C144.176 367.637 143.798 367.995 143.798 368.433C143.798 368.87 144.176 369.228 144.633 369.228ZM150.561 378.296C152.112 378.296 153.245 377.521 153.603 376.367L152.47 376.049C152.172 376.845 151.48 377.242 150.561 377.242C149.184 377.242 148.234 376.352 148.179 374.717H153.723V374.22C153.723 371.376 152.032 370.401 150.441 370.401C148.373 370.401 147.001 372.032 147.001 374.379C147.001 376.725 148.353 378.296 150.561 378.296ZM148.179 373.703C148.259 372.514 149.099 371.455 150.441 371.455C151.714 371.455 152.529 372.41 152.529 373.703H148.179ZM155.507 378.137H156.681V373.364C156.681 372.246 157.496 371.455 158.411 371.455C159.301 371.455 159.922 372.037 159.922 372.907V378.137H161.115V373.166C161.115 372.181 161.732 371.455 162.806 371.455C163.641 371.455 164.357 371.898 164.357 373.026V378.137H165.53V373.026C165.53 371.232 164.566 370.401 163.203 370.401C162.11 370.401 161.309 370.904 160.917 371.694H160.837C160.459 370.879 159.793 370.401 158.789 370.401C157.794 370.401 157.059 370.879 156.74 371.694H156.641V370.501H155.507V378.137ZM41.0739 398.137H42.2472V395.279L43.0675 394.518L45.9261 398.137H47.4176L43.9524 393.762L47.179 390.501H45.7273L42.3864 393.901H42.2472V387.955H41.0739V398.137ZM48.6891 398.137H49.8624V390.501H48.6891V398.137ZM49.2857 389.228C49.7431 389.228 50.1209 388.87 50.1209 388.433C50.1209 387.995 49.7431 387.637 49.2857 387.637C48.8283 387.637 48.4505 387.995 48.4505 388.433C48.4505 388.87 48.8283 389.228 49.2857 389.228ZM57.4205 392.211C57.0526 391.127 56.2273 390.401 54.7159 390.401C53.1051 390.401 51.9119 391.316 51.9119 392.609C51.9119 393.663 52.5384 394.369 53.9403 394.697L55.2131 394.995C55.9837 395.174 56.3466 395.542 56.3466 396.069C56.3466 396.725 55.6506 397.262 54.5568 397.262C53.5973 397.262 52.9957 396.85 52.7869 396.029L51.6733 396.308C51.9467 397.605 53.0156 398.296 54.5767 398.296C56.3516 398.296 57.5597 397.327 57.5597 396.009C57.5597 394.945 56.8935 394.274 55.5312 393.941L54.3977 393.663C53.4929 393.439 53.0852 393.136 53.0852 392.549C53.0852 391.893 53.7812 391.416 54.7159 391.416C55.7401 391.416 56.1626 391.982 56.3665 392.509L57.4205 392.211ZM59.1071 398.137H65.0929V397.043H60.7377V396.964L64.9537 391.436V390.501H59.2463V391.595H63.4423V391.674L59.1071 397.242V398.137ZM69.7836 398.296C71.8517 398.296 73.2438 396.725 73.2438 394.359C73.2438 391.972 71.8517 390.401 69.7836 390.401C67.7154 390.401 66.3233 391.972 66.3233 394.359C66.3233 396.725 67.7154 398.296 69.7836 398.296ZM69.7836 397.242C68.2125 397.242 67.4966 395.89 67.4966 394.359C67.4966 392.828 68.2125 391.455 69.7836 391.455C71.3546 391.455 72.0705 392.828 72.0705 394.359C72.0705 395.89 71.3546 397.242 69.7836 397.242ZM76.2081 393.543C76.2081 392.211 77.0334 391.455 78.157 391.455C79.2457 391.455 79.907 392.166 79.907 393.364V398.137H81.0803V393.285C81.0803 391.336 80.0412 390.401 78.495 390.401C77.3416 390.401 76.6257 390.918 76.2678 391.694H76.1683V390.501H75.0348V398.137H76.2081V393.543ZM83.7065 401.001C84.7654 401.001 85.5112 400.439 85.9537 399.251L89.2051 390.521L87.9224 390.501L85.8145 396.586H85.7349L83.627 390.501H82.3542L85.1781 398.177L84.9593 398.774C84.5318 399.937 84.0048 400.046 83.1497 399.828L82.8514 400.862C82.9707 400.921 83.3088 401.001 83.7065 401.001ZM90.7575 398.137H91.9308V393.364C91.9308 392.246 92.7461 391.455 93.6609 391.455C94.5508 391.455 95.1722 392.037 95.1722 392.907V398.137H96.3654V393.166C96.3654 392.181 96.9819 391.455 98.0558 391.455C98.891 391.455 99.6069 391.898 99.6069 393.026V398.137H100.78V393.026C100.78 391.232 99.8157 390.401 98.4535 390.401C97.3597 390.401 96.5593 390.904 96.1665 391.694H96.087C95.7092 390.879 95.043 390.401 94.0387 390.401C93.0444 390.401 92.3086 390.879 91.9904 391.694H91.891V390.501H90.7575V398.137ZM110.462 387.478H109.388L106.107 399.668H107.181L110.462 387.478ZM115.791 390.501V398.694C115.791 399.47 115.472 399.907 114.757 399.907H114.538V401.001H114.776C116.248 401.001 116.964 400.106 116.964 398.694V390.501H115.791ZM116.367 389.228C116.825 389.228 117.203 388.87 117.203 388.433C117.203 387.995 116.825 387.637 116.367 387.637C115.91 387.637 115.532 387.995 115.532 388.433C115.532 388.87 115.91 389.228 116.367 389.228ZM121.36 398.316C122.692 398.316 123.388 397.6 123.627 397.103H123.687V398.137H124.86V393.106C124.86 390.68 123.011 390.401 122.036 390.401C120.883 390.401 119.57 390.799 118.974 392.191L120.087 392.589C120.346 392.032 120.957 391.436 122.076 391.436C123.155 391.436 123.687 392.007 123.687 392.987V393.026C123.687 393.593 123.11 393.543 121.718 393.722C120.301 393.906 118.755 394.22 118.755 395.97C118.755 397.461 119.908 398.316 121.36 398.316ZM121.539 397.262C120.604 397.262 119.928 396.845 119.928 396.029C119.928 395.134 120.744 394.856 121.658 394.737C122.156 394.677 123.488 394.538 123.687 394.299V395.373C123.687 396.328 122.931 397.262 121.539 397.262ZM130.084 401.16C131.914 401.16 133.385 400.325 133.385 398.356V390.501H132.252V391.714H132.132C131.874 391.316 131.396 390.401 129.905 390.401C127.976 390.401 126.644 391.933 126.644 394.279C126.644 396.666 128.036 398.018 129.885 398.018C131.377 398.018 131.854 397.143 132.112 396.725H132.212V398.276C132.212 399.549 131.317 400.126 130.084 400.126C128.697 400.126 128.21 399.395 127.896 398.972L126.962 399.629C127.439 400.429 128.379 401.16 130.084 401.16ZM130.044 396.964C128.573 396.964 127.817 395.85 127.817 394.259C127.817 392.708 128.553 391.455 130.044 391.455C131.476 391.455 132.232 392.609 132.232 394.259C132.232 395.95 131.456 396.964 130.044 396.964ZM138.635 398.296C140.703 398.296 142.095 396.725 142.095 394.359C142.095 391.972 140.703 390.401 138.635 390.401C136.567 390.401 135.175 391.972 135.175 394.359C135.175 396.725 136.567 398.296 138.635 398.296ZM138.635 397.242C137.064 397.242 136.348 395.89 136.348 394.359C136.348 392.828 137.064 391.455 138.635 391.455C140.206 391.455 140.922 392.828 140.922 394.359C140.922 395.89 140.206 397.242 138.635 397.242ZM146.77 398.296C148.241 398.296 148.739 397.382 148.997 396.964H149.136V398.137H150.27V387.955H149.097V391.714H148.997C148.739 391.316 148.281 390.401 146.79 390.401C144.861 390.401 143.528 391.933 143.528 394.339C143.528 396.765 144.861 398.296 146.77 398.296ZM146.929 397.242C145.457 397.242 144.702 395.95 144.702 394.319C144.702 392.708 145.438 391.455 146.929 391.455C148.361 391.455 149.116 392.609 149.116 394.319C149.116 396.049 148.341 397.242 146.929 397.242ZM153.337 401.001C154.396 401.001 155.142 400.439 155.585 399.251L158.836 390.521L157.553 390.501L155.445 396.586H155.366L153.258 390.501H151.985L154.809 398.177L154.59 398.774C154.163 399.937 153.636 400.046 152.781 399.828L152.482 400.862C152.602 400.921 152.94 401.001 153.337 401.001ZM164.107 398.137H170.093V397.043H165.738V396.964L169.954 391.436V390.501H164.246V391.595H168.442V391.674L164.107 397.242V398.137ZM41.0739 410.501V418.694C41.0739 419.47 40.7557 419.907 40.0398 419.907H39.821V421.001H40.0597C41.5312 421.001 42.2472 420.106 42.2472 418.694V410.501H41.0739ZM41.6506 409.228C42.108 409.228 42.4858 408.87 42.4858 408.433C42.4858 407.995 42.108 407.637 41.6506 407.637C41.1932 407.637 40.8153 407.995 40.8153 408.433C40.8153 408.87 41.1932 409.228 41.6506 409.228ZM47.4984 418.296C49.5666 418.296 50.9586 416.725 50.9586 414.359C50.9586 411.972 49.5666 410.401 47.4984 410.401C45.4302 410.401 44.0382 411.972 44.0382 414.359C44.0382 416.725 45.4302 418.296 47.4984 418.296ZM47.4984 417.242C45.9274 417.242 45.2115 415.89 45.2115 414.359C45.2115 412.828 45.9274 411.455 47.4984 411.455C49.0694 411.455 49.7853 412.828 49.7853 414.359C49.7853 415.89 49.0694 417.242 47.4984 417.242ZM55.832 421.16C57.6616 421.16 59.1332 420.325 59.1332 418.356V410.501H57.9996V411.714H57.8803C57.6218 411.316 57.1445 410.401 55.6531 410.401C53.7241 410.401 52.3917 411.933 52.3917 414.279C52.3917 416.666 53.7837 418.018 55.6332 418.018C57.1246 418.018 57.6019 417.143 57.8604 416.725H57.9599V418.276C57.9599 419.549 57.065 420.126 55.832 420.126C54.445 420.126 53.9577 419.395 53.6445 418.972L52.7099 419.629C53.1871 420.429 54.1268 421.16 55.832 421.16ZM55.7923 416.964C54.3207 416.964 53.565 415.85 53.565 414.259C53.565 412.708 54.3008 411.455 55.7923 411.455C57.2241 411.455 57.9798 412.609 57.9798 414.259C57.9798 415.95 57.2042 416.964 55.7923 416.964ZM66.0934 415.015C66.0934 416.447 64.9996 417.103 64.1246 417.103C63.1502 417.103 62.4542 416.387 62.4542 415.274V410.501H61.2809V415.353C61.2809 417.302 62.315 418.237 63.7468 418.237C64.9002 418.237 65.6559 417.62 66.0138 416.845H66.0934V418.137H67.2667V410.501H66.0934V415.015ZM69.4157 418.137H70.589V413.305C70.589 412.271 71.4043 411.515 72.5179 411.515C72.8311 411.515 73.1543 411.575 73.2338 411.595V410.401C73.0996 410.391 72.7914 410.382 72.6174 410.382C71.7026 410.382 70.9071 410.899 70.6287 411.654H70.5492V410.501H69.4157V418.137ZM78.4242 410.501H76.7935V408.671H75.6202V410.501H74.4668V411.495H75.6202V416.268C75.6202 417.6 76.6941 418.237 77.6884 418.237C78.1259 418.237 78.4043 418.157 78.5634 418.097L78.3248 417.043C78.2253 417.063 78.0662 417.103 77.8077 417.103C77.2907 417.103 76.7935 416.944 76.7935 415.95V411.495H78.4242V410.501ZM83.3088 418.296C84.8599 418.296 85.9934 417.521 86.3514 416.367L85.2179 416.049C84.9196 416.845 84.2285 417.242 83.3088 417.242C81.9316 417.242 80.9821 416.352 80.9274 414.717H86.4707V414.22C86.4707 411.376 84.7804 410.401 83.1895 410.401C81.1213 410.401 79.7491 412.032 79.7491 414.379C79.7491 416.725 81.1014 418.296 83.3088 418.296ZM80.9274 413.703C81.0069 412.514 81.8471 411.455 83.1895 411.455C84.4622 411.455 85.2775 412.41 85.2775 413.703H80.9274ZM88.2555 418.137H89.4288V413.364C89.4288 412.246 90.2441 411.455 91.1589 411.455C92.0488 411.455 92.6703 412.037 92.6703 412.907V418.137H93.8635V413.166C93.8635 412.181 94.4799 411.455 95.5538 411.455C96.389 411.455 97.1049 411.898 97.1049 413.026V418.137H98.2782V413.026C98.2782 411.232 97.3137 410.401 95.9515 410.401C94.8578 410.401 94.0574 410.904 93.6646 411.694H93.585C93.2072 410.879 92.541 410.401 91.5368 410.401C90.5424 410.401 89.8066 410.879 89.4885 411.694H89.389V410.501H88.2555V418.137Z" fill="#333333" fill-opacity="0.88"/>
<rect x="106" y="439.137" width="24" height="24" rx="4" fill="#F5F5F5"/>
<path d="M118 445.637C119.933 445.637 121.5 447.204 121.5 449.137C121.5 450.08 121.079 450.806 120.589 451.515C120.532 451.596 120.474 451.679 120.415 451.763C120.227 452.03 120.032 452.307 119.879 452.574C119.75 452.798 119.635 453.041 119.566 453.304H116.434C116.365 453.041 116.25 452.798 116.121 452.574C115.968 452.307 115.773 452.03 115.585 451.763C115.526 451.679 115.468 451.596 115.411 451.515C114.921 450.806 114.5 450.08 114.5 449.137C114.5 447.204 116.067 445.637 118 445.637Z" stroke="#A0A0A0" stroke-linecap="round" stroke-linejoin="round"/>
<path d="M118 456.137C117.565 456.137 117.194 455.859 117.057 455.471H118.943C118.806 455.859 118.435 456.137 118 456.137Z" stroke="#A0A0A0" stroke-width="1.33333"/>
<path fill-rule="evenodd" clip-rule="evenodd" d="M116.667 448.787C116.667 448.642 116.82 448.547 116.95 448.612C117.611 448.943 118.389 448.943 119.05 448.612C119.18 448.547 119.333 448.642 119.333 448.787V449.665C119.333 449.75 119.285 449.828 119.209 449.866C118.448 450.247 117.552 450.247 116.791 449.866C116.715 449.828 116.667 449.75 116.667 449.665V448.787Z" fill="#A0A0A0"/>
<rect x="138" y="439.137" width="24" height="24" rx="4" fill="#F5F5F5"/>
<path d="M150.667 450.471H153.333C153.702 450.471 154 450.769 154 451.137C154 451.505 153.702 451.804 153.333 451.804H150.667V454.471C150.667 454.839 150.368 455.137 150 455.137C149.632 455.137 149.333 454.839 149.333 454.471V451.804H146.667C146.298 451.804 146 451.505 146 451.137C146 450.769 146.298 450.471 146.667 450.471H149.333V447.804C149.333 447.436 149.632 447.137 150 447.137C150.368 447.137 150.667 447.436 150.667 447.804V450.471Z" fill="#A0A0A0"/>
<rect x="170" y="439.137" width="24" height="24" rx="4" fill="#F5F5F5"/>
<path d="M182.667 450.471H185.333C185.702 450.471 186 450.769 186 451.137C186 451.505 185.702 451.804 185.333 451.804H182.667V454.471C182.667 454.839 182.368 455.137 182 455.137C181.632 455.137 181.333 454.839 181.333 454.471V451.804H178.667C178.298 451.804 178 451.505 178 451.137C178 450.769 178.298 450.471 178.667 450.471H181.333V447.804C181.333 447.436 181.632 447.137 182 447.137C182.368 447.137 182.667 447.436 182.667 447.804V450.471Z" fill="#A0A0A0"/>
</g>
<g filter="url(#filter3_d)">
<rect x="76" y="61.1372" width="162" height="56" rx="4" fill="#F2FFE2"/>
<path d="M89.1307 73.9554V81.2338C89.1307 82.5016 88.5241 83.1827 87.4602 83.1827C86.4908 83.1827 85.7898 82.6159 85.7898 81.7508H84.5767C84.5767 83.3169 85.7898 84.2764 87.4602 84.2764C89.2301 84.2764 90.3636 83.1876 90.3636 81.2338V73.9554H89.1307ZM94.9226 84.3162C96.255 84.3162 96.951 83.6003 97.1896 83.1031H97.2493V84.1372H98.4226V79.106C98.4226 76.6798 96.5732 76.4014 95.5987 76.4014C94.4453 76.4014 93.1328 76.7991 92.5362 78.1912L93.6499 78.5889C93.9084 78.0321 94.5199 77.4355 95.6385 77.4355C96.7173 77.4355 97.2493 78.0072 97.2493 78.9866V79.0264C97.2493 79.5932 96.6726 79.5435 95.2805 79.7224C93.8636 79.9064 92.3175 80.2196 92.3175 81.9696C92.3175 83.4611 93.4709 84.3162 94.9226 84.3162ZM95.1016 83.2622C94.1669 83.2622 93.4908 82.8446 93.4908 82.0293C93.4908 81.1344 94.3061 80.856 95.2209 80.7366C95.718 80.677 97.0504 80.5378 97.2493 80.2991V81.373C97.2493 82.3275 96.4936 83.2622 95.1016 83.2622ZM100.564 76.5008V84.694C100.564 85.4696 100.246 85.9071 99.53 85.9071H99.3113V87.0008H99.5499C101.021 87.0008 101.737 86.106 101.737 84.694V76.5008H100.564ZM101.141 75.2281C101.598 75.2281 101.976 74.8702 101.976 74.4327C101.976 73.9952 101.598 73.6372 101.141 73.6372C100.683 73.6372 100.306 73.9952 100.306 74.4327C100.306 74.8702 100.683 75.2281 101.141 75.2281ZM103.886 84.1372H105.06V81.2785L105.88 80.5179L108.739 84.1372H110.23L106.765 79.7622L109.991 76.5008H108.54L105.199 79.9014H105.06V73.9554H103.886V84.1372ZM113.749 84.3162C115.081 84.3162 115.777 83.6003 116.016 83.1031H116.075V84.1372H117.249V79.106C117.249 76.6798 115.399 76.4014 114.425 76.4014C113.271 76.4014 111.959 76.7991 111.362 78.1912L112.476 78.5889C112.735 78.0321 113.346 77.4355 114.465 77.4355C115.544 77.4355 116.075 78.0072 116.075 78.9866V79.0264C116.075 79.5932 115.499 79.5435 114.107 79.7224C112.69 79.9064 111.144 80.2196 111.144 81.9696C111.144 83.4611 112.297 84.3162 113.749 84.3162ZM113.928 83.2622C112.993 83.2622 112.317 82.8446 112.317 82.0293C112.317 81.1344 113.132 80.856 114.047 80.7366C114.544 80.677 115.877 80.5378 116.075 80.2991V81.373C116.075 82.3275 115.32 83.2622 113.928 83.2622ZM128.737 78.2111C128.369 77.1273 127.544 76.4014 126.032 76.4014C124.422 76.4014 123.228 77.3162 123.228 78.6088C123.228 79.6628 123.855 80.3687 125.257 80.6969L126.529 80.9952C127.3 81.1741 127.663 81.542 127.663 82.069C127.663 82.7253 126.967 83.2622 125.873 83.2622C124.914 83.2622 124.312 82.8496 124.103 82.0293L122.99 82.3077C123.263 83.6052 124.332 84.2963 125.893 84.2963C127.668 84.2963 128.876 83.3268 128.876 82.0094C128.876 80.9454 128.21 80.2743 126.848 79.9412L125.714 79.6628C124.809 79.4391 124.402 79.1358 124.402 78.5491C124.402 77.8929 125.098 77.4156 126.032 77.4156C127.056 77.4156 127.479 77.9824 127.683 78.5094L128.737 78.2111ZM132.889 84.3162C134.222 84.3162 134.918 83.6003 135.156 83.1031H135.216V84.1372H136.389V79.106C136.389 76.6798 134.54 76.4014 133.566 76.4014C132.412 76.4014 131.1 76.7991 130.503 78.1912L131.617 78.5889C131.875 78.0321 132.487 77.4355 133.605 77.4355C134.684 77.4355 135.216 78.0072 135.216 78.9866V79.0264C135.216 79.5932 134.639 79.5435 133.247 79.7224C131.83 79.9064 130.284 80.2196 130.284 81.9696C130.284 83.4611 131.438 84.3162 132.889 84.3162ZM133.068 83.2622C132.134 83.2622 131.458 82.8446 131.458 82.0293C131.458 81.1344 132.273 80.856 133.188 80.7366C133.685 80.677 135.017 80.5378 135.216 80.2991V81.373C135.216 82.3275 134.46 83.2622 133.068 83.2622ZM141.414 84.2963C142.886 84.2963 143.383 83.3815 143.642 82.9639H143.781V84.1372H144.914V73.9554H143.741V77.7139H143.642C143.383 77.3162 142.926 76.4014 141.434 76.4014C139.505 76.4014 138.173 77.9327 138.173 80.3389C138.173 82.765 139.505 84.2963 141.414 84.2963ZM141.574 83.2423C140.102 83.2423 139.346 81.9497 139.346 80.319C139.346 78.7082 140.082 77.4554 141.574 77.4554C143.005 77.4554 143.761 78.6088 143.761 80.319C143.761 82.0491 142.985 83.2423 141.574 83.2423ZM147.007 84.1372H152.993V83.0435H148.638V82.9639L152.854 77.4355V76.5008H147.147V77.5946H151.343V77.6741L147.007 83.2423V84.1372ZM157.684 84.2963C159.752 84.2963 161.144 82.7253 161.144 80.3588C161.144 77.9724 159.752 76.4014 157.684 76.4014C155.616 76.4014 154.224 77.9724 154.224 80.3588C154.224 82.7253 155.616 84.2963 157.684 84.2963ZM157.684 83.2423C156.113 83.2423 155.397 81.89 155.397 80.3588C155.397 78.8275 156.113 77.4554 157.684 77.4554C159.255 77.4554 159.971 78.8275 159.971 80.3588C159.971 81.89 159.255 83.2423 157.684 83.2423ZM164.108 79.5435C164.108 78.2111 164.934 77.4554 166.057 77.4554C167.146 77.4554 167.807 78.1663 167.807 79.3645V84.1372H168.981V79.2849C168.981 77.3361 167.942 76.4014 166.395 76.4014C165.242 76.4014 164.526 76.9185 164.168 77.694H164.069V76.5008H162.935V84.1372H164.108V79.5435ZM174.326 84.2963C175.877 84.2963 177.011 83.5207 177.369 82.3673L176.235 82.0491C175.937 82.8446 175.246 83.2423 174.326 83.2423C172.949 83.2423 172 82.3524 171.945 80.7168H177.488V80.2196C177.488 77.3758 175.798 76.4014 174.207 76.4014C172.139 76.4014 170.767 78.0321 170.767 80.3787C170.767 82.7253 172.119 84.2963 174.326 84.2963ZM171.945 79.7025C172.025 78.5143 172.865 77.4554 174.207 77.4554C175.48 77.4554 176.295 78.4099 176.295 79.7025H171.945ZM181.023 82.7452H179.75L179.691 83.302C179.547 84.6493 179.263 85.9916 179.134 86.623H180.029C180.267 85.9469 180.775 84.4156 180.944 83.2821L181.023 82.7452ZM84.8551 104.137H90.8409V103.043H86.4858V102.964L90.7017 97.4355V96.5008H84.9943V97.5946H89.1903V97.6741L84.8551 103.242V104.137ZM92.6481 104.137H93.8214V96.5008H92.6481V104.137ZM93.2447 95.2281C93.7021 95.2281 94.0799 94.8702 94.0799 94.4327C94.0799 93.9952 93.7021 93.6372 93.2447 93.6372C92.7873 93.6372 92.4094 93.9952 92.4094 94.4327C92.4094 94.8702 92.7873 95.2281 93.2447 95.2281ZM99.1721 104.296C100.723 104.296 101.857 103.521 102.215 102.367L101.081 102.049C100.783 102.845 100.092 103.242 99.1721 103.242C97.7949 103.242 96.8453 102.352 96.7907 100.717H102.334V100.22C102.334 97.3758 100.644 96.4014 99.0527 96.4014C96.9846 96.4014 95.6124 98.0321 95.6124 100.379C95.6124 102.725 96.9647 104.296 99.1721 104.296ZM96.7907 99.7025C96.8702 98.5143 97.7104 97.4554 99.0527 97.4554C100.325 97.4554 101.141 98.4099 101.141 99.7025H96.7907ZM104.119 104.137H105.292V99.3645C105.292 98.2459 106.107 97.4554 107.022 97.4554C107.912 97.4554 108.534 98.0371 108.534 98.9071V104.137H109.727V99.1656C109.727 98.1812 110.343 97.4554 111.417 97.4554C112.252 97.4554 112.968 97.8979 112.968 99.0264V104.137H114.142V99.0264C114.142 97.2317 113.177 96.4014 111.815 96.4014C110.721 96.4014 109.921 96.9035 109.528 97.694H109.448C109.07 96.8787 108.404 96.4014 107.4 96.4014C106.406 96.4014 105.67 96.8787 105.352 97.694H105.252V96.5008H104.119V104.137ZM117.46 99.5435C117.46 98.2111 118.285 97.4554 119.409 97.4554C120.498 97.4554 121.159 98.1663 121.159 99.3645V104.137H122.332V99.2849C122.332 97.3361 121.293 96.4014 119.747 96.4014C118.594 96.4014 117.878 96.9185 117.52 97.694H117.42V96.5008H116.287V104.137H117.46V99.5435ZM124.476 104.137H125.65V96.5008H124.476V104.137ZM125.073 95.2281C125.53 95.2281 125.908 94.8702 125.908 94.4327C125.908 93.9952 125.53 93.6372 125.073 93.6372C124.615 93.6372 124.238 93.9952 124.238 94.4327C124.238 94.8702 124.615 95.2281 125.073 95.2281ZM130.046 104.316C131.378 104.316 132.074 103.6 132.313 103.103H132.372V104.137H133.546V99.106C133.546 96.6798 131.696 96.4014 130.722 96.4014C129.568 96.4014 128.256 96.7991 127.659 98.1912L128.773 98.5889C129.031 98.0321 129.643 97.4355 130.762 97.4355C131.84 97.4355 132.372 98.0072 132.372 98.9866V99.0264C132.372 99.5932 131.796 99.5435 130.404 99.7224C128.987 99.9064 127.441 100.22 127.441 101.97C127.441 103.461 128.594 104.316 130.046 104.316ZM130.225 103.262C129.29 103.262 128.614 102.845 128.614 102.029C128.614 101.134 129.429 100.856 130.344 100.737C130.841 100.677 132.173 100.538 132.372 100.299V101.373C132.372 102.328 131.617 103.262 130.225 103.262ZM135.687 104.137H136.86V101.279L137.681 100.518L140.539 104.137H142.031L138.566 99.7622L141.792 96.5008H140.341L137 99.9014H136.86V93.9554H135.687V104.137ZM143.302 104.137H144.476V96.5008H143.302V104.137ZM143.899 95.2281C144.356 95.2281 144.734 94.8702 144.734 94.4327C144.734 93.9952 144.356 93.6372 143.899 93.6372C143.442 93.6372 143.064 93.9952 143.064 94.4327C143.064 94.8702 143.442 95.2281 143.899 95.2281ZM150.562 104.137H151.735V96.5008H150.562V104.137ZM151.159 95.2281C151.616 95.2281 151.994 94.8702 151.994 94.4327C151.994 93.9952 151.616 93.6372 151.159 93.6372C150.701 93.6372 150.324 93.9952 150.324 94.4327C150.324 94.8702 150.701 95.2281 151.159 95.2281ZM157.822 104.137H158.995V99.3645C158.995 98.2459 159.811 97.4554 160.725 97.4554C161.615 97.4554 162.237 98.0371 162.237 98.9071V104.137H163.43V99.1656C163.43 98.1812 164.046 97.4554 165.12 97.4554C165.955 97.4554 166.671 97.8979 166.671 99.0264V104.137H167.845V99.0264C167.845 97.2317 166.88 96.4014 165.518 96.4014C164.424 96.4014 163.624 96.9035 163.231 97.694H163.151C162.774 96.8787 162.107 96.4014 161.103 96.4014C160.109 96.4014 159.373 96.8787 159.055 97.694H158.955V96.5008H157.822V104.137ZM169.99 104.137H171.163V96.5008H169.99V104.137ZM170.586 95.2281C171.044 95.2281 171.422 94.8702 171.422 94.4327C171.422 93.9952 171.044 93.6372 170.586 93.6372C170.129 93.6372 169.751 93.9952 169.751 94.4327C169.751 94.8702 170.129 95.2281 170.586 95.2281ZM173.093 104.137H179.079V103.043H174.724V102.964L178.94 97.4355V96.5008H173.233V97.5946H177.429V97.6741L173.093 103.242V104.137ZM183.869 104.296C185.42 104.296 186.554 103.521 186.912 102.367L185.778 102.049C185.48 102.845 184.789 103.242 183.869 103.242C182.492 103.242 181.543 102.352 181.488 100.717H187.031V100.22C187.031 97.3758 185.341 96.4014 183.75 96.4014C181.682 96.4014 180.31 98.0321 180.31 100.379C180.31 102.725 181.662 104.296 183.869 104.296ZM181.488 99.7025C181.567 98.5143 182.408 97.4554 183.75 97.4554C185.023 97.4554 185.838 98.4099 185.838 99.7025H181.488ZM188.816 104.137H189.989V99.3048C189.989 98.2707 190.805 97.515 191.918 97.515C192.232 97.515 192.555 97.5747 192.634 97.5946V96.4014C192.5 96.3915 192.192 96.3815 192.018 96.3815C191.103 96.3815 190.308 96.8986 190.029 97.6543H189.95V96.5008H188.816V104.137ZM194.025 104.137H195.198V96.5008H194.025V104.137ZM194.622 95.2281C195.079 95.2281 195.457 94.8702 195.457 94.4327C195.457 93.9952 195.079 93.6372 194.622 93.6372C194.164 93.6372 193.786 93.9952 193.786 94.4327C193.786 94.8702 194.164 95.2281 194.622 95.2281ZM199.594 104.316C200.927 104.316 201.623 103.6 201.862 103.103H201.921V104.137H203.094V99.106C203.094 96.6798 201.245 96.4014 200.271 96.4014C199.117 96.4014 197.805 96.7991 197.208 98.1912L198.322 98.5889C198.58 98.0321 199.192 97.4355 200.31 97.4355C201.389 97.4355 201.921 98.0072 201.921 98.9866V99.0264C201.921 99.5932 201.344 99.5435 199.952 99.7224C198.536 99.9064 196.989 100.22 196.989 101.97C196.989 103.461 198.143 104.316 199.594 104.316ZM199.773 103.262C198.839 103.262 198.163 102.845 198.163 102.029C198.163 101.134 198.978 100.856 199.893 100.737C200.39 100.677 201.722 100.538 201.921 100.299V101.373C201.921 102.328 201.165 103.262 199.773 103.262Z" fill="#333333" fill-opacity="0.88"/>
<rect x="150" y="125.137" width="24" height="24" rx="4" fill="#F5F5F5"/>
<path d="M162 131.637C163.933 131.637 165.5 133.204 165.5 135.137C165.5 136.08 165.079 136.806 164.589 137.515C164.532 137.596 164.474 137.679 164.415 137.763C164.227 138.03 164.032 138.307 163.879 138.574C163.75 138.798 163.635 139.041 163.566 139.304H160.434C160.365 139.041 160.25 138.798 160.121 138.574C159.968 138.307 159.773 138.03 159.585 137.763C159.526 137.679 159.468 137.596 159.411 137.515C158.921 136.806 158.5 136.08 158.5 135.137C158.5 133.204 160.067 131.637 162 131.637Z" stroke="#A0A0A0" stroke-linecap="round" stroke-linejoin="round"/>
<path d="M162 142.137C161.565 142.137 161.194 141.859 161.057 141.471H162.943C162.806 141.859 162.435 142.137 162 142.137Z" stroke="#A0A0A0" stroke-width="1.33333"/>
<path fill-rule="evenodd" clip-rule="evenodd" d="M160.667 134.787C160.667 134.642 160.82 134.547 160.95 134.612C161.611 134.943 162.389 134.943 163.05 134.612C163.18 134.547 163.333 134.642 163.333 134.787V135.665C163.333 135.75 163.285 135.828 163.209 135.866C162.448 136.247 161.552 136.247 160.791 135.866C160.715 135.828 160.667 135.75 160.667 135.665V134.787Z" fill="#A0A0A0"/>
<rect x="182" y="125.137" width="24" height="24" rx="4" fill="#F5F5F5"/>
<path d="M194.667 136.471H197.333C197.702 136.471 198 136.769 198 137.137C198 137.505 197.702 137.804 197.333 137.804H194.667V140.471C194.667 140.839 194.368 141.137 194 141.137C193.632 141.137 193.333 140.839 193.333 140.471V137.804H190.667C190.298 137.804 190 137.505 190 137.137C190 136.769 190.298 136.471 190.667 136.471H193.333V133.804C193.333 133.436 193.632 133.137 194 133.137C194.368 133.137 194.667 133.436 194.667 133.804V136.471Z" fill="#A0A0A0"/>
<rect x="214" y="125.137" width="24" height="24" rx="4" fill="#F5F5F5"/>
<path d="M226.667 136.471H229.333C229.702 136.471 230 136.769 230 137.137C230 137.505 229.702 137.804 229.333 137.804H226.667V140.471C226.667 140.839 226.368 141.137 226 141.137C225.632 141.137 225.333 140.839 225.333 140.471V137.804H222.667C222.298 137.804 222 137.505 222 137.137C222 136.769 222.298 136.471 222.667 136.471H225.333V133.804C225.333 133.436 225.632 133.137 226 133.137C226.368 133.137 226.667 133.436 226.667 133.804V136.471Z" fill="#A0A0A0"/>
</g>
<path fill-rule="evenodd" clip-rule="evenodd" d="M311.2 183.6C312.606 183.6 313.954 184.158 314.948 185.152C315.942 186.146 316.5 187.494 316.5 188.9V200.035C320.91 195.537 326.392 192.235 332.43 190.441C338.469 188.647 344.864 188.419 351.015 189.78C357.166 191.14 362.869 194.044 367.587 198.217C372.305 202.391 375.884 207.697 377.985 213.635C378.24 214.296 378.36 215.002 378.337 215.71C378.315 216.419 378.15 217.115 377.854 217.759C377.558 218.402 377.135 218.98 376.611 219.458C376.088 219.935 375.474 220.303 374.806 220.539C374.137 220.775 373.429 220.875 372.721 220.832C372.014 220.79 371.322 220.605 370.687 220.291C370.052 219.976 369.487 219.538 369.024 219.001C368.562 218.464 368.212 217.839 367.995 217.165C366.395 212.643 363.598 208.64 359.903 205.582C356.207 202.524 351.751 200.527 347.01 199.801C342.268 199.076 337.419 199.651 332.978 201.465C328.538 203.279 324.673 206.263 321.795 210.1H337.7C339.106 210.1 340.454 210.658 341.448 211.652C342.442 212.646 343 213.994 343 215.4C343 216.806 342.442 218.154 341.448 219.148C340.454 220.142 339.106 220.7 337.7 220.7H311.2C309.794 220.7 308.446 220.142 307.452 219.148C306.458 218.154 305.9 216.806 305.9 215.4V188.9C305.9 187.494 306.458 186.146 307.452 185.152C308.446 184.158 309.794 183.6 311.2 183.6ZM311.242 231.602C311.899 231.37 312.594 231.27 313.289 231.307C313.984 231.344 314.665 231.518 315.293 231.818C315.921 232.118 316.484 232.539 316.949 233.057C317.415 233.574 317.773 234.179 318.005 234.835C319.605 239.357 322.402 243.36 326.097 246.418C329.793 249.476 334.249 251.473 338.99 252.199C343.732 252.924 348.581 252.349 353.021 250.535C357.462 248.721 361.327 245.737 364.205 241.9H348.3C346.894 241.9 345.546 241.342 344.552 240.348C343.558 239.354 343 238.006 343 236.6C343 235.194 343.558 233.846 344.552 232.852C345.546 231.858 346.894 231.3 348.3 231.3H374.8C376.206 231.3 377.554 231.858 378.548 232.852C379.542 233.846 380.1 235.194 380.1 236.6V263.1C380.1 264.506 379.542 265.854 378.548 266.848C377.554 267.842 376.206 268.4 374.8 268.4C373.394 268.4 372.046 267.842 371.052 266.848C370.058 265.854 369.5 264.506 369.5 263.1V251.965C365.09 256.463 359.608 259.765 353.569 261.559C347.531 263.353 341.135 263.581 334.985 262.22C328.834 260.86 323.131 257.956 318.413 253.783C313.694 249.609 310.116 244.303 308.015 238.365C307.783 237.709 307.683 237.013 307.72 236.318C307.757 235.623 307.93 234.942 308.23 234.314C308.531 233.686 308.952 233.123 309.469 232.658C309.987 232.193 310.591 231.834 311.248 231.602H311.242Z" fill="#FF6984"/>
<rect x="66" y="205.137" width="88" height="32" rx="16" fill="#FDECEF"/>
<path d="M79.036 217.113C78.8938 216.981 78.7058 216.909 78.5115 216.912C78.3172 216.915 78.1318 216.994 77.9944 217.132C77.857 217.269 77.7783 217.454 77.7748 217.649C77.7714 217.843 77.8435 218.031 77.976 218.173L80.939 221.137L77.976 224.1C77.9023 224.169 77.8432 224.252 77.8022 224.344C77.7612 224.436 77.7392 224.535 77.7374 224.636C77.7356 224.736 77.7542 224.836 77.7919 224.93C77.8296 225.023 77.8858 225.108 77.957 225.179C78.0282 225.25 78.113 225.307 78.2064 225.344C78.2998 225.382 78.3998 225.401 78.5005 225.399C78.6012 225.397 78.7006 225.375 78.7926 225.334C78.8845 225.293 78.9674 225.234 79.036 225.16L82 222.197L84.963 225.161C85.1044 225.298 85.2938 225.374 85.4905 225.372C85.6871 225.37 85.8753 225.292 86.0144 225.153C86.1535 225.014 86.2325 224.826 86.2343 224.629C86.2361 224.432 86.1606 224.243 86.024 224.101L83.061 221.137L86.024 218.173C86.0977 218.105 86.1568 218.022 86.1978 217.93C86.2388 217.838 86.2608 217.738 86.2626 217.638C86.2644 217.537 86.2459 217.437 86.2081 217.344C86.1704 217.25 86.1143 217.165 86.0431 217.094C85.9718 217.023 85.887 216.967 85.7936 216.929C85.7002 216.891 85.6002 216.873 85.4995 216.875C85.3988 216.876 85.2995 216.898 85.2075 216.939C85.1155 216.98 85.0327 217.04 84.964 217.113L82 220.076L79.036 217.113Z" fill="#E21B1B"/>
<path d="M102.176 226.296C103.866 226.296 104.98 225.262 105.179 223.91H104.006C103.787 224.745 103.091 225.242 102.176 225.242C100.784 225.242 99.8892 224.089 99.8892 222.319C99.8892 220.589 100.804 219.455 102.176 219.455C103.21 219.455 103.827 220.092 104.006 220.788H105.179C104.98 219.356 103.767 218.401 102.156 218.401C100.088 218.401 98.7159 220.032 98.7159 222.359C98.7159 224.646 100.028 226.296 102.176 226.296ZM106.894 226.137H108.067V218.501H106.894V226.137ZM107.491 217.228C107.948 217.228 108.326 216.87 108.326 216.433C108.326 215.995 107.948 215.637 107.491 215.637C107.033 215.637 106.656 215.995 106.656 216.433C106.656 216.87 107.033 217.228 107.491 217.228ZM112.464 226.316C113.796 226.316 114.492 225.6 114.731 225.103H114.79V226.137H115.964V221.106C115.964 218.68 114.114 218.401 113.14 218.401C111.986 218.401 110.674 218.799 110.077 220.191L111.191 220.589C111.449 220.032 112.061 219.436 113.18 219.436C114.258 219.436 114.79 220.007 114.79 220.987V221.026C114.79 221.593 114.214 221.543 112.822 221.722C111.405 221.906 109.858 222.22 109.858 223.97C109.858 225.461 111.012 226.316 112.464 226.316ZM112.643 225.262C111.708 225.262 111.032 224.845 111.032 224.029C111.032 223.134 111.847 222.856 112.762 222.737C113.259 222.677 114.591 222.538 114.79 222.299V223.373C114.79 224.328 114.035 225.262 112.643 225.262ZM123.514 220.211C123.146 219.127 122.321 218.401 120.81 218.401C119.199 218.401 118.006 219.316 118.006 220.609C118.006 221.663 118.632 222.369 120.034 222.697L121.307 222.995C122.077 223.174 122.44 223.542 122.44 224.069C122.44 224.725 121.744 225.262 120.651 225.262C119.691 225.262 119.089 224.85 118.881 224.029L117.767 224.308C118.04 225.605 119.109 226.296 120.67 226.296C122.445 226.296 123.653 225.327 123.653 224.009C123.653 222.945 122.987 222.274 121.625 221.941L120.491 221.663C119.587 221.439 119.179 221.136 119.179 220.549C119.179 219.893 119.875 219.416 120.81 219.416C121.834 219.416 122.256 219.982 122.46 220.509L123.514 220.211ZM128.741 218.501H127.11V216.671H125.937V218.501H124.783V219.495H125.937V224.268C125.937 225.6 127.01 226.237 128.005 226.237C128.442 226.237 128.721 226.157 128.88 226.097L128.641 225.043C128.542 225.063 128.383 225.103 128.124 225.103C127.607 225.103 127.11 224.944 127.11 223.95V219.495H128.741V218.501ZM132.753 226.316C134.085 226.316 134.781 225.6 135.02 225.103H135.079V226.137H136.253V221.106C136.253 218.68 134.403 218.401 133.429 218.401C132.275 218.401 130.963 218.799 130.366 220.191L131.48 220.589C131.738 220.032 132.35 219.436 133.469 219.436C134.547 219.436 135.079 220.007 135.079 220.987V221.026C135.079 221.593 134.503 221.543 133.111 221.722C131.694 221.906 130.148 222.22 130.148 223.97C130.148 225.461 131.301 226.316 132.753 226.316ZM132.932 225.262C131.997 225.262 131.321 224.845 131.321 224.029C131.321 223.134 132.136 222.856 133.051 222.737C133.548 222.677 134.881 222.538 135.079 222.299V223.373C135.079 224.328 134.324 225.262 132.932 225.262Z" fill="#E21B1B"/>
<rect x="66.5" y="205.637" width="87" height="31" rx="15.5" stroke="#E60A0A" stroke-opacity="0.32"/>
<g filter="url(#filter4_d)">
<rect x="444" y="16.1372" width="162" height="76" rx="4" fill="#FFE9E2"/>
<path d="M460.193 32.1372H461.466C461.088 30.1685 459.438 28.8162 457.29 28.8162C454.68 28.8162 452.835 30.8247 452.835 34.0463C452.835 37.2679 454.665 39.2764 457.369 39.2764C459.795 39.2764 461.526 37.6606 461.526 35.14V34.0463H457.648V35.14H460.332C460.298 36.9696 459.094 38.123 457.369 38.123C455.48 38.123 454.028 36.6912 454.028 34.0463C454.028 31.4014 455.48 29.9696 457.29 29.9696C458.761 29.9696 459.761 30.7998 460.193 32.1372ZM468.291 36.015C468.291 37.4469 467.197 38.1031 466.322 38.1031C465.347 38.1031 464.651 37.3872 464.651 36.2736V31.5008H463.478V36.3531C463.478 38.302 464.512 39.2366 465.944 39.2366C467.097 39.2366 467.853 38.6202 468.211 37.8446H468.291V39.1372H469.464V31.5008H468.291V36.015ZM472.786 28.9554H471.613V39.1372H472.786V28.9554ZM477.182 39.3162C478.515 39.3162 479.211 38.6003 479.449 38.1031H479.509V39.1372H480.682V34.106C480.682 31.6798 478.833 31.4014 477.858 31.4014C476.705 31.4014 475.393 31.7991 474.796 33.1912L475.91 33.5889C476.168 33.0321 476.78 32.4355 477.898 32.4355C478.977 32.4355 479.509 33.0072 479.509 33.9866V34.0264C479.509 34.5932 478.932 34.5435 477.54 34.7224C476.123 34.9064 474.577 35.2196 474.577 36.9696C474.577 38.4611 475.731 39.3162 477.182 39.3162ZM477.361 38.2622C476.427 38.2622 475.751 37.8446 475.751 37.0293C475.751 36.1344 476.566 35.856 477.481 35.7366C477.978 35.677 479.31 35.5378 479.509 35.2991V36.373C479.509 37.3275 478.753 38.2622 477.361 38.2622ZM488.233 33.2111C487.865 32.1273 487.04 31.4014 485.528 31.4014C483.918 31.4014 482.724 32.3162 482.724 33.6088C482.724 34.6628 483.351 35.3687 484.753 35.6969L486.026 35.9952C486.796 36.1741 487.159 36.542 487.159 37.069C487.159 37.7253 486.463 38.2622 485.369 38.2622C484.41 38.2622 483.808 37.8496 483.599 37.0293L482.486 37.3077C482.759 38.6052 483.828 39.2963 485.389 39.2963C487.164 39.2963 488.372 38.3268 488.372 37.0094C488.372 35.9454 487.706 35.2743 486.344 34.9412L485.21 34.6628C484.305 34.4391 483.898 34.1358 483.898 33.5491C483.898 32.8929 484.594 32.4156 485.528 32.4156C486.553 32.4156 486.975 32.9824 487.179 33.5094L488.233 33.2111ZM489.92 39.1372H495.905V38.0435H491.55V37.9639L495.766 32.4355V31.5008H490.059V32.5946H494.255V32.6741L489.92 38.2423V39.1372ZM501.431 39.1372H507.417V38.0435H503.062V37.9639L507.278 32.4355V31.5008H501.57V32.5946H505.767V32.6741L501.431 38.2423V39.1372ZM513.162 39.1372H514.335V31.5008H513.162V39.1372ZM513.758 30.2281C514.216 30.2281 514.594 29.8702 514.594 29.4327C514.594 28.9952 514.216 28.6372 513.758 28.6372C513.301 28.6372 512.923 28.9952 512.923 29.4327C512.923 29.8702 513.301 30.2281 513.758 30.2281ZM517.657 34.5435C517.657 33.2111 518.483 32.4554 519.606 32.4554C520.695 32.4554 521.356 33.1663 521.356 34.3645V39.1372H522.529V34.2849C522.529 32.3361 521.49 31.4014 519.944 31.4014C518.791 31.4014 518.075 31.9185 517.717 32.694H517.618V31.5008H516.484V39.1372H517.657V34.5435ZM527.557 39.2963C529.029 39.2963 529.526 38.3815 529.784 37.9639H529.923V39.1372H531.057V28.9554H529.884V32.7139H529.784C529.526 32.3162 529.068 31.4014 527.577 31.4014C525.648 31.4014 524.316 32.9327 524.316 35.3389C524.316 37.765 525.648 39.2963 527.557 39.2963ZM527.716 38.2423C526.244 38.2423 525.489 36.9497 525.489 35.319C525.489 33.7082 526.225 32.4554 527.716 32.4554C529.148 32.4554 529.904 33.6088 529.904 35.319C529.904 37.0491 529.128 38.2423 527.716 38.2423ZM534.124 42.0008C535.183 42.0008 535.929 41.4391 536.372 40.2508L539.623 31.5207L538.34 31.5008L536.232 37.5861H536.153L534.045 31.5008H532.772L535.596 39.177L535.377 39.7736C534.95 40.9369 534.423 41.0463 533.568 40.8275L533.269 41.8616C533.389 41.9213 533.727 42.0008 534.124 42.0008ZM541.175 39.1372H542.349V36.2785L543.169 35.5179L546.028 39.1372H547.519L544.054 34.7622L547.281 31.5008H545.829L542.488 34.9014H542.349V28.9554H541.175V39.1372ZM551.038 39.3162C552.37 39.3162 553.066 38.6003 553.305 38.1031H553.365V39.1372H554.538V34.106C554.538 31.6798 552.688 31.4014 551.714 31.4014C550.561 31.4014 549.248 31.7991 548.651 33.1912L549.765 33.5889C550.024 33.0321 550.635 32.4355 551.754 32.4355C552.833 32.4355 553.365 33.0072 553.365 33.9866V34.0264C553.365 34.5932 552.788 34.5435 551.396 34.7224C549.979 34.9064 548.433 35.2196 548.433 36.9696C548.433 38.4611 549.586 39.3162 551.038 39.3162ZM551.217 38.2622C550.282 38.2622 549.606 37.8446 549.606 37.0293C549.606 36.1344 550.421 35.856 551.336 35.7366C551.833 35.677 553.166 35.5378 553.365 35.2991V36.373C553.365 37.3275 552.609 38.2622 551.217 38.2622ZM560.398 39.1372H566.384V38.0435H562.029V37.9639L566.245 32.4355V31.5008H560.537V32.5946H564.733V32.6741L560.398 38.2423V39.1372ZM454.804 59.1372H455.957L457.628 53.2707H457.747L459.418 59.1372H460.571L462.898 51.5008H461.665L460.014 57.3275H459.935L458.324 51.5008H457.071L455.44 57.3474H455.361L453.71 51.5008H452.477L454.804 59.1372ZM466.696 59.3162C468.028 59.3162 468.724 58.6003 468.963 58.1031H469.023V59.1372H470.196V54.106C470.196 51.6798 468.347 51.4014 467.372 51.4014C466.219 51.4014 464.906 51.7991 464.31 53.1912L465.423 53.5889C465.682 53.0321 466.293 52.4355 467.412 52.4355C468.491 52.4355 469.023 53.0072 469.023 53.9866V54.0264C469.023 54.5932 468.446 54.5435 467.054 54.7224C465.637 54.9064 464.091 55.2196 464.091 56.9696C464.091 58.4611 465.244 59.3162 466.696 59.3162ZM466.875 58.2622C465.94 58.2622 465.264 57.8446 465.264 57.0293C465.264 56.1344 466.08 55.856 466.994 55.7366C467.491 55.677 468.824 55.5378 469.023 55.2991V56.373C469.023 57.3275 468.267 58.2622 466.875 58.2622ZM472.338 59.1372H473.511V54.3048C473.511 53.2707 474.326 52.515 475.44 52.515C475.753 52.515 476.076 52.5747 476.156 52.5946V51.4014C476.021 51.3915 475.713 51.3815 475.539 51.3815C474.624 51.3815 473.829 51.8986 473.551 52.6543H473.471V51.5008H472.338V59.1372ZM477.328 59.1372H483.314V58.0435H478.958V57.9639L483.174 52.4355V51.5008H477.467V52.5946H481.663V52.6741L477.328 58.2423V59.1372ZM485.876 62.0008C486.935 62.0008 487.681 61.4391 488.124 60.2508L491.375 51.5207L490.092 51.5008L487.984 57.5861H487.905L485.797 51.5008H484.524L487.348 59.177L487.129 59.7736C486.702 60.9369 486.175 61.0463 485.32 60.8275L485.021 61.8616C485.141 61.9213 485.479 62.0008 485.876 62.0008ZM494.657 59.1372H495.811L497.481 53.2707H497.601L499.271 59.1372H500.425L502.751 51.5008H501.518L499.868 57.3275H499.788L498.177 51.5008H496.925L495.294 57.3474H495.214L493.564 51.5008H492.331L494.657 59.1372ZM506.55 59.3162C507.882 59.3162 508.578 58.6003 508.817 58.1031H508.876V59.1372H510.05V54.106C510.05 51.6798 508.2 51.4014 507.226 51.4014C506.072 51.4014 504.76 51.7991 504.163 53.1912L505.277 53.5889C505.535 53.0321 506.147 52.4355 507.265 52.4355C508.344 52.4355 508.876 53.0072 508.876 53.9866V54.0264C508.876 54.5932 508.3 54.5435 506.907 54.7224C505.491 54.9064 503.944 55.2196 503.944 56.9696C503.944 58.4611 505.098 59.3162 506.55 59.3162ZM506.729 58.2622C505.794 58.2622 505.118 57.8446 505.118 57.0293C505.118 56.1344 505.933 55.856 506.848 55.7366C507.345 55.677 508.677 55.5378 508.876 55.2991V56.373C508.876 57.3275 508.121 58.2622 506.729 58.2622ZM512.191 59.1372H513.364V54.3645C513.364 53.2459 514.18 52.4554 515.094 52.4554C515.984 52.4554 516.606 53.0371 516.606 53.9071V59.1372H517.799V54.1656C517.799 53.1812 518.415 52.4554 519.489 52.4554C520.325 52.4554 521.04 52.8979 521.04 54.0264V59.1372H522.214V54.0264C522.214 52.2317 521.249 51.4014 519.887 51.4014C518.793 51.4014 517.993 51.9035 517.6 52.694H517.521C517.143 51.8787 516.477 51.4014 515.472 51.4014C514.478 51.4014 513.742 51.8787 513.424 52.694H513.325V51.5008H512.191V59.1372ZM524.359 59.1372H525.532V51.5008H524.359V59.1372ZM524.956 50.2281C525.413 50.2281 525.791 49.8702 525.791 49.4327C525.791 48.9952 525.413 48.6372 524.956 48.6372C524.498 48.6372 524.12 48.9952 524.12 49.4327C524.12 49.8702 524.498 50.2281 524.956 50.2281ZM531.619 59.1372H532.792V51.5008H531.619V59.1372ZM532.215 50.2281C532.673 50.2281 533.051 49.8702 533.051 49.4327C533.051 48.9952 532.673 48.6372 532.215 48.6372C531.758 48.6372 531.38 48.9952 531.38 49.4327C531.38 49.8702 531.758 50.2281 532.215 50.2281ZM538.879 59.1372H540.052V56.2785L540.872 55.5179L543.731 59.1372H545.222L541.757 54.7622L544.984 51.5008H543.532L540.191 54.9014H540.052V48.9554H538.879V59.1372ZM548.741 59.3162C550.073 59.3162 550.769 58.6003 551.008 58.1031H551.068V59.1372H552.241V54.106C552.241 51.6798 550.392 51.4014 549.417 51.4014C548.264 51.4014 546.951 51.7991 546.355 53.1912L547.468 53.5889C547.727 53.0321 548.338 52.4355 549.457 52.4355C550.536 52.4355 551.068 53.0072 551.068 53.9866V54.0264C551.068 54.5932 550.491 54.5435 549.099 54.7224C547.682 54.9064 546.136 55.2196 546.136 56.9696C546.136 58.4611 547.289 59.3162 548.741 59.3162ZM548.92 58.2622C547.985 58.2622 547.309 57.8446 547.309 57.0293C547.309 56.1344 548.124 55.856 549.039 55.7366C549.536 55.677 550.869 55.5378 551.068 55.2991V56.373C551.068 57.3275 550.312 58.2622 548.92 58.2622ZM559.792 53.2111C559.424 52.1273 558.598 51.4014 557.087 51.4014C555.476 51.4014 554.283 52.3162 554.283 53.6088C554.283 54.6628 554.909 55.3687 556.311 55.6969L557.584 55.9952C558.355 56.1741 558.718 56.542 558.718 57.069C558.718 57.7253 558.022 58.2622 556.928 58.2622C555.968 58.2622 555.367 57.8496 555.158 57.0293L554.044 57.3077C554.318 58.6052 555.387 59.2963 556.948 59.2963C558.723 59.2963 559.931 58.3268 559.931 57.0094C559.931 55.9454 559.265 55.2743 557.902 54.9412L556.769 54.6628C555.864 54.4391 555.456 54.1358 555.456 53.5491C555.456 52.8929 556.152 52.4156 557.087 52.4156C558.111 52.4156 558.534 52.9824 558.738 53.5094L559.792 53.2111ZM561.478 59.1372H567.464V58.0435H563.109V57.9639L567.325 52.4355V51.5008H561.617V52.5946H565.813V52.6741L561.478 58.2423V59.1372ZM571.518 59.3162C572.851 59.3162 573.547 58.6003 573.785 58.1031H573.845V59.1372H575.018V54.106C575.018 51.6798 573.169 51.4014 572.194 51.4014C571.041 51.4014 569.729 51.7991 569.132 53.1912L570.246 53.5889C570.504 53.0321 571.116 52.4355 572.234 52.4355C573.313 52.4355 573.845 53.0072 573.845 53.9866V54.0264C573.845 54.5932 573.268 54.5435 571.876 54.7224C570.459 54.9064 568.913 55.2196 568.913 56.9696C568.913 58.4611 570.067 59.3162 571.518 59.3162ZM571.697 58.2622C570.763 58.2622 570.086 57.8446 570.086 57.0293C570.086 56.1344 570.902 55.856 571.817 55.7366C572.314 55.677 573.646 55.5378 573.845 55.2991V56.373C573.845 57.3275 573.089 58.2622 571.697 58.2622ZM453.074 71.5008V79.694C453.074 80.4696 452.756 80.9071 452.04 80.9071H451.821V82.0008H452.06C453.531 82.0008 454.247 81.106 454.247 79.694V71.5008H453.074ZM453.651 70.2281C454.108 70.2281 454.486 69.8702 454.486 69.4327C454.486 68.9952 454.108 68.6372 453.651 68.6372C453.193 68.6372 452.815 68.9952 452.815 69.4327C452.815 69.8702 453.193 70.2281 453.651 70.2281ZM458.643 79.3162C459.976 79.3162 460.672 78.6003 460.91 78.1031H460.97V79.1372H462.143V74.106C462.143 71.6798 460.294 71.4014 459.319 71.4014C458.166 71.4014 456.854 71.7991 456.257 73.1912L457.371 73.5889C457.629 73.0321 458.241 72.4355 459.359 72.4355C460.438 72.4355 460.97 73.0072 460.97 73.9866V74.0264C460.97 74.5932 460.393 74.5435 459.001 74.7224C457.584 74.9064 456.038 75.2196 456.038 76.9696C456.038 78.4611 457.192 79.3162 458.643 79.3162ZM458.822 78.2622C457.888 78.2622 457.211 77.8446 457.211 77.0293C457.211 76.1344 458.027 75.856 458.942 75.7366C459.439 75.677 460.771 75.5378 460.97 75.2991V76.373C460.97 77.3275 460.214 78.2622 458.822 78.2622ZM467.367 82.1599C469.197 82.1599 470.668 81.3247 470.668 79.356V71.5008H469.535V72.7139H469.415C469.157 72.3162 468.68 71.4014 467.188 71.4014C465.259 71.4014 463.927 72.9327 463.927 75.2793C463.927 77.6656 465.319 79.0179 467.168 79.0179C468.66 79.0179 469.137 78.1429 469.396 77.7253H469.495V79.2764C469.495 80.5491 468.6 81.1258 467.367 81.1258C465.98 81.1258 465.493 80.395 465.18 79.9724L464.245 80.6287C464.722 81.4291 465.662 82.1599 467.367 82.1599ZM467.327 77.9639C465.856 77.9639 465.1 76.8503 465.1 75.2594C465.1 73.7082 465.836 72.4554 467.327 72.4554C468.759 72.4554 469.515 73.6088 469.515 75.2594C469.515 76.9497 468.739 77.9639 467.327 77.9639ZM473.989 68.9554H472.816V79.1372H473.989V68.9554ZM478.385 79.3162C479.718 79.3162 480.414 78.6003 480.653 78.1031H480.712V79.1372H481.885V74.106C481.885 71.6798 480.036 71.4014 479.062 71.4014C477.908 71.4014 476.596 71.7991 475.999 73.1912L477.113 73.5889C477.371 73.0321 477.983 72.4355 479.101 72.4355C480.18 72.4355 480.712 73.0072 480.712 73.9866V74.0264C480.712 74.5932 480.135 74.5435 478.743 74.7224C477.327 74.9064 475.78 75.2196 475.78 76.9696C475.78 78.4611 476.934 79.3162 478.385 79.3162ZM478.564 78.2622C477.63 78.2622 476.954 77.8446 476.954 77.0293C476.954 76.1344 477.769 75.856 478.684 75.7366C479.181 75.677 480.513 75.5378 480.712 75.2991V76.373C480.712 77.3275 479.956 78.2622 478.564 78.2622ZM485.2 74.5435C485.2 73.2111 486.026 72.4554 487.149 72.4554C488.238 72.4554 488.899 73.1663 488.899 74.3645V79.1372H490.072V74.2849C490.072 72.3361 489.033 71.4014 487.487 71.4014C486.334 71.4014 485.618 71.9185 485.26 72.694H485.161V71.5008H484.027V79.1372H485.2V74.5435ZM494.464 79.3162C495.796 79.3162 496.492 78.6003 496.731 78.1031H496.79V79.0577C495.95 79.5896 495.617 80.2061 495.617 80.8077C495.617 81.6628 496.214 82.1202 497.029 82.1202C497.506 82.1202 497.864 81.9611 498.083 81.8219L498.003 80.9469C497.864 81.0264 497.626 81.1258 497.327 81.1258C496.93 81.1258 496.81 80.9469 496.81 80.6486C496.81 80.052 497.367 79.5747 497.964 79.1372V74.106C497.964 71.6798 496.114 71.4014 495.14 71.4014C493.986 71.4014 492.674 71.7991 492.077 73.1912L493.191 73.5889C493.449 73.0321 494.061 72.4355 495.18 72.4355C496.258 72.4355 496.79 73.0072 496.79 73.9866V74.0264C496.79 74.5932 496.214 74.5435 494.822 74.7224C493.405 74.9064 491.858 75.2196 491.858 76.9696C491.858 78.4611 493.012 79.3162 494.464 79.3162ZM494.643 78.2622C493.708 78.2622 493.032 77.8446 493.032 77.0293C493.032 76.1344 493.847 75.856 494.762 75.7366C495.259 75.677 496.591 75.5378 496.79 75.2991V76.373C496.79 77.3275 496.035 78.2622 494.643 78.2622Z" fill="#333333" fill-opacity="0.88"/>
<rect x="518" y="100.137" width="24" height="24" rx="4" fill="#F5F5F5"/>
<path d="M530 106.637C531.933 106.637 533.5 108.204 533.5 110.137C533.5 111.08 533.079 111.806 532.589 112.515C532.532 112.596 532.474 112.679 532.415 112.763C532.227 113.03 532.032 113.307 531.879 113.574C531.75 113.798 531.635 114.041 531.566 114.304H528.434C528.365 114.041 528.25 113.798 528.121 113.574C527.968 113.307 527.773 113.03 527.585 112.763C527.526 112.679 527.468 112.596 527.411 112.515C526.921 111.806 526.5 111.08 526.5 110.137C526.5 108.204 528.067 106.637 530 106.637Z" stroke="#A0A0A0" stroke-linecap="round" stroke-linejoin="round"/>
<path d="M530 117.137C529.565 117.137 529.194 116.859 529.057 116.471H530.943C530.806 116.859 530.435 117.137 530 117.137Z" stroke="#A0A0A0" stroke-width="1.33333"/>
<path fill-rule="evenodd" clip-rule="evenodd" d="M528.667 109.787C528.667 109.642 528.82 109.547 528.95 109.612C529.611 109.943 530.389 109.943 531.05 109.612C531.18 109.547 531.333 109.642 531.333 109.787V110.665C531.333 110.75 531.285 110.828 531.209 110.866C530.448 111.247 529.552 111.247 528.791 110.866C528.715 110.828 528.667 110.75 528.667 110.665V109.787Z" fill="#A0A0A0"/>
<rect x="550" y="100.137" width="24" height="24" rx="4" fill="#F5F5F5"/>
<path d="M562.667 111.471H565.333C565.702 111.471 566 111.769 566 112.137C566 112.505 565.702 112.804 565.333 112.804H562.667V115.471C562.667 115.839 562.368 116.137 562 116.137C561.632 116.137 561.333 115.839 561.333 115.471V112.804H558.667C558.298 112.804 558 112.505 558 112.137C558 111.769 558.298 111.471 558.667 111.471H561.333V108.804C561.333 108.436 561.632 108.137 562 108.137C562.368 108.137 562.667 108.436 562.667 108.804V111.471Z" fill="#A0A0A0"/>
<rect x="582" y="100.137" width="24" height="24" rx="4" fill="#F5F5F5"/>
<path d="M594.667 111.471H597.333C597.702 111.471 598 111.769 598 112.137C598 112.505 597.702 112.804 597.333 112.804H594.667V115.471C594.667 115.839 594.368 116.137 594 116.137C593.632 116.137 593.333 115.839 593.333 115.471V112.804H590.667C590.298 112.804 590 112.505 590 112.137C590 111.769 590.298 111.471 590.667 111.471H593.333V108.804C593.333 108.436 593.632 108.137 594 108.137C594.368 108.137 594.667 108.436 594.667 108.804V111.471Z" fill="#A0A0A0"/>
</g>
<rect x="279" y="40.1372" width="105" height="32" rx="16" fill="#FDECEF"/>
<path d="M292.036 52.1132C291.894 51.9807 291.706 51.9086 291.511 51.912C291.317 51.9155 291.132 51.9942 290.994 52.1316C290.857 52.269 290.778 52.4544 290.775 52.6487C290.771 52.843 290.844 53.031 290.976 53.1732L293.939 56.1372L290.976 59.1002C290.902 59.1689 290.843 59.2517 290.802 59.3437C290.761 59.4357 290.739 59.535 290.737 59.6357C290.736 59.7364 290.754 59.8364 290.792 59.9298C290.83 60.0232 290.886 60.108 290.957 60.1793C291.028 60.2505 291.113 60.3066 291.206 60.3443C291.3 60.3821 291.4 60.4006 291.501 60.3988C291.601 60.397 291.701 60.375 291.793 60.334C291.885 60.293 291.967 60.2339 292.036 60.1602L295 57.1972L297.963 60.1612C298.104 60.2979 298.294 60.3736 298.49 60.372C298.687 60.3704 298.875 60.2916 299.014 60.1526C299.154 60.0136 299.232 59.8255 299.234 59.6289C299.236 59.4322 299.161 59.2427 299.024 59.1012L296.061 56.1372L299.024 53.1732C299.098 53.1046 299.157 53.0218 299.198 52.9298C299.239 52.8378 299.261 52.7384 299.263 52.6377C299.264 52.537 299.246 52.437 299.208 52.3436C299.17 52.2502 299.114 52.1654 299.043 52.0942C298.972 52.023 298.887 51.9668 298.794 51.9291C298.7 51.8914 298.6 51.8729 298.499 51.8746C298.399 51.8764 298.299 51.8984 298.207 51.9394C298.115 51.9804 298.033 52.0395 297.964 52.1132L295 55.0762L292.036 52.1132Z" fill="#E21B1B"/>
<path d="M317.483 55.2111C317.115 54.1273 316.29 53.4014 314.778 53.4014C313.168 53.4014 311.974 54.3162 311.974 55.6088C311.974 56.6628 312.601 57.3687 314.003 57.6969L315.276 57.9952C316.046 58.1741 316.409 58.542 316.409 59.069C316.409 59.7253 315.713 60.2622 314.619 60.2622C313.66 60.2622 313.058 59.8496 312.849 59.0293L311.736 59.3077C312.009 60.6052 313.078 61.2963 314.639 61.2963C316.414 61.2963 317.622 60.3268 317.622 59.0094C317.622 57.9454 316.956 57.2743 315.594 56.9412L314.46 56.6628C313.555 56.4391 313.148 56.1358 313.148 55.5491C313.148 54.8929 313.844 54.4156 314.778 54.4156C315.803 54.4156 316.225 54.9824 316.429 55.5094L317.483 55.2111ZM322.59 61.2963C324.141 61.2963 325.275 60.5207 325.633 59.3673L324.499 59.0491C324.201 59.8446 323.51 60.2423 322.59 60.2423C321.213 60.2423 320.263 59.3524 320.209 57.7168H325.752V57.2196C325.752 54.3758 324.062 53.4014 322.471 53.4014C320.403 53.4014 319.03 55.0321 319.03 57.3787C319.03 59.7253 320.383 61.2963 322.59 61.2963ZM320.209 56.7025C320.288 55.5143 321.128 54.4554 322.471 54.4554C323.743 54.4554 324.559 55.4099 324.559 56.7025H320.209ZM327.537 61.1372H328.71V56.3048C328.71 55.2707 329.525 54.515 330.639 54.515C330.952 54.515 331.275 54.5747 331.355 54.5946V53.4014C331.221 53.3915 330.912 53.3815 330.738 53.3815C329.824 53.3815 329.028 53.8986 328.75 54.6543H328.67V53.5008H327.537V61.1372ZM336.464 61.1372H342.45V60.0435H338.095V59.9639L342.311 54.4355V53.5008H336.604V54.5946H340.8V54.6741L336.464 60.2423V61.1372ZM339.388 52.2281C339.845 52.2281 340.223 51.8702 340.223 51.4327C340.223 50.9952 339.845 50.6372 339.388 50.6372C338.93 50.6372 338.553 50.9952 338.553 51.4327C338.553 51.8702 338.93 52.2281 339.388 52.2281ZM347.141 61.2963C349.209 61.2963 350.601 59.7253 350.601 57.3588C350.601 54.9724 349.209 53.4014 347.141 53.4014C345.073 53.4014 343.681 54.9724 343.681 57.3588C343.681 59.7253 345.073 61.2963 347.141 61.2963ZM347.141 60.2423C345.57 60.2423 344.854 58.89 344.854 57.3588C344.854 55.8275 345.57 54.4554 347.141 54.4554C348.712 54.4554 349.428 55.8275 349.428 57.3588C349.428 58.89 348.712 60.2423 347.141 60.2423ZM346.604 52.4668H347.638L349.189 50.1599H347.817L346.604 52.4668ZM354.659 54.7736L353.566 55.1862V50.9554H352.392V55.6337L351.298 56.0463V56.9213L352.392 56.5087V61.1372H353.566V56.0612L354.659 55.6486V54.7736ZM359.036 53.5008H357.405V51.6713H356.232V53.5008H355.078V54.4952H356.232V59.2679C356.232 60.6003 357.305 61.2366 358.3 61.2366C358.737 61.2366 359.016 61.1571 359.175 61.0974L358.936 60.0435C358.837 60.0633 358.678 60.1031 358.419 60.1031C357.902 60.1031 357.405 59.944 357.405 58.9497V54.4952H359.036V53.5008ZM361.556 64.0008C362.615 64.0008 363.361 63.4391 363.803 62.2508L367.055 53.5207L365.772 53.5008L363.664 59.5861H363.585L361.477 53.5008H360.204L363.028 61.177L362.809 61.7736C362.381 62.9369 361.854 63.0463 360.999 62.8275L360.701 63.8616C360.82 63.9213 361.158 64.0008 361.556 64.0008Z" fill="#E21B1B"/>
<rect x="279.5" y="40.6372" width="104" height="31" rx="15.5" stroke="#E60A0A" stroke-opacity="0.32"/>
<rect x="308" y="364.137" width="94" height="32" rx="16" fill="#FDECEF"/>
<path d="M321.036 376.113C320.894 375.981 320.706 375.909 320.511 375.912C320.317 375.915 320.132 375.994 319.994 376.132C319.857 376.269 319.778 376.454 319.775 376.649C319.771 376.843 319.844 377.031 319.976 377.173L322.939 380.137L319.976 383.1C319.902 383.169 319.843 383.252 319.802 383.344C319.761 383.436 319.739 383.535 319.737 383.636C319.736 383.736 319.754 383.836 319.792 383.93C319.83 384.023 319.886 384.108 319.957 384.179C320.028 384.25 320.113 384.307 320.206 384.344C320.3 384.382 320.4 384.401 320.501 384.399C320.601 384.397 320.701 384.375 320.793 384.334C320.885 384.293 320.967 384.234 321.036 384.16L324 381.197L326.963 384.161C327.104 384.298 327.294 384.374 327.49 384.372C327.687 384.37 327.875 384.292 328.014 384.153C328.154 384.014 328.232 383.826 328.234 383.629C328.236 383.432 328.161 383.243 328.024 383.101L325.061 380.137L328.024 377.173C328.098 377.105 328.157 377.022 328.198 376.93C328.239 376.838 328.261 376.738 328.263 376.638C328.264 376.537 328.246 376.437 328.208 376.344C328.17 376.25 328.114 376.165 328.043 376.094C327.972 376.023 327.887 375.967 327.794 375.929C327.7 375.891 327.6 375.873 327.499 375.875C327.399 375.876 327.299 375.898 327.207 375.939C327.115 375.98 327.033 376.04 326.964 376.113L324 379.076L321.036 376.113Z" fill="#E21B1B"/>
<path d="M343.957 385.296C345.429 385.296 345.926 384.382 346.185 383.964H346.324V385.137H347.457V374.955H346.284V378.714H346.185C345.926 378.316 345.469 377.401 343.977 377.401C342.048 377.401 340.716 378.933 340.716 381.339C340.716 383.765 342.048 385.296 343.957 385.296ZM344.116 384.242C342.645 384.242 341.889 382.95 341.889 381.319C341.889 379.708 342.625 378.455 344.116 378.455C345.548 378.455 346.304 379.609 346.304 381.319C346.304 383.049 345.528 384.242 344.116 384.242ZM352.971 385.296C354.522 385.296 355.656 384.521 356.013 383.367L354.88 383.049C354.582 383.845 353.891 384.242 352.971 384.242C351.594 384.242 350.644 383.352 350.589 381.717H356.133V381.22C356.133 378.376 354.442 377.401 352.852 377.401C350.783 377.401 349.411 379.032 349.411 381.379C349.411 383.725 350.763 385.296 352.971 385.296ZM350.589 380.703C350.669 379.514 351.509 378.455 352.852 378.455C354.124 378.455 354.94 379.41 354.94 380.703H350.589ZM363.327 379.211C362.959 378.127 362.134 377.401 360.622 377.401C359.011 377.401 357.818 378.316 357.818 379.609C357.818 380.663 358.445 381.369 359.847 381.697L361.119 381.995C361.89 382.174 362.253 382.542 362.253 383.069C362.253 383.725 361.557 384.262 360.463 384.262C359.504 384.262 358.902 383.85 358.693 383.029L357.58 383.308C357.853 384.605 358.922 385.296 360.483 385.296C362.258 385.296 363.466 384.327 363.466 383.009C363.466 381.945 362.8 381.274 361.438 380.941L360.304 380.663C359.399 380.439 358.991 380.136 358.991 379.549C358.991 378.893 359.688 378.416 360.622 378.416C361.646 378.416 362.069 378.982 362.273 379.509L363.327 379.211ZM368.434 385.296C369.985 385.296 371.118 384.521 371.476 383.367L370.343 383.049C370.045 383.845 369.354 384.242 368.434 384.242C367.057 384.242 366.107 383.352 366.052 381.717H371.596V381.22C371.596 378.376 369.905 377.401 368.314 377.401C366.246 377.401 364.874 379.032 364.874 381.379C364.874 383.725 366.226 385.296 368.434 385.296ZM366.052 380.703C366.132 379.514 366.972 378.455 368.314 378.455C369.587 378.455 370.403 379.41 370.403 380.703H366.052ZM373.381 385.137H374.554V380.305C374.554 379.271 375.369 378.515 376.483 378.515C376.796 378.515 377.119 378.575 377.199 378.595V377.401C377.064 377.391 376.756 377.382 376.582 377.382C375.667 377.382 374.872 377.899 374.594 378.654H374.514V377.501H373.381V385.137ZM379.578 388.001C380.637 388.001 381.382 387.439 381.825 386.251L385.076 377.521L383.794 377.501L381.686 383.586H381.606L379.498 377.501H378.225L381.049 385.177L380.83 385.774C380.403 386.937 379.876 387.046 379.021 386.828L378.722 387.862C378.842 387.921 379.18 388.001 379.578 388.001Z" fill="#E21B1B"/>
<rect x="308.5" y="364.637" width="93" height="31" rx="15.5" stroke="#E60A0A" stroke-opacity="0.32"/>
<rect x="493" y="279.137" width="131" height="32" rx="16" fill="#FDECEF"/>
<path d="M506.036 291.113C505.894 290.981 505.706 290.909 505.511 290.912C505.317 290.915 505.132 290.994 504.994 291.132C504.857 291.269 504.778 291.454 504.775 291.649C504.771 291.843 504.844 292.031 504.976 292.173L507.939 295.137L504.976 298.1C504.902 298.169 504.843 298.252 504.802 298.344C504.761 298.436 504.739 298.535 504.737 298.636C504.736 298.736 504.754 298.836 504.792 298.93C504.83 299.023 504.886 299.108 504.957 299.179C505.028 299.25 505.113 299.307 505.206 299.344C505.3 299.382 505.4 299.401 505.501 299.399C505.601 299.397 505.701 299.375 505.793 299.334C505.885 299.293 505.967 299.234 506.036 299.16L509 296.197L511.963 299.161C512.104 299.298 512.294 299.374 512.49 299.372C512.687 299.37 512.875 299.292 513.014 299.153C513.154 299.014 513.232 298.826 513.234 298.629C513.236 298.432 513.161 298.243 513.024 298.101L510.061 295.137L513.024 292.173C513.098 292.105 513.157 292.022 513.198 291.93C513.239 291.838 513.261 291.738 513.263 291.638C513.264 291.537 513.246 291.437 513.208 291.344C513.17 291.25 513.114 291.165 513.043 291.094C512.972 291.023 512.887 290.967 512.794 290.929C512.7 290.891 512.6 290.873 512.499 290.875C512.399 290.876 512.299 290.898 512.207 290.939C512.115 290.98 512.033 291.04 511.964 291.113L509 294.076L506.036 291.113Z" fill="#E21B1B"/>
<path d="M527.804 300.137H528.957L530.628 294.271H530.747L532.418 300.137H533.571L535.898 292.501H534.665L533.014 298.328H532.935L531.324 292.501H530.071L528.44 298.347H528.361L526.71 292.501H525.477L527.804 300.137ZM537.449 300.137H538.622V292.501H537.449V300.137ZM538.045 291.228C538.503 291.228 538.881 290.87 538.881 290.433C538.881 289.995 538.503 289.637 538.045 289.637C537.588 289.637 537.21 289.995 537.21 290.433C537.21 290.87 537.588 291.228 538.045 291.228ZM543.973 300.296C545.524 300.296 546.657 299.521 547.015 298.367L545.882 298.049C545.584 298.845 544.893 299.242 543.973 299.242C542.596 299.242 541.646 298.352 541.591 296.717H547.135V296.22C547.135 293.376 545.444 292.401 543.854 292.401C541.785 292.401 540.413 294.032 540.413 296.379C540.413 298.725 541.765 300.296 543.973 300.296ZM541.591 295.703C541.671 294.514 542.511 293.455 543.854 293.455C545.126 293.455 545.942 294.41 545.942 295.703H541.591ZM548.92 303.001H550.093V298.964H550.192C550.451 299.382 550.948 300.296 552.42 300.296C554.329 300.296 555.661 298.765 555.661 296.339C555.661 293.933 554.329 292.401 552.4 292.401C550.908 292.401 550.451 293.316 550.192 293.714H550.053V292.501H548.92V303.001ZM550.073 296.319C550.073 294.609 550.829 293.455 552.26 293.455C553.752 293.455 554.488 294.708 554.488 296.319C554.488 297.95 553.732 299.242 552.26 299.242C550.849 299.242 550.073 298.049 550.073 296.319ZM557.451 300.137H558.624V295.305C558.624 294.271 559.439 293.515 560.553 293.515C560.866 293.515 561.189 293.575 561.269 293.595V292.401C561.135 292.391 560.827 292.382 560.653 292.382C559.738 292.382 558.942 292.899 558.664 293.654H558.584V292.501H557.451V300.137ZM562.441 300.137H568.427V299.043H564.072V298.964L568.288 293.436V292.501H562.58V293.595H566.776V293.674L562.441 299.242V300.137ZM573.118 300.296C575.186 300.296 576.578 298.725 576.578 296.359C576.578 293.972 575.186 292.401 573.118 292.401C571.049 292.401 569.657 293.972 569.657 296.359C569.657 298.725 571.049 300.296 573.118 300.296ZM573.118 299.242C571.547 299.242 570.831 297.89 570.831 296.359C570.831 294.828 571.547 293.455 573.118 293.455C574.689 293.455 575.404 294.828 575.404 296.359C575.404 297.89 574.689 299.242 573.118 299.242ZM579.839 300.137H580.993L582.663 294.271H582.782L584.453 300.137H585.606L587.933 292.501H586.7L585.049 298.328H584.97L583.359 292.501H582.106L580.475 298.347H580.396L578.745 292.501H577.512L579.839 300.137ZM589.484 300.137H590.657V292.501H589.484V300.137ZM590.081 291.228C590.538 291.228 590.916 290.87 590.916 290.433C590.916 289.995 590.538 289.637 590.081 289.637C589.623 289.637 589.245 289.995 589.245 290.433C589.245 290.87 589.623 291.228 590.081 291.228ZM593.98 295.543C593.98 294.211 594.805 293.455 595.928 293.455C597.017 293.455 597.678 294.166 597.678 295.364V300.137H598.852V295.285C598.852 293.336 597.813 292.401 596.267 292.401C595.113 292.401 594.397 292.918 594.039 293.694H593.94V292.501H592.806V300.137H593.98V295.543ZM603.243 300.316C604.575 300.316 605.271 299.6 605.51 299.103H605.57V300.137H606.743V295.106C606.743 292.68 604.893 292.401 603.919 292.401C602.766 292.401 601.453 292.799 600.857 294.191L601.97 294.589C602.229 294.032 602.84 293.436 603.959 293.436C605.038 293.436 605.57 294.007 605.57 294.987V295.026C605.57 295.593 604.993 295.543 603.601 295.722C602.184 295.906 600.638 296.22 600.638 297.97C600.638 299.461 601.791 300.316 603.243 300.316ZM603.422 299.262C602.487 299.262 601.811 298.845 601.811 298.029C601.811 297.134 602.626 296.856 603.541 296.737C604.038 296.677 605.371 296.538 605.57 296.299V297.373C605.57 298.328 604.814 299.262 603.422 299.262Z" fill="#E21B1B"/>
<rect x="493.5" y="279.637" width="130" height="31" rx="15.5" stroke="#E60A0A" stroke-opacity="0.32"/>
<path d="M343.19 120.501C343.054 118.685 344.49 117.137 346.311 117.137C348.132 117.137 349.568 118.685 349.432 120.501L347.036 152.444C347.008 152.823 346.692 153.116 346.311 153.116C345.931 153.116 345.614 152.823 345.586 152.444L343.19 120.501Z" fill="white" fill-opacity="0.32"/>
<path d="M344.934 330.774C345.07 332.589 343.634 334.137 341.813 334.137C339.993 334.137 338.557 332.589 338.693 330.774L341.088 298.831C341.117 298.451 341.433 298.158 341.813 298.158C342.194 298.158 342.51 298.451 342.539 298.831L344.934 330.774Z" fill="white" fill-opacity="0.32"/>
<path d="M288.163 136.492C287.049 134.876 287.551 132.654 289.25 131.673C290.949 130.692 293.124 131.369 293.966 133.141L307.773 162.183C307.949 162.554 307.811 162.999 307.455 163.205C307.098 163.41 306.644 163.308 306.411 162.969L288.163 136.492Z" fill="white" fill-opacity="0.32"/>
<path d="M398.837 314.782C399.95 316.398 399.449 318.62 397.75 319.601C396.05 320.582 393.876 319.905 393.033 318.133L379.227 289.091C379.05 288.72 379.189 288.275 379.545 288.069C379.901 287.864 380.355 287.966 380.589 288.305L398.837 314.782Z" fill="white" fill-opacity="0.32"/>
<path d="M251.004 176.103C249.232 175.26 248.555 173.085 249.536 171.386C250.517 169.687 252.739 169.186 254.355 170.299L280.832 188.547C281.171 188.78 281.273 189.235 281.068 189.591C280.862 189.947 280.417 190.085 280.046 189.909L251.004 176.103Z" fill="white" fill-opacity="0.32"/>
<path d="M435.995 275.171C437.767 276.013 438.444 278.188 437.463 279.887C436.482 281.586 434.26 282.088 432.645 280.974L406.167 262.726C405.829 262.493 405.726 262.039 405.932 261.682C406.137 261.326 406.582 261.188 406.954 261.364L435.995 275.171Z" fill="white" fill-opacity="0.32"/>
<path d="M238.629 228.988C236.674 229.144 235 227.599 235 225.637C235 223.675 236.674 222.13 238.629 222.287L270.684 224.851C271.093 224.884 271.409 225.226 271.409 225.637C271.409 226.048 271.093 226.391 270.684 226.424L238.629 228.988Z" fill="white" fill-opacity="0.32"/>
<path d="M448.371 222.287C450.326 222.13 452 223.675 452 225.637C452 227.599 450.326 229.144 448.371 228.988L416.316 226.423C415.907 226.391 415.591 226.048 415.591 225.637C415.591 225.226 415.907 224.884 416.316 224.851L448.371 222.287Z" fill="white" fill-opacity="0.32"/>
<path d="M254.354 280.974C252.739 282.088 250.517 281.586 249.536 279.887C248.555 278.188 249.232 276.013 251.004 275.171L280.046 261.365C280.417 261.188 280.862 261.326 281.067 261.683C281.273 262.039 281.171 262.493 280.832 262.726L254.354 280.974Z" fill="white" fill-opacity="0.32"/>
<path d="M432.645 170.3C434.26 169.187 436.482 169.688 437.463 171.387C438.444 173.086 437.767 175.261 435.995 176.104L406.953 189.91C406.582 190.087 406.137 189.948 405.932 189.592C405.726 189.236 405.828 188.781 406.167 188.548L432.645 170.3Z" fill="white" fill-opacity="0.32"/>
<path d="M293.967 318.133C293.124 319.905 290.949 320.582 289.25 319.601C287.551 318.62 287.05 316.398 288.163 314.782L306.411 288.305C306.644 287.966 307.099 287.864 307.455 288.069C307.811 288.275 307.949 288.72 307.773 289.091L293.967 318.133Z" fill="white" fill-opacity="0.32"/>
<path d="M393.034 133.141C393.876 131.369 396.051 130.692 397.75 131.673C399.45 132.654 399.951 134.876 398.837 136.492L380.589 162.969C380.356 163.308 379.902 163.41 379.546 163.205C379.189 162.999 379.051 162.554 379.228 162.183L393.034 133.141Z" fill="white" fill-opacity="0.32"/>
<defs>
<filter id="filter0_b" x="-85.8193" y="-123.954" width="847.223" height="716.448" filterUnits="userSpaceOnUse" color-interpolation-filters="sRGB">
<feFlood flood-opacity="0" result="BackgroundImageFix"/>
<feGaussianBlur in="BackgroundImage" stdDeviation="82"/>
<feComposite in2="SourceAlpha" operator="in" result="effect1_backgroundBlur"/>
<feBlend mode="normal" in="SourceGraphic" in2="effect1_backgroundBlur" result="shape"/>
</filter>
<filter id="filter1_d" x="436" y="391.137" width="226" height="132" filterUnits="userSpaceOnUse" color-interpolation-filters="sRGB">
<feFlood flood-opacity="0" result="BackgroundImageFix"/>
<feColorMatrix in="SourceAlpha" type="matrix" values="0 0 0 0 0 0 0 0 0 0 0 0 0 0 0 0 0 0 127 0"/>
<feOffset dy="16"/>
<feGaussianBlur stdDeviation="16"/>
<feColorMatrix type="matrix" values="0 0 0 0 0.2 0 0 0 0 0.2 0 0 0 0 0.2 0 0 0 0.08 0"/>
<feBlend mode="normal" in2="BackgroundImageFix" result="effect1_dropShadow"/>
<feBlend mode="normal" in="SourceGraphic" in2="effect1_dropShadow" result="shape"/>
</filter>
<filter id="filter2_d" x="0" y="299.137" width="226" height="212" filterUnits="userSpaceOnUse" color-interpolation-filters="sRGB">
<feFlood flood-opacity="0" result="BackgroundImageFix"/>
<feColorMatrix in="SourceAlpha" type="matrix" values="0 0 0 0 0 0 0 0 0 0 0 0 0 0 0 0 0 0 127 0"/>
<feOffset dy="16"/>
<feGaussianBlur stdDeviation="16"/>
<feColorMatrix type="matrix" values="0 0 0 0 0.2 0 0 0 0 0.2 0 0 0 0 0.2 0 0 0 0.08 0"/>
<feBlend mode="normal" in2="BackgroundImageFix" result="effect1_dropShadow"/>
<feBlend mode="normal" in="SourceGraphic" in2="effect1_dropShadow" result="shape"/>
</filter>
<filter id="filter3_d" x="44" y="45.1372" width="226" height="152" filterUnits="userSpaceOnUse" color-interpolation-filters="sRGB">
<feFlood flood-opacity="0" result="BackgroundImageFix"/>
<feColorMatrix in="SourceAlpha" type="matrix" values="0 0 0 0 0 0 0 0 0 0 0 0 0 0 0 0 0 0 127 0"/>
<feOffset dy="16"/>
<feGaussianBlur stdDeviation="16"/>
<feColorMatrix type="matrix" values="0 0 0 0 0.2 0 0 0 0 0.2 0 0 0 0 0.2 0 0 0 0.08 0"/>
<feBlend mode="normal" in2="BackgroundImageFix" result="effect1_dropShadow"/>
<feBlend mode="normal" in="SourceGraphic" in2="effect1_dropShadow" result="shape"/>
</filter>
<filter id="filter4_d" x="412" y="0.137207" width="226" height="172" filterUnits="userSpaceOnUse" color-interpolation-filters="sRGB">
<feFlood flood-opacity="0" result="BackgroundImageFix"/>
<feColorMatrix in="SourceAlpha" type="matrix" values="0 0 0 0 0 0 0 0 0 0 0 0 0 0 0 0 0 0 127 0"/>
<feOffset dy="16"/>
<feGaussianBlur stdDeviation="16"/>
<feColorMatrix type="matrix" values="0 0 0 0 0.2 0 0 0 0 0.2 0 0 0 0 0.2 0 0 0 0.08 0"/>
<feBlend mode="normal" in2="BackgroundImageFix" result="effect1_dropShadow"/>
<feBlend mode="normal" in="SourceGraphic" in2="effect1_dropShadow" result="shape"/>
</filter>
</defs>
</svg>
