<svg width="104" height="104" viewBox="0 0 104 104" fill="none" xmlns="http://www.w3.org/2000/svg">
<circle cx="52" cy="52" r="34" stroke="#7A3DA8" stroke-width="4"/>
<circle cx="28" cy="76" r="14" fill="white"/>
<path d="M69 54H52V33" stroke="#FF6984" stroke-width="4" stroke-linecap="round" stroke-linejoin="round"/>
<path d="M40 76C40 79.1826 38.7357 82.2348 36.4853 84.4853C34.2348 86.7357 31.1826 88 28 88C24.8174 88 21.7652 86.7357 19.5147 84.4853C17.2643 82.2348 16 79.1826 16 76C16 72.8174 17.2643 69.7652 19.5147 67.5147C21.7652 65.2643 24.8174 64 28 64C31.1826 64 34.2348 65.2643 36.4853 67.5147C38.7357 69.7652 40 72.8174 40 76ZM34.045 71.455C33.9379 71.3482 33.8103 71.2642 33.6699 71.2078C33.5295 71.1515 33.3792 71.124 33.228 71.1271C33.0768 71.1302 32.9277 71.1637 32.7897 71.2258C32.6518 71.2878 32.5277 71.377 32.425 71.488L27.2155 78.1255L24.076 74.9845C23.8627 74.7858 23.5807 74.6776 23.2892 74.6827C22.9978 74.6879 22.7197 74.8059 22.5136 75.0121C22.3074 75.2182 22.1894 75.4963 22.1842 75.7877C22.1791 76.0792 22.2873 76.3612 22.486 76.5745L26.455 80.545C26.5619 80.6517 26.6892 80.7358 26.8294 80.7923C26.9695 80.8487 27.1196 80.8764 27.2706 80.8736C27.4217 80.8708 27.5706 80.8376 27.7085 80.776C27.8465 80.7144 27.9706 80.6256 28.0735 80.515L34.0615 73.03C34.2656 72.8177 34.3784 72.5339 34.3756 72.2394C34.3728 71.945 34.2546 71.6633 34.0465 71.455H34.045Z" fill="#FF6984"/>
</svg>
